<svg width="105" height="40" viewBox="0 0 105 40" fill="none" xmlns="http://www.w3.org/2000/svg">
<rect width="105" height="40" rx="5" fill="#003FFF"/>
<path d="M37.5566 10.1201H41.2871V8.6748H42.6543V10.1201H46.4434V11.3896H43.0596C44.1175 13.04 45.3919 14.3031 46.8828 15.1787C46.6029 15.4717 46.2546 15.8883 45.8379 16.4287C44.5391 15.3415 43.4779 14.1045 42.6543 12.7178V15.3643H44.6172V16.5947H42.6543V18.2939H41.2871V16.5947H39.3145V15.4131C38.9368 15.8102 38.5365 16.1878 38.1133 16.5459C37.7552 16.0771 37.4232 15.6735 37.1172 15.335C38.6569 14.29 39.9232 12.9749 40.916 11.3896H37.5566V10.1201ZM39.3584 15.3643H41.2871V12.8105C40.7305 13.735 40.0876 14.5863 39.3584 15.3643ZM56.2871 13.8994H53.6406V15.1006H56.5117V16.3311H53.6406V18.3037H52.2637V11.4678H51.9756C51.5752 12.363 51.1211 13.1442 50.6133 13.8115C50.4245 13.4535 50.1738 13.0303 49.8613 12.542C50.6035 11.4287 51.1829 10.1396 51.5996 8.6748L52.8691 8.97754C52.7454 9.40723 52.6152 9.81738 52.4785 10.208H56.8438V11.4678H53.6406V12.6689H56.2871V13.8994ZM49.0605 8.7334L50.3691 9.11426C50.1608 9.76855 49.9264 10.4033 49.666 11.0186V18.2939H48.3379V13.6211C48.071 14.0573 47.7878 14.4821 47.4883 14.8955C47.4167 14.3942 47.306 13.7887 47.1562 13.0791C47.944 11.8356 48.5788 10.387 49.0605 8.7334ZM58.5039 9.06543H65.5352V12.7959H58.5039V9.06543ZM64.0898 10.2959H59.9492V11.5654H64.0898V10.2959ZM60.3008 17.6787H58.9336V18.1377H57.5859V13.5576H61.6484V18.1377H60.3008V17.6787ZM58.9336 16.4873H60.3008V14.749H58.9336V16.4873ZM63.7188 17.6787V18.1377H62.3711V13.5576H66.4434V18.1377H65.0957V17.6787H63.7188ZM65.0957 16.4873V14.749H63.7188V16.4873H65.0957ZM75.3789 14.3779C75.9518 14.6253 76.4499 14.8141 76.873 14.9443C76.7201 15.7288 76.5915 16.3262 76.4873 16.7363C76.3864 17.1465 76.1602 17.4508 75.8086 17.6494C75.4603 17.8512 74.9883 17.9521 74.3926 17.9521H70.1543C68.7611 17.9521 68.0645 17.223 68.0645 15.7646V11.585H69.5098V12.5322H74.2363V10.4717H67.8008V9.13379H75.6914V13.8701H69.5098V15.6279C69.5098 16.2855 69.819 16.6143 70.4375 16.6143H74.0801C74.3828 16.6143 74.627 16.5671 74.8125 16.4727C75.0013 16.3783 75.1185 16.2106 75.1641 15.9697C75.2096 15.7256 75.2812 15.195 75.3789 14.3779ZM80.3398 15.4424L81.1602 14.7979H80.2422V11.5068H82.625V10.7549H79.959V9.63184H82.625V8.71387H83.9238V9.63184H86.707V10.7549H83.9238V11.5068H86.3262V15.1982H85.0762V14.7979H83.9043C83.8652 15.4554 83.7611 15.9795 83.5918 16.3701C84.4967 16.6761 85.584 16.8454 86.8535 16.8779C86.5475 17.4899 86.3164 17.9587 86.1602 18.2842C84.8516 18.1475 83.7122 17.8415 82.7422 17.3662C82.2214 17.7178 81.4238 18.0563 80.3496 18.3818C80.1738 18.0889 79.9297 17.7113 79.6172 17.249C80.4701 17.0602 81.1178 16.8584 81.5605 16.6436C81.1048 16.2985 80.6979 15.8981 80.3398 15.4424ZM78.7969 8.7334L80.0957 9.05566C79.9069 9.77181 79.6823 10.4749 79.4219 11.165V18.3623H78.2012V13.8408C77.9733 14.264 77.7324 14.6774 77.4785 15.0811C77.4069 14.4821 77.2995 13.8636 77.1562 13.2256C77.8919 11.8519 78.4388 10.3545 78.7969 8.7334ZM85.0762 13.7139V12.5908H83.9238V13.7139H85.0762ZM81.4922 13.7139H82.625V12.5908H81.4922V13.7139ZM82.4102 15.833C82.5143 15.5661 82.5827 15.221 82.6152 14.7979H81.2383C81.5443 15.2015 81.9349 15.5465 82.4102 15.833ZM96.2578 16.79C96.2578 17.2035 96.1634 17.5225 95.9746 17.7471C95.7858 17.9749 95.4961 18.1084 95.1055 18.1475C94.7181 18.1898 94.207 18.2061 93.5723 18.1963C93.4616 17.695 93.3314 17.223 93.1816 16.7803C93.8522 16.8193 94.2168 16.8389 94.2754 16.8389C94.6855 16.8389 94.8906 16.6403 94.8906 16.2432V15.3545H92.8594V18.0889H91.4824V15.3545H89.3682C89.2673 16.79 88.9922 17.7926 88.543 18.3623C88.1263 18.0628 87.7064 17.7894 87.2832 17.542C87.8105 16.8258 88.0645 15.5531 88.0449 13.7236V9.12402H96.2578V16.79ZM89.4121 11.624H91.4824V10.4131H89.4121V11.624ZM94.8906 10.4131H92.8594V11.624H94.8906V10.4131ZM89.4121 14.0947H91.4824V12.8838H89.4121V14.0947ZM92.8594 14.0947H94.8906V12.8838H92.8594V14.0947ZM38.2695 31.3232V26.9678C38.1621 27.0133 38.0514 27.0589 37.9375 27.1045C37.6966 26.7594 37.4525 26.4567 37.2051 26.1963C38.2012 25.8057 38.8148 25.3825 39.0459 24.9268H37.293V23.9697H37.8984C37.7031 23.6605 37.5111 23.3903 37.3223 23.1592C37.6738 22.8206 38.0286 22.3161 38.3867 21.6455H39.6465C39.5391 21.8864 39.4268 22.1143 39.3096 22.3291H42.0391V23.2959H40.6768C40.6605 23.5335 40.6344 23.7581 40.5986 23.9697H42.332V24.9268H40.8135L42.2051 25.8545L41.5703 26.5771H45.75V31.3232H44.4414V30.8936H39.5781V31.3232H38.2695ZM38.1133 23.9697H39.3438C39.3763 23.7679 39.3991 23.5433 39.4121 23.2959H38.7041C38.5153 23.5465 38.3184 23.7712 38.1133 23.9697ZM39.0068 26.5771H41.248C40.8346 26.1898 40.4521 25.8464 40.1006 25.5469C39.8564 25.931 39.4919 26.2744 39.0068 26.5771ZM44.4414 27.6025H39.5781V28.2861H44.4414V27.6025ZM39.5781 29.8682H44.4414V29.2334H39.5781V29.8682ZM42.4883 22.3682H46.3848V26.0205H42.4883V22.3682ZM45.1738 24.9854V23.4033H43.6992V24.9854H45.1738ZM47.3906 24.4482H49.1094V24.0869H47.7812V23.3643H49.1094V23.0029H47.6348V22.2803H49.1094V21.6943H50.2812V22.2803H51.7559V23.0029H50.2812V23.3643H51.5996V24.0869H50.2812V24.4482H51.8242V25.1709H50.2812V25.5615H53.5332V25.1709H52.166V24.4482H53.5332V24.0869H52.4688V23.3643H53.5332V23.0029H52.2344V22.2803H53.5332V21.6943H54.7051V22.2803H56.4434V23.0029H54.7051V23.3643H56.2871V24.0869H54.7051V24.4482H56.5117V25.1709H54.7051V25.5615H55.8281V28.6279H52.2539C52.5208 28.9144 52.778 29.2074 53.0254 29.5068L52.166 30.1318C51.8991 29.7607 51.5833 29.3669 51.2188 28.9502L51.6777 28.6279H48.0156V27.8369H54.5391V27.4658H48.4648V26.7432H54.5391V26.3428H48.0938V25.5615H49.1094V25.1709H47.3906V24.4482ZM53.6309 29.0479C53.9954 29.2171 54.3861 29.3864 54.8027 29.5557C54.7246 29.8747 54.627 30.1839 54.5098 30.4834C54.3405 30.9391 53.9108 31.167 53.2207 31.167H50.9258C49.9753 31.167 49.5 30.8122 49.5 30.1025V28.9307H50.7891V29.7119C50.7891 30.0309 50.9616 30.1904 51.3066 30.1904H52.7129C53.1296 30.1904 53.3737 30.0732 53.4453 29.8389C53.4974 29.6891 53.5592 29.4255 53.6309 29.0479ZM48.2109 28.833L49.2559 29.3213C48.8717 30.0114 48.5104 30.5941 48.1719 31.0693L47.1562 30.4541C47.5404 29.9593 47.8919 29.4189 48.2109 28.833ZM55.6035 28.7354C56.0397 29.3083 56.4401 29.8551 56.8047 30.376L55.8086 30.9912C55.4245 30.3402 55.0501 29.764 54.6855 29.2627L55.6035 28.7354ZM62.9277 21.6748H64.2168V22.3193H66.8535V23.4131H64.2168V23.8232H62.9277V23.4131H61.1406V23.833H59.8516V23.4131H57.166V22.3193H59.8516V21.6748H61.1406V22.3193H62.9277V21.6748ZM63.5039 26.0596L64.0996 25.4639H63.2402C62.9766 26.1377 62.6771 26.7269 62.3418 27.2314C62.1921 27.0947 61.8438 26.8766 61.2969 26.5771C61.7917 25.7959 62.1855 24.8779 62.4785 23.8232L63.6992 24.0674L63.6016 24.4092H66.6387V25.4639H64.5879C65.0794 25.8285 65.5091 26.18 65.877 26.5186L65.0371 27.3779C64.627 26.9613 64.1159 26.5218 63.5039 26.0596ZM61.1602 27.0361H59.9102V24.0381H61.1602V27.0361ZM59.0215 27.0361H57.7715V24.165H59.0215V27.0361ZM57.1758 29.8975H58.0742V27.3975H65.9258V29.8975H66.834V30.9912H57.1758V29.8975ZM64.6367 28.4521H63.709V29.8975H64.6367V28.4521ZM59.3633 29.8975H60.291V28.4521H59.3633V29.8975ZM61.541 29.8975H62.459V28.4521H61.541V29.8975ZM71.4922 21.8701L73.0938 21.6943C73.1849 21.9222 73.2939 22.2119 73.4209 22.5635H76.7363V23.6963H69.2363V26.0498C69.2363 28.4326 68.8457 30.2002 68.0645 31.3525C67.7389 30.9229 67.4102 30.5322 67.0781 30.1807C67.6445 29.2497 67.9212 27.8695 67.9082 26.04V22.5635H71.8145L71.4922 21.8701ZM69.1582 28.6865H72.5762V28.0029H69.7539V26.8896C69.9948 26.499 70.2324 26.0921 70.4668 25.6689H69.4707V24.5361H71.0674C71.2041 24.2692 71.3392 23.9958 71.4727 23.7158L72.8301 23.9209L72.5078 24.5361H76.4922V25.6689H71.8975L71.209 26.8896H72.5762V25.9717H73.8848V26.8896H76.3359V28.0029H73.8848V28.6865H76.7949V29.8193H73.8848V31.2451H72.5762V29.8193H69.1582V28.6865Z" fill="white"/>
<path d="M86.0527 35.8096C86.1136 35.86 86.1828 35.8853 86.2603 35.8853C86.3042 35.8853 86.3372 35.8778 86.3594 35.8628C86.3815 35.8475 86.3926 35.828 86.3926 35.8042C86.3926 35.7837 86.3838 35.7643 86.3662 35.7461C86.3486 35.7279 86.3022 35.7031 86.2271 35.6719C86.1089 35.6217 86.0498 35.5488 86.0498 35.4531C86.0498 35.3828 86.0765 35.3283 86.1299 35.2896C86.1836 35.2505 86.2546 35.231 86.3428 35.231C86.4167 35.231 86.4787 35.2406 86.5288 35.2598V35.4111C86.478 35.3766 86.4186 35.3594 86.3506 35.3594C86.3109 35.3594 86.2791 35.3667 86.2554 35.3813C86.2316 35.3957 86.2197 35.415 86.2197 35.4395C86.2197 35.459 86.2279 35.4771 86.2441 35.4937C86.2604 35.5099 86.3006 35.5321 86.3647 35.5601C86.4399 35.5923 86.4915 35.6263 86.5195 35.6621C86.5479 35.6979 86.562 35.7406 86.562 35.79C86.562 35.8626 86.5363 35.918 86.4849 35.9561C86.4334 35.9941 86.3604 36.0132 86.2656 36.0132C86.179 36.0132 86.1081 35.9992 86.0527 35.9712V35.8096ZM86.9912 35.9937C86.9674 36.0067 86.9315 36.0132 86.8833 36.0132C86.7687 36.0132 86.7114 35.953 86.7114 35.8325V35.5776H86.6226V35.46H86.7114V35.3413L86.8682 35.2964V35.46H86.9912V35.5776H86.8682V35.8052C86.8682 35.8628 86.891 35.8916 86.9365 35.8916C86.9541 35.8916 86.9723 35.8864 86.9912 35.876V35.9937ZM87.5669 35.7744H87.2114C87.217 35.8581 87.2674 35.8999 87.3628 35.8999C87.4224 35.8999 87.4749 35.8853 87.5205 35.856V35.9717C87.4714 35.9993 87.4069 36.0132 87.3271 36.0132C87.2412 36.0132 87.1743 35.9889 87.1265 35.9404C87.0789 35.8919 87.0552 35.8244 87.0552 35.7378C87.0552 35.6515 87.0806 35.5815 87.1313 35.5278C87.1821 35.4738 87.2459 35.4468 87.3228 35.4468C87.3993 35.4468 87.459 35.4701 87.502 35.5166C87.5452 35.5628 87.5669 35.6265 87.5669 35.7075V35.7744ZM87.4199 35.6758C87.4199 35.5951 87.3872 35.5547 87.3218 35.5547C87.2948 35.5547 87.2708 35.5658 87.25 35.5879C87.2292 35.61 87.2161 35.6393 87.2109 35.6758H87.4199ZM88.1738 35.46L87.9712 36H87.793L87.6001 35.46H87.769L87.8682 35.7998C87.8789 35.8369 87.8849 35.868 87.8862 35.8931H87.8887C87.8913 35.8674 87.8976 35.8372 87.9077 35.8027L88.0088 35.46H88.1738ZM88.7261 35.7744H88.3706C88.3761 35.8581 88.4266 35.8999 88.522 35.8999C88.5815 35.8999 88.6341 35.8853 88.6797 35.856V35.9717C88.6305 35.9993 88.5661 36.0132 88.4863 36.0132C88.4004 36.0132 88.3335 35.9889 88.2856 35.9404C88.2381 35.8919 88.2144 35.8244 88.2144 35.7378C88.2144 35.6515 88.2397 35.5815 88.2905 35.5278C88.3413 35.4738 88.4051 35.4468 88.4819 35.4468C88.5584 35.4468 88.6182 35.4701 88.6611 35.5166C88.7044 35.5628 88.7261 35.6265 88.7261 35.7075V35.7744ZM88.5791 35.6758C88.5791 35.5951 88.5464 35.5547 88.481 35.5547C88.4539 35.5547 88.43 35.5658 88.4092 35.5879C88.3883 35.61 88.3753 35.6393 88.3701 35.6758H88.5791ZM89.4517 36H89.2603L89.1245 35.749C89.1196 35.7399 89.1146 35.7235 89.1094 35.6997H89.1074C89.1048 35.7114 89.099 35.7284 89.0898 35.7505L88.9536 36H88.7607L89.0034 35.6216L88.7817 35.2437H88.978L89.0908 35.4751C89.0999 35.494 89.1077 35.5148 89.1143 35.5376H89.1162C89.123 35.5171 89.1313 35.4954 89.1411 35.4727L89.2656 35.2437H89.4458L89.2173 35.6187L89.4517 36ZM90.2368 36V35.541C90.2368 35.4987 90.2389 35.4455 90.2432 35.3813H90.2393C90.2295 35.4299 90.2217 35.4622 90.2158 35.4785L90.0293 36H89.9009L89.7119 35.4834C89.7074 35.471 89.6994 35.437 89.688 35.3813H89.6836C89.6878 35.4448 89.6899 35.5085 89.6899 35.5723V36H89.5444V35.2437H89.7788L89.9419 35.7007C89.9556 35.7384 89.9648 35.7739 89.9697 35.8071H89.9731C89.9832 35.7658 89.9937 35.73 90.0044 35.6997L90.168 35.2437H90.396V36H90.2368ZM91.2173 36H91.0562V35.688H90.7339V36H90.5728V35.2437H90.7339V35.5488H91.0562V35.2437H91.2173V36ZM91.7764 35.1655C91.8298 35.2293 91.8763 35.2876 91.916 35.3403L91.7949 35.4224C91.748 35.3449 91.7054 35.2834 91.667 35.2378L91.7764 35.1655ZM92.5859 35.4019C92.5736 35.4546 92.5654 35.4946 92.5615 35.522C92.501 35.5233 92.4567 35.5239 92.4287 35.5239C92.3551 35.5239 92.3184 35.4891 92.3184 35.4194V35.3208H92.1514C92.1507 35.4136 92.1069 35.4966 92.02 35.5698H92.5146V35.6851C92.4688 35.7756 92.4126 35.8532 92.3462 35.918C92.4185 35.9521 92.5 35.9764 92.5908 35.9907C92.5648 36.0304 92.5394 36.076 92.5146 36.1274C92.4089 36.1024 92.3141 36.0636 92.2305 36.0112C92.1462 36.0672 92.0495 36.1082 91.9404 36.1343C91.9235 36.0933 91.8981 36.0506 91.8643 36.0063C91.9587 35.9858 92.0412 35.9577 92.1118 35.9219C92.0565 35.8714 92.0075 35.813 91.9648 35.7466L92.0503 35.6909H91.9453V35.5698H92.0122C91.9865 35.5402 91.9531 35.5057 91.9121 35.4663C91.9824 35.4168 92.0176 35.3498 92.0176 35.2651V35.2017H92.4502V35.3579C92.4502 35.383 92.4578 35.397 92.4731 35.3999C92.4888 35.4028 92.5264 35.4035 92.5859 35.4019ZM92.229 35.8477C92.285 35.8027 92.3291 35.7505 92.3613 35.6909H92.0801C92.1214 35.7521 92.1711 35.8044 92.229 35.8477ZM91.9365 35.7573C91.9417 35.8068 91.9512 35.8566 91.9648 35.9067C91.8737 35.9875 91.8066 36.0519 91.7637 36.1001L91.6924 35.9956C91.7061 35.9774 91.7132 35.952 91.7139 35.9194V35.6274H91.6191V35.4946H91.8457V35.8491C91.8639 35.8296 91.8942 35.799 91.9365 35.7573ZM92.791 35.1665C92.8418 35.2349 92.8848 35.2954 92.9199 35.3481L92.7949 35.4233C92.763 35.366 92.7236 35.3022 92.6768 35.2319L92.791 35.1665ZM92.9443 35.4644H93.1924V35.1675H93.3389V35.4644H93.5889V35.5952H93.3389V36.1323H93.1924V35.5952H92.9443V35.4644ZM92.9922 35.7905C92.9974 35.8511 93.0029 35.8993 93.0088 35.9351C92.8838 36.0164 92.8044 36.0757 92.7705 36.1128L92.6982 36.0171C92.7145 35.9976 92.7227 35.9702 92.7227 35.9351V35.6216H92.623V35.4946H92.8525V35.8804C92.8792 35.8647 92.9258 35.8348 92.9922 35.7905ZM94.1641 35.1753H94.2803V35.4692H94.3311V35.5786H94.0957V35.6694H94.2803V36.1167H94.1641V35.7788H94.0962C94.0962 35.9207 94.0713 36.0396 94.0215 36.1353C93.9896 36.1086 93.9551 36.0815 93.918 36.0542C93.9635 35.9748 93.9847 35.8433 93.9814 35.6597V35.1968H94.0957V35.4692H94.1641V35.1753ZM94.8428 35.1812L94.8779 35.3091C94.7783 35.328 94.6462 35.3449 94.4814 35.3599V35.4536H94.8457V35.5679C94.8262 35.688 94.7861 35.7956 94.7256 35.8906C94.7721 35.9401 94.8268 35.978 94.8896 36.0044L94.8096 36.1294C94.749 36.0916 94.6958 36.0459 94.6499 35.9922C94.6056 36.042 94.5547 36.0877 94.4971 36.1294C94.484 36.1066 94.4606 36.0705 94.4268 36.021C94.4847 35.9836 94.5343 35.9393 94.5757 35.8882C94.5373 35.8224 94.5068 35.7479 94.4844 35.6646L94.5713 35.5854C94.5898 35.6593 94.6147 35.7243 94.646 35.7803C94.6772 35.7204 94.7002 35.6535 94.7148 35.5796H94.4814V35.6323C94.4814 35.8621 94.4421 36.0282 94.3633 36.1304C94.3385 36.0926 94.3115 36.0545 94.2822 36.0161C94.3382 35.9341 94.3639 35.7977 94.3594 35.6069V35.2388C94.5716 35.2277 94.7327 35.2085 94.8428 35.1812ZM94.915 35.7505C94.9616 35.6789 94.9998 35.5864 95.0298 35.4731H94.9238V35.3433H95.0352V35.1685H95.1621V35.3433H95.2646V35.4731H95.1621V35.5913L95.1924 35.564C95.2367 35.605 95.2822 35.6493 95.3291 35.6968L95.2373 35.7798C95.2126 35.7482 95.1875 35.7183 95.1621 35.6899V36.1294H95.0352V35.7773C95.0127 35.8317 94.9876 35.8804 94.96 35.9233C94.9456 35.8647 94.9307 35.8071 94.915 35.7505ZM95.4248 35.3501C95.4508 35.4875 95.4976 35.6064 95.5649 35.707C95.6349 35.6029 95.6803 35.4803 95.7012 35.3394H95.2715V35.2144H95.8389V35.3374C95.8109 35.5229 95.749 35.6826 95.6533 35.8164C95.7191 35.8848 95.7979 35.9416 95.8896 35.9868C95.859 36.0317 95.8304 36.078 95.8037 36.1255C95.7109 36.0708 95.6299 36.0049 95.5605 35.9277C95.4821 36.0088 95.388 36.078 95.2783 36.1353C95.2529 36.0871 95.2262 36.0441 95.1982 36.0063C95.3079 35.9565 95.4001 35.8936 95.4746 35.8174C95.3958 35.6999 95.3382 35.562 95.3018 35.4038L95.4248 35.3501ZM96.8867 35.6118H96.7773V36.1255H96.6484V35.6118H96.5449V35.6401C96.5449 35.8605 96.5016 36.0256 96.415 36.1353C96.3753 36.0981 96.3366 36.0666 96.2988 36.0405C96.3783 35.9546 96.418 35.8195 96.418 35.6353V35.2437C96.5866 35.23 96.7233 35.2065 96.8281 35.1733L96.8838 35.3042C96.792 35.3276 96.679 35.3462 96.5449 35.3599V35.4907H96.8867V35.6118ZM96.3486 35.8159H96.1079C96.0985 35.9621 96.071 36.0682 96.0254 36.1343C95.9915 36.0959 95.9548 36.0588 95.915 36.0229C95.9639 35.9461 95.9876 35.8273 95.9863 35.6665V35.2524C96.1165 35.2427 96.2321 35.2196 96.333 35.1831L96.3887 35.311C96.2988 35.3345 96.2064 35.3491 96.1113 35.355V35.4526H96.3486V35.8159ZM96.1113 35.7046H96.2256V35.564H96.1113V35.7046ZM97.2295 36.1274H97.0889V35.6973C97.0456 35.7419 96.9993 35.7837 96.9502 35.8228C96.9398 35.77 96.9287 35.7192 96.917 35.6704C97.0137 35.5874 97.0923 35.4946 97.1528 35.3921H96.9258V35.27H97.2148C97.2295 35.2352 97.2425 35.1994 97.2539 35.1626L97.4082 35.186C97.3975 35.2147 97.3861 35.2427 97.374 35.27H97.8799V35.3921H97.3135C97.3005 35.4165 97.2866 35.4403 97.272 35.4634H97.7871V35.9927C97.7871 36.0334 97.7773 36.0646 97.7578 36.0864C97.7383 36.1086 97.7111 36.1213 97.6763 36.1245C97.6414 36.1278 97.5736 36.1294 97.4727 36.1294C97.4635 36.0851 97.4508 36.0405 97.4346 35.9956C97.4906 35.9989 97.5426 36.0005 97.5908 36.0005C97.6279 36.0005 97.6465 35.9823 97.6465 35.9458V35.9292H97.2295V36.1274ZM97.6465 35.5776H97.2295V35.6489H97.6465V35.5776ZM97.2295 35.8247H97.6465V35.7534H97.2295V35.8247Z" fill="white"/>
<path d="M8 15.3846L15.3846 8H32M8 15.3846H24.6154M8 15.3846V23.6923M32 8L24.6154 15.3846M32 8V16.3077M24.6154 32L32 24.6154V16.3077M24.6154 32H8V23.6923M24.6154 32V23.6923M24.6154 15.3846V23.6923M8 23.6923H24.6154M24.6154 23.6923L32 16.3077" stroke="white" stroke-width="2"/>
</svg>
