<svg width="105" height="40" viewBox="0 0 105 40" fill="none" xmlns="http://www.w3.org/2000/svg">
<g clip-path="url(#clip0)">
<rect width="105" height="40" rx="5" fill="url(#paint0_linear)"/>
<path d="M92.2617 35.1753H92.3779V35.4692H92.4287V35.5786H92.1934V35.6694H92.3779V36.1167H92.2617V35.7788H92.1938C92.1938 35.9207 92.1689 36.0396 92.1191 36.1353C92.0872 36.1086 92.0527 36.0815 92.0156 36.0542C92.0612 35.9748 92.0824 35.8433 92.0791 35.6597V35.1968H92.1934V35.4692H92.2617V35.1753ZM92.9404 35.1812L92.9756 35.3091C92.876 35.328 92.7438 35.3449 92.5791 35.3599V35.4536H92.9434V35.5679C92.9238 35.688 92.8838 35.7956 92.8232 35.8906C92.8698 35.9401 92.9245 35.978 92.9873 36.0044L92.9072 36.1294C92.8467 36.0916 92.7935 36.0459 92.7476 35.9922C92.7033 36.042 92.6523 36.0877 92.5947 36.1294C92.5817 36.1066 92.5583 36.0705 92.5244 36.021C92.5824 35.9836 92.632 35.9393 92.6733 35.8882C92.6349 35.8224 92.6045 35.7479 92.582 35.6646L92.6689 35.5854C92.6875 35.6593 92.7124 35.7243 92.7437 35.7803C92.7749 35.7204 92.7979 35.6535 92.8125 35.5796H92.5791V35.6323C92.5791 35.8621 92.5397 36.0282 92.4609 36.1304C92.4362 36.0926 92.4092 36.0545 92.3799 36.0161C92.4359 35.9341 92.4616 35.7977 92.457 35.6069V35.2388C92.6693 35.2277 92.8304 35.2085 92.9404 35.1812ZM93.0127 35.7505C93.0592 35.6789 93.0975 35.5864 93.1274 35.4731H93.0215V35.3433H93.1328V35.1685H93.2598V35.3433H93.3623V35.4731H93.2598V35.5913L93.29 35.564C93.3343 35.605 93.3799 35.6493 93.4268 35.6968L93.335 35.7798C93.3102 35.7482 93.2852 35.7183 93.2598 35.6899V36.1294H93.1328V35.7773C93.1104 35.8317 93.0853 35.8804 93.0576 35.9233C93.0433 35.8647 93.0283 35.8071 93.0127 35.7505ZM93.5225 35.3501C93.5485 35.4875 93.5952 35.6064 93.6626 35.707C93.7326 35.6029 93.778 35.4803 93.7988 35.3394H93.3691V35.2144H93.9365V35.3374C93.9085 35.5229 93.8467 35.6826 93.751 35.8164C93.8167 35.8848 93.8955 35.9416 93.9873 35.9868C93.9567 36.0317 93.9281 36.078 93.9014 36.1255C93.8086 36.0708 93.7275 36.0049 93.6582 35.9277C93.5798 36.0088 93.4857 36.078 93.376 36.1353C93.3506 36.0871 93.3239 36.0441 93.2959 36.0063C93.4056 35.9565 93.4977 35.8936 93.5723 35.8174C93.4935 35.6999 93.4359 35.562 93.3994 35.4038L93.5225 35.3501ZM94.1895 35.2075L94.3076 35.1626C94.346 35.2264 94.3822 35.2948 94.416 35.3677L94.2861 35.4165C94.2562 35.3462 94.224 35.2765 94.1895 35.2075ZM94.9404 35.9341C94.9404 35.994 94.929 36.0382 94.9062 36.0669C94.8835 36.0959 94.8511 36.113 94.8091 36.1182C94.7671 36.1237 94.6888 36.1265 94.5742 36.1265C94.5632 36.075 94.5514 36.0282 94.5391 35.9858C94.6221 35.9891 94.6771 35.9907 94.7041 35.9907C94.7673 35.9907 94.7988 35.9621 94.7988 35.9048V35.3618H94.4443V35.231H94.9404V35.9341ZM94.0576 35.3042H94.1992V36.1196H94.0576V35.3042ZM94.291 35.4663H94.707V35.8882H94.416V35.9487H94.291V35.4663ZM94.582 35.7612V35.5933H94.416V35.7612H94.582ZM95.0635 35.2046H95.4463V35.5835H95.0635V35.2046ZM95.333 35.2964H95.1768V35.353H95.333V35.2964ZM95.333 35.4917V35.4351H95.1768V35.4917H95.333ZM95.502 35.3804H95.6313C95.6359 35.354 95.6398 35.3286 95.6431 35.3042H95.4844V35.2065H95.9639V35.3042H95.7666C95.7624 35.3299 95.7578 35.3553 95.7529 35.3804H95.9346V35.7905H95.8232V35.478H95.6133V35.7896H95.502V35.3804ZM95.0664 35.7671H95.1729C95.1732 35.8042 95.1725 35.839 95.1709 35.8716C95.1859 35.8856 95.2015 35.8984 95.2178 35.9102V35.7261H95.0215V35.6284H95.4688V35.7261H95.3379V35.7886H95.4541V35.8843H95.3379V35.9722C95.3828 35.9878 95.4354 35.9961 95.4956 35.9971C95.4728 35.9629 95.4489 35.9321 95.4238 35.9048C95.4954 35.8853 95.5537 35.854 95.5986 35.811C95.6436 35.7677 95.666 35.7 95.666 35.6079V35.52H95.7715V35.6138C95.7715 35.6675 95.7656 35.716 95.7539 35.7593C95.8408 35.8104 95.918 35.8599 95.9854 35.9077L95.9106 35.9961L95.9873 35.9946C95.9723 36.0298 95.9606 36.0675 95.9521 36.1079C95.8076 36.1079 95.6823 36.1073 95.5762 36.106C95.4704 36.105 95.3997 36.1007 95.3643 36.0933C95.3288 36.0858 95.2935 36.0732 95.2583 36.0557C95.2231 36.0384 95.1898 36.0164 95.1582 35.9897C95.1475 36.0532 95.1305 36.104 95.1074 36.1421C95.084 36.1128 95.0521 36.0793 95.0117 36.0415C95.0488 35.9849 95.0671 35.8934 95.0664 35.7671ZM95.5356 35.9976L95.8975 35.9961C95.8369 35.946 95.7744 35.8999 95.71 35.8579C95.6706 35.9142 95.6125 35.9608 95.5356 35.9976ZM96.1426 35.1675C96.1986 35.2352 96.2438 35.2948 96.2783 35.3462L96.1631 35.4224C96.1195 35.3527 96.0775 35.2909 96.0371 35.2368L96.1426 35.1675ZM96.2432 35.8188C96.3838 35.7746 96.5068 35.707 96.6123 35.6162C96.6061 35.5944 96.599 35.5736 96.5908 35.5537C96.514 35.6266 96.4219 35.686 96.3145 35.7319C96.2852 35.6766 96.2653 35.6437 96.2549 35.6333C96.3815 35.5942 96.4816 35.5436 96.5552 35.4814C96.5457 35.4655 96.5358 35.4505 96.5254 35.4365C96.4613 35.4808 96.389 35.5197 96.3086 35.5532C96.2949 35.5207 96.2741 35.4849 96.2461 35.4458C96.3594 35.4119 96.4536 35.368 96.5288 35.314H96.3047V35.2026H96.9561V35.314H96.668C96.6501 35.3328 96.6312 35.3511 96.6113 35.3687C96.6445 35.4054 96.6729 35.4484 96.6963 35.4976C96.7484 35.4546 96.8024 35.4054 96.8584 35.3501L96.9609 35.437L96.7598 35.585L96.9883 35.7515L96.9121 35.8589L96.7617 35.7231C96.7673 35.7599 96.77 35.7858 96.77 35.8008C96.77 35.8574 96.7565 35.8999 96.7295 35.9282C96.7028 35.9565 96.6642 35.9712 96.6138 35.9722C96.5636 35.9728 96.514 35.9728 96.4648 35.9722C96.457 35.9396 96.4471 35.904 96.4351 35.8652C96.3937 35.8867 96.349 35.9064 96.3008 35.9243C96.2826 35.8853 96.2633 35.8501 96.2432 35.8188ZM96.4512 35.8564C96.4961 35.861 96.5356 35.8633 96.5698 35.8633C96.6167 35.8633 96.6401 35.832 96.6401 35.7695C96.6401 35.7552 96.6388 35.7393 96.6362 35.7217C96.5854 35.7721 96.5238 35.8171 96.4512 35.8564ZM96.9854 35.9956C96.9665 36.0418 96.9508 36.0815 96.9385 36.1147L96.6094 36.1138L96.395 36.1099C96.3527 36.1086 96.3127 36.1001 96.2749 36.0845C96.2371 36.0692 96.2048 36.0464 96.1777 36.0161L96.0713 36.1372L96.0156 35.9878C96.0426 35.9637 96.0736 35.9373 96.1084 35.9087V35.6392H96.0215V35.5103H96.2305V35.9165C96.2705 35.9705 96.3418 35.9976 96.4443 35.9976L96.6104 35.999C96.7103 35.999 96.8353 35.9979 96.9854 35.9956ZM97.0986 35.1616C97.1455 35.2013 97.1882 35.2407 97.2266 35.2798L97.126 35.3755C97.0856 35.3312 97.0462 35.2892 97.0078 35.2495L97.0986 35.1616ZM97.2393 35.9663L97.2266 35.8364L97.376 35.8135V35.7036H97.2207V35.5884C97.2383 35.5376 97.2554 35.4751 97.272 35.4009H97.2295V35.2817H97.2964C97.3035 35.245 97.3105 35.2059 97.3174 35.1646L97.4258 35.1812C97.4189 35.215 97.4118 35.2485 97.4043 35.2817H97.584V35.4009H97.377C97.362 35.4634 97.3464 35.5246 97.3301 35.5845H97.376V35.4624H97.4902V35.5845H97.5742V35.7036H97.4902V35.7939C97.5163 35.7894 97.5417 35.7847 97.5664 35.7798C97.5651 35.8149 97.5661 35.8556 97.5693 35.9019L97.4902 35.9165V36.1353H97.376V35.9385L97.2393 35.9663ZM97.9785 35.6108H97.9141V36.1313H97.791V35.6108H97.7207C97.7214 35.7603 97.7153 35.8687 97.7026 35.936C97.6899 36.0031 97.6644 36.0682 97.626 36.1313C97.5973 36.1066 97.5622 36.0806 97.5205 36.0532C97.5518 36.0034 97.5728 35.953 97.5835 35.9019C97.5942 35.8504 97.5996 35.7697 97.5996 35.6597V35.2358C97.7116 35.228 97.8236 35.2127 97.9355 35.1899L97.9756 35.311C97.8864 35.3254 97.8014 35.3368 97.7207 35.3452V35.4868H97.9785V35.6108ZM97.1016 35.4175C97.1504 35.4611 97.1934 35.5024 97.2305 35.5415L97.1279 35.6372C97.0856 35.5884 97.0465 35.5451 97.0107 35.5073L97.1016 35.4175ZM97.1094 35.6997C97.1517 35.7173 97.1914 35.7326 97.2285 35.7456L97.1553 36.1187C97.1143 36.1037 97.0716 36.0907 97.0273 36.0796C97.0469 36.0054 97.0742 35.8787 97.1094 35.6997ZM98.1094 35.1792C98.1621 35.217 98.2155 35.259 98.2695 35.3052L98.1816 35.4048C98.125 35.3488 98.0739 35.3026 98.0283 35.2661L98.1094 35.1792ZM98.2959 35.2085H98.918V35.6323H98.2959V35.2085ZM98.792 35.314H98.4219V35.3765H98.792V35.314ZM98.792 35.5269V35.4644H98.4219V35.5269H98.792ZM98.0986 35.439C98.1585 35.4819 98.2119 35.5239 98.2588 35.5649L98.167 35.6665C98.1234 35.6235 98.0723 35.5783 98.0137 35.5308L98.0986 35.439ZM98.875 35.854C98.9154 35.8729 98.9541 35.8888 98.9912 35.9019C98.9788 35.9946 98.96 36.0532 98.9346 36.0776C98.9095 36.1024 98.8727 36.1147 98.8242 36.1147H98.7334C98.641 36.1147 98.5947 36.064 98.5947 35.9624V35.6548H98.7217V35.7642C98.7796 35.7332 98.8379 35.7004 98.8965 35.6655L98.9766 35.7671C98.8958 35.8088 98.8109 35.8485 98.7217 35.8862V35.9507C98.7217 35.9884 98.7363 36.0073 98.7656 36.0073H98.7949C98.8128 36.0073 98.827 36.0044 98.8374 35.9985C98.8478 35.9927 98.8548 35.9826 98.8584 35.9683C98.8623 35.9536 98.8678 35.9155 98.875 35.854ZM98.5645 35.8452H98.4229V35.9536L98.5527 35.896C98.5547 35.9455 98.5586 35.9894 98.5645 36.0278C98.4538 36.0721 98.374 36.1076 98.3252 36.1343L98.2598 36.0356C98.2839 36.0116 98.2959 35.9829 98.2959 35.9497V35.6597H98.4229V35.7397H98.5645V35.8452ZM98.1123 35.7017C98.1585 35.7199 98.2021 35.7345 98.2432 35.7456L98.1582 36.1245C98.1126 36.1095 98.0677 36.0965 98.0234 36.0854C98.056 35.9748 98.0856 35.8468 98.1123 35.7017ZM99.8555 35.7769L99.9854 35.8188C99.9788 35.9009 99.9717 35.9609 99.9639 35.999C99.9561 36.0368 99.9385 36.0658 99.9111 36.0859C99.8841 36.1064 99.8473 36.1167 99.8008 36.1167H99.7217C99.6338 36.1167 99.5898 36.0669 99.5898 35.9673V35.1851H99.7266V35.9536C99.7266 35.9771 99.7396 35.9888 99.7656 35.9888H99.7949C99.8092 35.9888 99.8205 35.9827 99.8286 35.9707C99.8368 35.9583 99.842 35.9396 99.8442 35.9146L99.8555 35.7769ZM99.0127 35.4458H99.2148V35.3364L99.0449 35.3462C99.0417 35.313 99.0345 35.2729 99.0234 35.2261C99.1849 35.2235 99.3438 35.2127 99.5 35.1938L99.5361 35.3091C99.4801 35.3156 99.4163 35.3218 99.3447 35.3276V35.4458H99.5547V35.563H99.3447V35.6733H99.5098V36.1284H99.3848V36.0757H99.1748V36.1284H99.0498V35.6733H99.2148V35.563H99.0127V35.4458ZM99.3848 35.7886H99.1748V35.9604H99.3848V35.7886Z" fill="white"/>
<rect x="39" y="24" width="26" height="4" fill="#00CA10"/>
<rect x="43" y="19" width="18" height="4" fill="#00CA10"/>
<rect x="43" y="14" width="18" height="4" fill="#00CA10"/>
<path d="M85 15.3846L92.3846 8H109M85 15.3846H101.615M85 15.3846V23.6923M109 8L101.615 15.3846M109 8V16.3077M101.615 32L109 24.6154V16.3077M101.615 32H85V23.6923M101.615 32V23.6923M101.615 15.3846V23.6923M85 23.6923H101.615M101.615 23.6923L109 16.3077" stroke="#4875FF" stroke-width="2"/>
<path fill-rule="evenodd" clip-rule="evenodd" d="M-2 7C-2.55228 7 -3 7.44772 -3 8V32C-3 32.5523 -2.55228 33 -2 33H16C16.5523 33 17 32.5523 17 32V25.6598L13.8665 29.0023H7V22.6738L17 12.6738V8C17 7.44772 16.5523 7 16 7H-2ZM-1 10C-1 9.44772 -0.552285 9 0 9H14C14.5523 9 15 9.44772 15 10C15 10.5523 14.5523 11 14 11H0C-0.552285 11 -1 10.5523 -1 10ZM-1 14C-1 13.4477 -0.552285 13 0 13H10C10.5523 13 11 13.4477 11 14C11 14.5523 10.5523 15 10 15H0C-0.552285 15 -1 14.5523 -1 14ZM-1 18C-1 17.4477 -0.552285 17 0 17H10C10.5523 17 11 17.4477 11 18C11 18.5523 10.5523 19 10 19H0C-0.552285 19 -1 18.5523 -1 18Z" fill="#F27573"/>
<path d="M18 14.5022L21.5 18.0022L23 16.5022C23 16.5022 23.5 16.0022 23 15.5022L20.5 13.0022C20 12.5023 19.5 13.0022 19.5 13.0022L18 14.5022Z" fill="#F27573"/>
<path d="M20.5 19.0022L17 15.5022L9 23.5022V27.0022H13L20.5 19.0022Z" fill="#F27573"/>
<path d="M22.5566 10.1201H26.2871V8.6748H27.6543V10.1201H31.4434V11.3896H28.0596C29.1175 13.04 30.3919 14.3031 31.8828 15.1787C31.6029 15.4717 31.2546 15.8883 30.8379 16.4287C29.5391 15.3415 28.4779 14.1045 27.6543 12.7178V15.3643H29.6172V16.5947H27.6543V18.2939H26.2871V16.5947H24.3145V15.4131C23.9368 15.8102 23.5365 16.1878 23.1133 16.5459C22.7552 16.0771 22.4232 15.6735 22.1172 15.335C23.6569 14.29 24.9232 12.9749 25.916 11.3896H22.5566V10.1201ZM24.3584 15.3643H26.2871V12.8105C25.7305 13.735 25.0876 14.5863 24.3584 15.3643ZM41.2871 13.8994H38.6406V15.1006H41.5117V16.3311H38.6406V18.3037H37.2637V11.4678H36.9756C36.5752 12.363 36.1211 13.1442 35.6133 13.8115C35.4245 13.4535 35.1738 13.0303 34.8613 12.542C35.6035 11.4287 36.1829 10.1396 36.5996 8.6748L37.8691 8.97754C37.7454 9.40723 37.6152 9.81738 37.4785 10.208H41.8438V11.4678H38.6406V12.6689H41.2871V13.8994ZM34.0605 8.7334L35.3691 9.11426C35.1608 9.76855 34.9264 10.4033 34.666 11.0186V18.2939H33.3379V13.6211C33.071 14.0573 32.7878 14.4821 32.4883 14.8955C32.4167 14.3942 32.306 13.7887 32.1562 13.0791C32.944 11.8356 33.5788 10.387 34.0605 8.7334ZM43.5039 9.06543H50.5352V12.7959H43.5039V9.06543ZM49.0898 10.2959H44.9492V11.5654H49.0898V10.2959ZM45.3008 17.6787H43.9336V18.1377H42.5859V13.5576H46.6484V18.1377H45.3008V17.6787ZM43.9336 16.4873H45.3008V14.749H43.9336V16.4873ZM48.7188 17.6787V18.1377H47.3711V13.5576H51.4434V18.1377H50.0957V17.6787H48.7188ZM50.0957 16.4873V14.749H48.7188V16.4873H50.0957ZM60.3789 14.3779C60.9518 14.6253 61.4499 14.8141 61.873 14.9443C61.7201 15.7288 61.5915 16.3262 61.4873 16.7363C61.3864 17.1465 61.1602 17.4508 60.8086 17.6494C60.4603 17.8512 59.9883 17.9521 59.3926 17.9521H55.1543C53.7611 17.9521 53.0645 17.223 53.0645 15.7646V11.585H54.5098V12.5322H59.2363V10.4717H52.8008V9.13379H60.6914V13.8701H54.5098V15.6279C54.5098 16.2855 54.819 16.6143 55.4375 16.6143H59.0801C59.3828 16.6143 59.627 16.5671 59.8125 16.4727C60.0013 16.3783 60.1185 16.2106 60.1641 15.9697C60.2096 15.7256 60.2812 15.195 60.3789 14.3779ZM65.3398 15.4424L66.1602 14.7979H65.2422V11.5068H67.625V10.7549H64.959V9.63184H67.625V8.71387H68.9238V9.63184H71.707V10.7549H68.9238V11.5068H71.3262V15.1982H70.0762V14.7979H68.9043C68.8652 15.4554 68.7611 15.9795 68.5918 16.3701C69.4967 16.6761 70.584 16.8454 71.8535 16.8779C71.5475 17.4899 71.3164 17.9587 71.1602 18.2842C69.8516 18.1475 68.7122 17.8415 67.7422 17.3662C67.2214 17.7178 66.4238 18.0563 65.3496 18.3818C65.1738 18.0889 64.9297 17.7113 64.6172 17.249C65.4701 17.0602 66.1178 16.8584 66.5605 16.6436C66.1048 16.2985 65.6979 15.8981 65.3398 15.4424ZM63.7969 8.7334L65.0957 9.05566C64.9069 9.77181 64.6823 10.4749 64.4219 11.165V18.3623H63.2012V13.8408C62.9733 14.264 62.7324 14.6774 62.4785 15.0811C62.4069 14.4821 62.2995 13.8636 62.1562 13.2256C62.8919 11.8519 63.4388 10.3545 63.7969 8.7334ZM70.0762 13.7139V12.5908H68.9238V13.7139H70.0762ZM66.4922 13.7139H67.625V12.5908H66.4922V13.7139ZM67.4102 15.833C67.5143 15.5661 67.5827 15.221 67.6152 14.7979H66.2383C66.5443 15.2015 66.9349 15.5465 67.4102 15.833ZM81.2578 16.79C81.2578 17.2035 81.1634 17.5225 80.9746 17.7471C80.7858 17.9749 80.4961 18.1084 80.1055 18.1475C79.7181 18.1898 79.207 18.2061 78.5723 18.1963C78.4616 17.695 78.3314 17.223 78.1816 16.7803C78.8522 16.8193 79.2168 16.8389 79.2754 16.8389C79.6855 16.8389 79.8906 16.6403 79.8906 16.2432V15.3545H77.8594V18.0889H76.4824V15.3545H74.3682C74.2673 16.79 73.9922 17.7926 73.543 18.3623C73.1263 18.0628 72.7064 17.7894 72.2832 17.542C72.8105 16.8258 73.0645 15.5531 73.0449 13.7236V9.12402H81.2578V16.79ZM74.4121 11.624H76.4824V10.4131H74.4121V11.624ZM79.8906 10.4131H77.8594V11.624H79.8906V10.4131ZM74.4121 14.0947H76.4824V12.8838H74.4121V14.0947ZM77.8594 14.0947H79.8906V12.8838H77.8594V14.0947ZM22.8984 22.4951H31.082V23.9404H22.8984V22.4951ZM23.3379 25.7959H30.6426V27.2021H23.3379V25.7959ZM22.293 29.2725H31.7266V30.7178H22.293V29.2725ZM35.8281 28.1592L36.9219 28.8916C36.6549 29.2399 36.3652 29.5882 36.0527 29.9365C36.3945 29.9691 36.7103 29.9854 37 29.9854C37.3385 29.9854 37.5078 29.8421 37.5078 29.5557V28.042H35.0469V23.9502H36.6973C36.8014 23.7061 36.8942 23.4587 36.9756 23.208H34.4316V26.1084C34.4316 28.4782 34.0247 30.2295 33.2109 31.3623C32.8594 31.0042 32.4915 30.6917 32.1074 30.4248C32.7585 29.5589 33.084 28.0615 33.084 25.9326V22.0654H41.7656V23.208H38.416C38.3086 23.4684 38.1947 23.7158 38.0742 23.9502H41.1992V28.042H38.875V29.9463C38.875 30.3402 38.779 30.6429 38.5869 30.8545C38.3981 31.0661 38.0954 31.18 37.6787 31.1963C37.2653 31.2158 36.7884 31.2223 36.248 31.2158C36.1927 30.7796 36.1081 30.3743 35.9941 30C35.6914 30.332 35.3691 30.6657 35.0273 31.001L34.041 30.1318C34.7376 29.4873 35.3333 28.8298 35.8281 28.1592ZM39.9102 24.9463H36.3359V25.542H39.9102V24.9463ZM39.9102 27.0459V26.4404H36.3359V27.0459H39.9102ZM40.0957 28.1201C40.6816 28.7321 41.2773 29.4059 41.8828 30.1416L40.7695 30.9521C40.2422 30.249 39.679 29.5361 39.0801 28.8135L40.0957 28.1201ZM49.6855 22.417V23.4912L48.8408 24.4287H50.8574V28.0615H44.5293V28.9209C44.5293 29.5394 44.8483 29.8486 45.4863 29.8486H49.4316C49.6986 29.8486 49.9102 29.8063 50.0664 29.7217C50.2227 29.6338 50.3252 29.5117 50.374 29.3555C50.4261 29.196 50.5026 28.7874 50.6035 28.1299C51.1764 28.3512 51.5866 28.501 51.834 28.5791C51.694 29.2529 51.5703 29.7526 51.4629 30.0781C51.3555 30.4069 51.1292 30.6576 50.7842 30.8301C50.4424 31.0026 49.9818 31.0889 49.4023 31.0889H45.0664C43.7839 31.0889 43.1426 30.4899 43.1426 29.292V25.5713C43.0221 25.6657 42.8984 25.7568 42.7715 25.8447C42.5762 25.4346 42.3516 25.0212 42.0977 24.6045C43.3542 23.7712 44.3177 22.7881 44.9883 21.6553L46.502 21.7627C46.3815 21.984 46.2529 22.2021 46.1162 22.417H49.6855ZM44.4707 24.4287H47.2197L48.0254 23.5205H45.3105C45.0501 23.833 44.7702 24.1357 44.4707 24.4287ZM44.5293 26.9482H46.3359V25.542H44.5293V26.9482ZM49.4902 26.9482V25.542H47.6836V26.9482H49.4902ZM53.7676 31.2939V28.042C53.4355 28.1527 53.0938 28.2601 52.7422 28.3643C52.599 28.0452 52.4004 27.6514 52.1465 27.1826C53.4779 26.8799 54.679 26.4925 55.75 26.0205C55.278 25.6624 54.8809 25.3792 54.5586 25.1709L55.5156 24.292C56.056 24.6436 56.5817 24.9935 57.0928 25.3418C57.8545 24.9056 58.5332 24.4124 59.1289 23.8623H55.1787C54.5895 24.5068 53.8978 25.0993 53.1035 25.6396C52.8822 25.3792 52.5892 25.0537 52.2246 24.6631C53.4746 23.8102 54.4479 22.8044 55.1445 21.6455L56.668 21.7529C56.5085 22.0622 56.3311 22.3617 56.1357 22.6514H60.9551V23.833C60.0208 24.9463 58.6699 25.9326 56.9023 26.792H61.0332V31.2646H59.627V30.8252H55.1738V31.2939H53.7676ZM59.627 28.0127H55.1738V29.6045H59.627V28.0127ZM62.9473 23.1201H64.7344C64.5098 22.7979 64.2786 22.4854 64.041 22.1826L65.2129 21.6553L66.2285 22.8467L65.6133 23.1201H67.5762C67.9668 22.6188 68.3184 22.124 68.6309 21.6357L70.1055 22.1631C69.8776 22.4072 69.5863 22.7262 69.2314 23.1201H71.0723V27.9736H67.6934V28.6475H71.8242V29.8486H67.6934V31.3037H66.3262V29.8486H62.1758V28.6475H66.3262V27.9736H62.9473V23.1201ZM69.7832 24.2529H67.6934V25.0439H69.7832V24.2529ZM64.2363 25.0439H66.3262V24.2529H64.2363V25.0439ZM69.7832 26.8408V26.0498H67.6934V26.8408H69.7832ZM64.2363 26.8408H66.3262V26.0498H64.2363V26.8408ZM76.4922 21.8701L78.0938 21.6943C78.1849 21.9222 78.2939 22.2119 78.4209 22.5635H81.7363V23.6963H74.2363V26.0498C74.2363 28.4326 73.8457 30.2002 73.0645 31.3525C72.7389 30.9229 72.4102 30.5322 72.0781 30.1807C72.6445 29.2497 72.9212 27.8695 72.9082 26.04V22.5635H76.8145L76.4922 21.8701ZM74.1582 28.6865H77.5762V28.0029H74.7539V26.8896C74.9948 26.499 75.2324 26.0921 75.4668 25.6689H74.4707V24.5361H76.0674C76.2041 24.2692 76.3392 23.9958 76.4727 23.7158L77.8301 23.9209L77.5078 24.5361H81.4922V25.6689H76.8975L76.209 26.8896H77.5762V25.9717H78.8848V26.8896H81.3359V28.0029H78.8848V28.6865H81.7949V29.8193H78.8848V31.2451H77.5762V29.8193H74.1582V28.6865Z" fill="white"/>
</g>
<defs>
<linearGradient id="paint0_linear" x1="0" y1="40" x2="105" y2="40" gradientUnits="userSpaceOnUse">
<stop stop-color="#EF5350"/>
<stop offset="0.505208" stop-color="#00B30E"/>
<stop offset="1" stop-color="#003FFF"/>
</linearGradient>
<clipPath id="clip0">
<rect width="105" height="40" rx="5" fill="white"/>
</clipPath>
</defs>
</svg>
