<svg width="105" height="40" viewBox="0 0 105 40" fill="none" xmlns="http://www.w3.org/2000/svg">
<rect width="105" height="40" rx="5" fill="url(#paint0_linear)"/>
<path d="M37.5566 10.1201H41.2871V8.6748H42.6543V10.1201H46.4434V11.3896H43.0596C44.1175 13.04 45.3919 14.3031 46.8828 15.1787C46.6029 15.4717 46.2546 15.8883 45.8379 16.4287C44.5391 15.3415 43.4779 14.1045 42.6543 12.7178V15.3643H44.6172V16.5947H42.6543V18.2939H41.2871V16.5947H39.3145V15.4131C38.9368 15.8102 38.5365 16.1878 38.1133 16.5459C37.7552 16.0771 37.4232 15.6735 37.1172 15.335C38.6569 14.29 39.9232 12.9749 40.916 11.3896H37.5566V10.1201ZM39.3584 15.3643H41.2871V12.8105C40.7305 13.735 40.0876 14.5863 39.3584 15.3643ZM49.6172 8.75293H50.7793V11.6924H51.2871V12.7861H48.9336V13.6943H50.7793V18.167H49.6172V14.7881H48.9385C48.9385 16.2074 48.6895 17.3955 48.1914 18.3525C47.8724 18.0856 47.5273 17.8154 47.1562 17.542C47.612 16.7477 47.8236 15.4326 47.791 13.5967V8.96777H48.9336V11.6924H49.6172V8.75293ZM56.4043 8.81152L56.7559 10.0908C55.7598 10.2796 54.4382 10.4489 52.791 10.5986V11.5361H56.4336V12.6787C56.2383 13.8799 55.8379 14.9557 55.2324 15.9062C55.6979 16.401 56.2448 16.7803 56.873 17.0439L56.0723 18.2939C55.4668 17.9163 54.9346 17.459 54.4756 16.9219C54.0329 17.4199 53.5234 17.8773 52.9473 18.2939C52.8171 18.0661 52.5827 17.7048 52.2441 17.21C52.8236 16.8356 53.32 16.3929 53.7334 15.8818C53.3493 15.2243 53.0449 14.4788 52.8203 13.6455L53.6895 12.8545C53.875 13.5934 54.124 14.2428 54.4365 14.8027C54.749 14.2038 54.9785 13.5348 55.125 12.7959H52.791V13.3232C52.791 15.6214 52.3971 17.2816 51.6094 18.3037C51.362 17.9261 51.0918 17.5452 50.7988 17.1611C51.3587 16.3408 51.6159 14.9769 51.5703 13.0693V9.3877C53.6927 9.27702 55.304 9.08496 56.4043 8.81152ZM64.2656 8.63574C64.6562 9.18913 64.9655 9.65462 65.1934 10.0322L64.3584 10.4717H66.6484V11.5264H64.9688V12.542H66.5703V13.5479H64.9688V14.5635H66.5703V15.5693H64.9688V16.585H66.7656V17.6201H62.2539V18.3037H60.9648V13.5039C60.8216 13.7155 60.6751 13.9189 60.5254 14.1143C60.3561 13.5739 60.1803 13.141 59.998 12.8154C60.7988 11.585 61.3945 10.2048 61.7852 8.6748L63.0352 9.00684C62.8822 9.51465 62.7145 10.0029 62.5322 10.4717H64.0312C63.8294 10.068 63.5853 9.63509 63.2988 9.17285L64.2656 8.63574ZM62.2539 12.542H63.6797V11.5264H62.2539V12.542ZM62.2539 14.5635H63.6797V13.5479H62.2539V14.5635ZM62.2539 16.585H63.6797V15.5693H62.2539V16.585ZM58.4258 11.6631C58.5723 11.6631 58.7594 11.6582 58.9873 11.6484C59.1826 11.2546 59.3893 10.82 59.6074 10.3447L60.7012 10.7549C60.0306 12.1546 59.4382 13.2907 58.9238 14.1631C59.2884 14.1305 59.7604 14.0752 60.3398 13.9971C60.2812 14.3096 60.2422 14.7002 60.2227 15.1689C59.1094 15.2601 58.2663 15.3675 57.6934 15.4912L57.3613 14.3877C57.6413 14.0817 57.9945 13.5332 58.4209 12.7422L57.4688 12.8252L57.1367 11.751C57.4622 11.3734 57.9473 10.335 58.5918 8.63574L59.793 8.99707C59.3047 10.0192 58.849 10.9079 58.4258 11.6631ZM57.1465 16.3799C58.097 16.2562 59.2428 16.0771 60.584 15.8428C60.5514 16.3896 60.5384 16.8421 60.5449 17.2002C59.5293 17.3564 58.4616 17.5387 57.3418 17.7471L57.1465 16.3799ZM68.9531 8.71387L70.4082 8.93848L69.9688 10.2666H71.6289V12.1709C72.153 11.292 72.6543 10.1331 73.1328 8.69434L74.4805 9.0459C74.3372 9.47884 74.1842 9.90202 74.0215 10.3154H76.541L76.4287 15.9355C76.4124 16.541 76.362 16.9642 76.2773 17.2051C76.1927 17.4492 76.0609 17.6478 75.8818 17.8008C75.7028 17.9538 75.4521 18.0579 75.1299 18.1133C74.8109 18.1686 74.1126 18.1963 73.0352 18.1963C72.9375 17.6234 72.8138 17.1318 72.6641 16.7217C73.1458 16.7607 73.6585 16.7803 74.2021 16.7803C74.3584 16.7803 74.4935 16.7624 74.6074 16.7266C74.7214 16.6908 74.8141 16.637 74.8857 16.5654C74.9606 16.4906 75.0111 16.4076 75.0371 16.3164C75.0632 16.2253 75.0843 15.8249 75.1006 15.1152L75.1445 13.1182C75.1576 12.4964 75.1641 11.9919 75.1641 11.6045H73.4648C73.25 12.0602 73.0221 12.5029 72.7812 12.9326C72.472 12.7308 72.0879 12.5306 71.6289 12.332V18.1475H70.2715V17.4443H68.8848V18.2061H67.5273V10.2666H68.5576C68.7464 9.62858 68.8783 9.111 68.9531 8.71387ZM70.2715 11.5459H68.8848V13.2158H70.2715V11.5459ZM68.8848 16.165H70.2715V14.4951H68.8848V16.165ZM73.1621 12.7764C73.6309 13.3363 74.1354 14.0166 74.6758 14.8174L73.4453 15.6377C72.9505 14.8239 72.4785 14.1305 72.0293 13.5576L73.1621 12.7764ZM78.3477 8.82129C78.7643 9.47233 79.1191 10.0485 79.4121 10.5498L78.3281 11.126C78.0286 10.5335 77.6999 9.93457 77.3418 9.3291L78.3477 8.82129ZM82.3906 11.4482H83.5625V14.9834H84.2363V10.3838L82.4492 10.501C82.3776 10.0583 82.2995 9.65462 82.2148 9.29004C83.6927 9.25098 85.1413 9.15007 86.5605 8.9873L86.7754 10.1494C86.3392 10.1982 85.89 10.2438 85.4277 10.2861V11.9561H86.6289V13.0596H85.4277V14.9834H86.707V16.1357H82.3906V11.4482ZM81.9707 12.2588V13.3428C81.9707 13.5934 81.9349 13.9954 81.8633 14.5488C81.7917 15.1022 81.6745 15.6084 81.5117 16.0674C82.1237 16.6403 83.11 16.9268 84.4707 16.9268C85.278 16.9268 86.082 16.9072 86.8828 16.8682C86.7266 17.3044 86.6094 17.708 86.5312 18.0791C86.3522 18.0889 85.7077 18.084 84.5977 18.0645C83.4909 18.0482 82.682 17.9473 82.1709 17.7617C81.6598 17.5794 81.2708 17.3613 81.0039 17.1074C80.724 17.5664 80.3822 17.9912 79.9785 18.3818C79.6465 18.1019 79.2982 17.835 78.9336 17.5811C79.474 17.1644 79.8988 16.6859 80.208 16.1455C79.8988 15.654 79.6335 15.0615 79.4121 14.3682L80.3008 13.8994C80.4147 14.2673 80.5433 14.5977 80.6865 14.8906C80.7874 14.4284 80.8411 13.8994 80.8477 13.3037H79.627V12.2588L80.7207 10.2471H79.4902V9.19238H81.9707V10.2568L80.9062 12.2588H81.9707ZM79.5781 14.9736C79.5846 15.4749 79.6237 15.9502 79.6953 16.3994C79.1159 16.9593 78.6211 17.4867 78.2109 17.9814L77.5273 17.0244C77.7096 16.8161 77.8008 16.5426 77.8008 16.2041V12.8154H77.1562V11.585H79.0117V15.6182C79.2005 15.4098 79.3893 15.195 79.5781 14.9736ZM87.5469 16.5459H91.6582V14.8857H88.7676V13.5674H91.6582V11.9463H89.2949C88.8685 12.7861 88.39 13.5706 87.8594 14.2998C87.6576 13.7594 87.4362 13.1995 87.1953 12.6201C87.8659 11.7282 88.4355 10.54 88.9043 9.05566L90.3594 9.41699C90.2161 9.8304 90.0632 10.234 89.9004 10.6279H91.6582V8.69434H93.123V10.6279H96.3652V11.9463H93.123V13.5674H95.9844V14.8857H93.123V16.5459H96.7168V17.9033H87.5469V16.5459ZM40.0566 23.4229L42.083 24.1553C42.6396 23.9339 43.1605 23.6865 43.6455 23.4131H37.1465V22.4365H41.3262C41.2383 22.2087 41.1471 21.984 41.0527 21.7627L42.6055 21.6553C42.6803 21.8538 42.7715 22.1143 42.8789 22.4365H46.8535V23.4131H43.7236L44.2754 24.0674C43.9173 24.2432 43.5544 24.4108 43.1865 24.5703L44.4609 25.0537L44.1289 25.8154H44.7539V23.7842H46.0039V26.7725H42.5273L42.1758 27.3193H46.3555V29.9658C46.3555 30.3695 46.2871 30.6657 46.1504 30.8545C46.0169 31.0465 45.8118 31.1621 45.5352 31.2012C45.2617 31.2402 44.6204 31.2549 43.6113 31.2451C43.5332 30.8545 43.4486 30.516 43.3574 30.2295L43.8799 30.249L43.6016 29.8779C41.7233 29.943 40.4538 30.0374 39.793 30.1611L39.3438 29.1943C39.6009 29.1195 39.9248 28.8135 40.3154 28.2764H39.0508V31.3037H37.7422V27.3193H40.9307C41.0316 27.1501 41.1374 26.9678 41.248 26.7725H38.0352V23.7842H39.2852V25.8154H43.9385L42.0586 25.0244C41.3327 25.3044 40.5905 25.555 39.832 25.7764C39.6953 25.4248 39.5716 25.1481 39.4609 24.9463C39.9622 24.8356 40.444 24.7087 40.9062 24.5654C40.4277 24.3799 40.0046 24.2236 39.6367 24.0967L40.0566 23.4229ZM44.8613 29.751L44.1631 30.2539C44.5928 30.2734 44.8467 30.2441 44.9248 30.166C45.0062 30.0879 45.0469 29.9854 45.0469 29.8584V28.2764H43.5625C44.0215 28.7744 44.4544 29.266 44.8613 29.751ZM42.498 28.5205L42.8691 28.2764H41.5361C41.3538 28.5465 41.1667 28.8167 40.9746 29.0869C41.5182 29.0674 42.1595 29.0365 42.8984 28.9941L42.498 28.5205ZM47.5469 22.2998H56.5117V23.6279H53.04C52.8252 24.1715 52.5697 24.6956 52.2734 25.2002H52.7422V26.3428L53.7188 25.4248C54.5977 26.2061 55.6589 27.1696 56.9023 28.3154L55.7598 29.4385C54.9297 28.4749 53.9238 27.4561 52.7422 26.3818V31.333H51.2676V26.6553C50.4277 27.7002 49.3828 28.6572 48.1328 29.5264C47.9245 29.2269 47.5924 28.7972 47.1367 28.2373C49.2005 26.8929 50.6198 25.3564 51.3945 23.6279H47.5469V22.2998ZM57.1855 25.9033H59.4512V23.5107H57.7227V22.2412H66.4434V23.5107H64.8711V25.9033H66.8535V27.1729H64.8711V31.1768H63.4551V27.1729H60.8379C60.7728 28.3577 60.5498 29.248 60.1689 29.8438C59.7913 30.4362 59.2135 30.9456 58.4355 31.3721C58.071 31.0531 57.6608 30.721 57.2051 30.376C57.8073 30.0537 58.307 29.668 58.7041 29.2188C59.1045 28.7695 59.3356 28.0876 59.3975 27.1729H57.1855V25.9033ZM60.8672 25.9033H63.4551V23.5107H60.8672V25.9033ZM67.332 24.1748H71.1895C71.235 23.4652 71.2546 22.6449 71.248 21.7139H72.7324C72.7129 22.6807 72.6868 23.501 72.6543 24.1748H76.6875V25.5225H72.7666C73.3265 27.6969 74.679 29.1585 76.8242 29.9072C76.362 30.4346 75.9909 30.8838 75.7109 31.2549C73.9368 30.4215 72.7015 29.0788 72.0049 27.2266C71.4645 28.9225 70.2161 30.2881 68.2598 31.3232C67.9993 30.9912 67.6315 30.5745 67.1562 30.0732C69.526 28.999 70.8232 27.4821 71.0479 25.5225H67.332V24.1748ZM80.9648 21.8506L82.6445 21.6357C82.7292 21.8962 82.8203 22.1924 82.918 22.5244H86.5703V24.9854H85.2227V23.6475H78.8066V24.9854H77.459V22.5244H81.248C81.1504 22.2542 81.056 22.0296 80.9648 21.8506ZM85.5059 25.3076L86.2676 26.4014L84.7246 27.1143C85.1706 28.2406 85.8867 29.0902 86.873 29.6631C86.4694 30.0407 86.1048 30.3955 85.7793 30.7275C84.9492 30.083 84.2575 29.0365 83.7041 27.5879L83.2793 27.7783C83.4486 28.2731 83.5332 28.7695 83.5332 29.2676C83.5332 29.6875 83.4909 30.0277 83.4062 30.2881C83.3216 30.5485 83.18 30.7617 82.9814 30.9277C82.7829 31.0938 82.5566 31.1979 82.3027 31.2402C82.0521 31.2826 81.4368 31.3037 80.457 31.3037C80.3594 30.8577 80.2568 30.4541 80.1494 30.0928C79.4756 30.4378 78.7318 30.7471 77.918 31.0205C77.6966 30.6299 77.4427 30.2425 77.1562 29.8584C79.0736 29.3896 80.6361 28.6849 81.8438 27.7441C81.7917 27.6172 81.7314 27.4902 81.6631 27.3633C80.5986 28.1087 79.3861 28.6702 78.0254 29.0479L77.3711 28.0322C78.9108 27.7067 80.1885 27.238 81.2041 26.626C81.1292 26.5218 81.0495 26.4176 80.9648 26.3135C80.0957 26.7236 79.1289 27.0622 78.0645 27.3291C77.8561 26.9775 77.6413 26.6455 77.4199 26.333C78.7448 26.0986 79.8662 25.7568 80.7842 25.3076H79.168V24.2334H84.8418V25.3076H82.7129C82.5078 25.4508 82.2962 25.5892 82.0781 25.7227C82.3581 26.0579 82.5973 26.3949 82.7959 26.7334C83.8864 26.2158 84.7897 25.7406 85.5059 25.3076ZM80.291 30.0195C80.6979 30.0618 81.0316 30.083 81.292 30.083C81.8812 30.083 82.1758 29.79 82.1758 29.2041C82.1758 29.0869 82.1644 28.9583 82.1416 28.8184C81.598 29.2578 80.9811 29.6582 80.291 30.0195Z" fill="white"/>
<path d="M80.4629 35.8096C80.5238 35.86 80.5929 35.8853 80.6704 35.8853C80.7144 35.8853 80.7474 35.8778 80.7695 35.8628C80.7917 35.8475 80.8027 35.828 80.8027 35.8042C80.8027 35.7837 80.7939 35.7643 80.7764 35.7461C80.7588 35.7279 80.7124 35.7031 80.6372 35.6719C80.519 35.6217 80.46 35.5488 80.46 35.4531C80.46 35.3828 80.4867 35.3283 80.54 35.2896C80.5938 35.2505 80.6647 35.231 80.7529 35.231C80.8268 35.231 80.8888 35.2406 80.939 35.2598V35.4111C80.8882 35.3766 80.8288 35.3594 80.7607 35.3594C80.721 35.3594 80.6893 35.3667 80.6655 35.3813C80.6418 35.3957 80.6299 35.415 80.6299 35.4395C80.6299 35.459 80.638 35.4771 80.6543 35.4937C80.6706 35.5099 80.7108 35.5321 80.7749 35.5601C80.8501 35.5923 80.9017 35.6263 80.9297 35.6621C80.958 35.6979 80.9722 35.7406 80.9722 35.79C80.9722 35.8626 80.9465 35.918 80.895 35.9561C80.8436 35.9941 80.7705 36.0132 80.6758 36.0132C80.5892 36.0132 80.5182 35.9992 80.4629 35.9712V35.8096ZM81.4883 35.98C81.4505 36.0021 81.3968 36.0132 81.3271 36.0132C81.2448 36.0132 81.1782 35.9881 81.1274 35.938C81.0767 35.8879 81.0513 35.8229 81.0513 35.7432C81.0513 35.6514 81.0786 35.5791 81.1333 35.5264C81.188 35.4733 81.2609 35.4468 81.3521 35.4468C81.4136 35.4468 81.4591 35.4552 81.4888 35.4722V35.6074C81.4526 35.5811 81.4132 35.5679 81.3706 35.5679C81.3224 35.5679 81.2837 35.5825 81.2544 35.6118C81.2254 35.6411 81.2109 35.6813 81.2109 35.7324C81.2109 35.7819 81.2248 35.821 81.2524 35.8496C81.2801 35.8779 81.3177 35.8921 81.3652 35.8921C81.4072 35.8921 81.4482 35.8787 81.4883 35.8521V35.98ZM81.9443 35.603C81.9251 35.592 81.9019 35.5864 81.8745 35.5864C81.8387 35.5864 81.8102 35.6001 81.7891 35.6274C81.7682 35.6548 81.7578 35.6924 81.7578 35.7402V36H81.6001V35.46H81.7578V35.5615H81.7598C81.7858 35.4876 81.8332 35.4507 81.9019 35.4507C81.9204 35.4507 81.9346 35.4528 81.9443 35.457V35.603ZM82.0371 35.4927C82.0615 35.479 82.0941 35.4679 82.1348 35.4595C82.1758 35.451 82.2108 35.4468 82.2397 35.4468C82.3908 35.4468 82.4663 35.5225 82.4663 35.6738V36H82.3164V35.9214H82.3145C82.2777 35.9826 82.2238 36.0132 82.1528 36.0132C82.1017 36.0132 82.0607 35.9987 82.0298 35.9697C81.9992 35.9404 81.9839 35.9007 81.9839 35.8506C81.9839 35.7471 82.0456 35.6868 82.1689 35.6699L82.3174 35.6499C82.3174 35.5871 82.2847 35.5557 82.2192 35.5557C82.1548 35.5557 82.0941 35.5752 82.0371 35.6143V35.4927ZM82.2153 35.7554C82.1584 35.7629 82.1299 35.7886 82.1299 35.8325C82.1299 35.8527 82.1367 35.869 82.1504 35.8813C82.1644 35.8937 82.1831 35.8999 82.2065 35.8999C82.2388 35.8999 82.2653 35.8885 82.2861 35.8657C82.307 35.8429 82.3174 35.8146 82.3174 35.7808V35.7422L82.2153 35.7554ZM82.9199 35.9937C82.8962 36.0067 82.8602 36.0132 82.812 36.0132C82.6974 36.0132 82.6401 35.953 82.6401 35.8325V35.5776H82.5513V35.46H82.6401V35.3413L82.7969 35.2964V35.46H82.9199V35.5776H82.7969V35.8052C82.7969 35.8628 82.8197 35.8916 82.8652 35.8916C82.8828 35.8916 82.901 35.8864 82.9199 35.876V35.9937ZM83.4209 35.98C83.3831 36.0021 83.3294 36.0132 83.2598 36.0132C83.1774 36.0132 83.1108 35.9881 83.0601 35.938C83.0093 35.8879 82.9839 35.8229 82.9839 35.7432C82.9839 35.6514 83.0112 35.5791 83.0659 35.5264C83.1206 35.4733 83.1935 35.4468 83.2847 35.4468C83.3462 35.4468 83.3918 35.4552 83.4214 35.4722V35.6074C83.3853 35.5811 83.3459 35.5679 83.3032 35.5679C83.255 35.5679 83.2163 35.5825 83.187 35.6118C83.158 35.6411 83.1436 35.6813 83.1436 35.7324C83.1436 35.7819 83.1574 35.821 83.1851 35.8496C83.2127 35.8779 83.2503 35.8921 83.2979 35.8921C83.3398 35.8921 83.3809 35.8787 83.4209 35.8521V35.98ZM84.043 36H83.8857V35.6924C83.8857 35.6094 83.8555 35.5679 83.7949 35.5679C83.7646 35.5679 83.7396 35.5794 83.7197 35.6025C83.7002 35.6257 83.6904 35.6556 83.6904 35.6924V36H83.5327V35.2007H83.6904V35.541H83.6924C83.7337 35.4782 83.7894 35.4468 83.8594 35.4468C83.9818 35.4468 84.043 35.5207 84.043 35.6685V36ZM84.666 35.1753H84.7822V35.4692H84.833V35.5786H84.5977V35.6694H84.7822V36.1167H84.666V35.7788H84.5981C84.5981 35.9207 84.5732 36.0396 84.5234 36.1353C84.4915 36.1086 84.457 36.0815 84.4199 36.0542C84.4655 35.9748 84.4867 35.8433 84.4834 35.6597V35.1968H84.5977V35.4692H84.666V35.1753ZM85.3447 35.1812L85.3799 35.3091C85.2803 35.328 85.1481 35.3449 84.9834 35.3599V35.4536H85.3477V35.5679C85.3281 35.688 85.2881 35.7956 85.2275 35.8906C85.2741 35.9401 85.3288 35.978 85.3916 36.0044L85.3115 36.1294C85.251 36.0916 85.1978 36.0459 85.1519 35.9922C85.1076 36.042 85.0566 36.0877 84.999 36.1294C84.986 36.1066 84.9626 36.0705 84.9287 36.021C84.9867 35.9836 85.0363 35.9393 85.0776 35.8882C85.0392 35.8224 85.0088 35.7479 84.9863 35.6646L85.0732 35.5854C85.0918 35.6593 85.1167 35.7243 85.1479 35.7803C85.1792 35.7204 85.2021 35.6535 85.2168 35.5796H84.9834V35.6323C84.9834 35.8621 84.944 36.0282 84.8652 36.1304C84.8405 36.0926 84.8135 36.0545 84.7842 36.0161C84.8402 35.9341 84.8659 35.7977 84.8613 35.6069V35.2388C85.0736 35.2277 85.2347 35.2085 85.3447 35.1812ZM85.417 35.7505C85.4635 35.6789 85.5018 35.5864 85.5317 35.4731H85.4258V35.3433H85.5371V35.1685H85.6641V35.3433H85.7666V35.4731H85.6641V35.5913L85.6943 35.564C85.7386 35.605 85.7842 35.6493 85.8311 35.6968L85.7393 35.7798C85.7145 35.7482 85.6895 35.7183 85.6641 35.6899V36.1294H85.5371V35.7773C85.5146 35.8317 85.4896 35.8804 85.4619 35.9233C85.4476 35.8647 85.4326 35.8071 85.417 35.7505ZM85.9268 35.3501C85.9528 35.4875 85.9995 35.6064 86.0669 35.707C86.1369 35.6029 86.1823 35.4803 86.2031 35.3394H85.7734V35.2144H86.3408V35.3374C86.3128 35.5229 86.251 35.6826 86.1553 35.8164C86.221 35.8848 86.2998 35.9416 86.3916 35.9868C86.361 36.0317 86.3324 36.078 86.3057 36.1255C86.2129 36.0708 86.1318 36.0049 86.0625 35.9277C85.984 36.0088 85.89 36.078 85.7803 36.1353C85.7549 36.0871 85.7282 36.0441 85.7002 36.0063C85.8099 35.9565 85.902 35.8936 85.9766 35.8174C85.8978 35.6999 85.8402 35.562 85.8037 35.4038L85.9268 35.3501ZM87.1309 35.1636C87.1699 35.2189 87.2008 35.2655 87.2236 35.3032L87.1401 35.3472H87.3691V35.4526H87.2012V35.5542H87.3613V35.6548H87.2012V35.7563H87.3613V35.8569H87.2012V35.9585H87.3809V36.062H86.9297V36.1304H86.8008V35.6504C86.7865 35.6715 86.7718 35.6919 86.7568 35.7114C86.7399 35.6574 86.7223 35.6141 86.7041 35.5815C86.7842 35.4585 86.8438 35.3205 86.8828 35.1675L87.0078 35.2007C86.9925 35.2515 86.9757 35.3003 86.9575 35.3472H87.1074C87.0872 35.3068 87.0628 35.2635 87.0342 35.2173L87.1309 35.1636ZM86.9297 35.5542H87.0723V35.4526H86.9297V35.5542ZM86.9297 35.7563H87.0723V35.6548H86.9297V35.7563ZM86.9297 35.9585H87.0723V35.8569H86.9297V35.9585ZM86.5469 35.4663C86.5615 35.4663 86.5802 35.4658 86.603 35.4648C86.6226 35.4255 86.6432 35.382 86.665 35.3345L86.7744 35.3755C86.7074 35.5155 86.6481 35.6291 86.5967 35.7163C86.6331 35.7131 86.6803 35.7075 86.7383 35.6997C86.7324 35.731 86.7285 35.77 86.7266 35.8169C86.6152 35.826 86.5309 35.8368 86.4736 35.8491L86.4404 35.7388C86.4684 35.7082 86.5037 35.6533 86.5464 35.5742L86.4512 35.5825L86.418 35.4751C86.4505 35.4373 86.499 35.3335 86.5635 35.1636L86.6836 35.1997C86.6348 35.3019 86.5892 35.3908 86.5469 35.4663ZM86.4189 35.938C86.514 35.9256 86.6286 35.9077 86.7627 35.8843C86.7594 35.939 86.7581 35.9842 86.7588 36.02C86.6572 36.0356 86.5505 36.0539 86.4385 36.0747L86.4189 35.938ZM87.9736 35.1909L88.1201 35.1655L88.1562 35.2944H88.3438V35.7896H88.2109V35.7241H87.9272C87.9194 35.8846 87.8753 36.021 87.7949 36.1333C87.7663 36.0955 87.7314 36.0581 87.6904 36.021C87.7581 35.9403 87.7933 35.8201 87.7959 35.6606V35.2944H88.0078L87.9736 35.1909ZM87.9287 35.4194V35.5991H88.2109V35.4194H87.9287ZM87.4336 35.3413H87.5391V35.1685H87.665V35.3413H87.7676V35.4683H87.665V35.6152L87.7617 35.5952C87.7585 35.6512 87.7572 35.6938 87.7578 35.7231L87.665 35.7451V36.0015C87.665 36.036 87.6561 36.0653 87.6382 36.0894C87.6203 36.1138 87.5615 36.1265 87.4619 36.1274C87.4554 36.0949 87.4443 36.0506 87.4287 35.9946C87.4499 35.9963 87.4686 35.9971 87.4849 35.9971C87.5076 35.9971 87.5223 35.994 87.5288 35.9878C87.5356 35.9813 87.5391 35.9686 87.5391 35.9497V35.7754L87.4336 35.8013L87.4199 35.6616L87.5391 35.6396V35.4683H87.4336V35.3413ZM88.9863 36.1177C88.9772 36.0721 88.9655 36.0275 88.9512 35.9839C88.9935 35.9865 89.0264 35.9878 89.0498 35.9878C89.096 35.9878 89.1242 35.9767 89.1343 35.9546C89.1447 35.9325 89.1504 35.769 89.1514 35.4644H89.0356C89.0304 35.7638 88.9443 35.9881 88.7773 36.1372C88.7474 36.104 88.7116 36.0688 88.6699 36.0317C88.821 35.911 88.8993 35.7218 88.9048 35.4644H88.7441V35.3374H88.9062V35.1714H89.0391C89.0391 35.23 89.0387 35.2853 89.0381 35.3374H89.2852L89.2812 35.5649C89.3223 35.5978 89.3594 35.6284 89.3926 35.6567L89.3623 35.8159C89.333 35.7827 89.3052 35.752 89.2788 35.7236L89.2744 35.9434C89.2731 35.9958 89.2609 36.0358 89.2378 36.0635C89.2147 36.0915 89.1849 36.1073 89.1484 36.1108C89.112 36.1147 89.0579 36.117 88.9863 36.1177ZM88.4229 35.4292H88.5088V35.1763H88.6318V35.4292H88.7129V35.5464H88.6318V36.1284H88.5088V35.5464H88.4229V35.4292ZM88.6621 35.7759C88.6973 35.6965 88.7269 35.6128 88.751 35.5249L88.8584 35.5513C88.8337 35.6411 88.805 35.7297 88.7725 35.8169C88.738 35.8019 88.7012 35.7882 88.6621 35.7759ZM89.457 35.6987H90.3535V35.8218H90.1104C90.1722 35.8966 90.2389 35.981 90.3105 36.0747L90.1914 36.147C90.1771 36.1261 90.1621 36.1043 90.1465 36.0815C90.0228 36.0861 89.8678 36.0939 89.6816 36.105C89.6536 36.1069 89.6195 36.1118 89.5791 36.1196L89.5205 36.0015C89.5804 35.9585 89.6396 35.8986 89.6982 35.8218H89.457V35.6987ZM90.0117 35.1694L89.9844 35.2026C90.0684 35.3257 90.2038 35.4305 90.3906 35.5171C90.3561 35.5594 90.3268 35.5978 90.3027 35.6323C90.2539 35.6063 90.2083 35.5789 90.166 35.5503V35.6167H89.6426V35.5444C89.6003 35.5731 89.5547 35.6017 89.5059 35.6304C89.487 35.6037 89.4577 35.5653 89.418 35.5151C89.6315 35.4025 89.7734 35.2873 89.8438 35.1694H90.0117ZM89.9043 35.3101C89.8581 35.3706 89.793 35.4325 89.709 35.4956H90.0918C90.0182 35.4383 89.9557 35.3765 89.9043 35.3101ZM89.9902 35.8726L90.0742 35.8218H89.8682C89.8343 35.8647 89.7913 35.9139 89.7393 35.9692C89.8148 35.9692 89.9206 35.9663 90.0566 35.9604C90.0358 35.9325 90.0137 35.9032 89.9902 35.8726ZM90.7598 35.9712H91.1289V35.854H90.8379V35.729H91.1289V35.6304H90.9404V35.5532C90.8975 35.5838 90.8516 35.6138 90.8027 35.6431C90.7839 35.6164 90.7549 35.5783 90.7158 35.5288C90.9242 35.4168 91.0654 35.297 91.1396 35.1694H91.3105L91.2852 35.2065C91.3691 35.327 91.5036 35.4305 91.6885 35.5171C91.654 35.5601 91.6247 35.5985 91.6006 35.6323C91.5518 35.6063 91.5062 35.5789 91.4639 35.5503V35.6304H91.2744V35.729H91.5684V35.854H91.2744V35.9712H91.6445V36.0962H90.7598V35.9712ZM91.2021 35.3101C91.1488 35.3778 91.0824 35.4429 91.0029 35.5054H91.4014C91.3232 35.4455 91.2568 35.3804 91.2021 35.3101ZM91.874 35.1704L92 35.2026C91.9782 35.286 91.9544 35.3636 91.9287 35.4355V35.8325C92.0329 35.7238 92.1102 35.5965 92.1606 35.4507H91.9844V35.3286H92.2393V35.1704H92.3682V35.3286H92.6494V35.4507H92.439C92.4884 35.589 92.5716 35.7114 92.6885 35.8179C92.6605 35.8602 92.6322 35.9064 92.6035 35.9565C92.5775 35.9295 92.5531 35.8996 92.5303 35.8667V35.9673H92.3682V36.1313H92.2393V35.9673H92.082V35.8628C92.057 35.9002 92.0296 35.936 92 35.9702C91.9808 35.939 91.957 35.902 91.9287 35.8594V36.1294H91.8115V35.6997C91.7907 35.7371 91.7692 35.772 91.7471 35.8042C91.7393 35.745 91.7288 35.6834 91.7158 35.6196C91.7673 35.5233 91.82 35.3735 91.874 35.1704ZM92.0942 35.8442H92.2393V35.5059C92.208 35.6299 92.1597 35.7427 92.0942 35.8442ZM92.3682 35.5112V35.8442H92.5151C92.4559 35.7537 92.4069 35.6427 92.3682 35.5112ZM92.9531 35.9985C92.9466 35.9432 92.9388 35.8957 92.9297 35.856C92.9606 35.8618 92.985 35.8647 93.0029 35.8647C93.0378 35.8647 93.0575 35.8475 93.062 35.813C93.0669 35.7785 93.0693 35.7342 93.0693 35.6802H92.9268C92.9258 35.8823 92.8939 36.0337 92.8311 36.1343C92.7952 36.1004 92.7568 36.0685 92.7158 36.0386C92.7699 35.9507 92.7972 35.8247 92.7979 35.6606V35.3296H93.2563L93.252 35.1685H93.3906L93.3921 35.3296H93.5254C93.5081 35.3068 93.4805 35.2729 93.4424 35.228L93.5449 35.1724C93.5677 35.1971 93.6003 35.2358 93.6426 35.2886L93.5674 35.3296H93.6748V35.4468H93.3945C93.3978 35.548 93.4048 35.6357 93.4155 35.71C93.4585 35.6439 93.4967 35.5721 93.5303 35.4946L93.6504 35.5503C93.5931 35.6769 93.5285 35.7886 93.4565 35.8853C93.481 35.9487 93.5029 35.9805 93.5225 35.9805C93.5299 35.9805 93.5361 35.9757 93.541 35.9663C93.5459 35.9569 93.5513 35.9334 93.5571 35.896C93.563 35.8582 93.5661 35.8257 93.5664 35.7983C93.5957 35.8153 93.6374 35.8351 93.6914 35.8579C93.6895 35.8931 93.6813 35.9393 93.667 35.9966C93.6527 36.0539 93.6338 36.0905 93.6104 36.1064C93.5869 36.1224 93.5633 36.1304 93.5396 36.1304C93.4686 36.1304 93.4098 36.0861 93.3633 35.9976C93.3164 36.0483 93.2669 36.0939 93.2148 36.1343C93.1836 36.0959 93.1497 36.0614 93.1133 36.0308C93.1852 35.979 93.2507 35.9191 93.3096 35.8511C93.2858 35.7534 93.2697 35.6187 93.2612 35.4468H92.9268V35.562H93.2051C93.2051 35.5718 93.2031 35.6286 93.1992 35.7324C93.1953 35.8359 93.1865 35.8996 93.1729 35.9233C93.1592 35.9471 93.1414 35.9666 93.1196 35.9819C93.0981 35.9969 93.0426 36.0024 92.9531 35.9985ZM94.5674 35.2017V35.5142H93.8418V35.2017H94.5674ZM94.4268 35.3979V35.3179H93.9824V35.3979H94.4268ZM93.8037 35.9155V35.5815H94.6084V35.8999H94.4717V35.6987H93.9404V35.9155H93.8037ZM94.1494 35.7397H94.29C94.2858 35.7798 94.277 35.8169 94.2637 35.8511C94.4108 35.9038 94.5472 35.9565 94.6729 36.0093L94.5977 36.1343C94.4857 36.0783 94.353 36.0189 94.1997 35.9561C94.1174 36.0501 93.9801 36.1099 93.7881 36.1353C93.7712 36.0975 93.749 36.0529 93.7217 36.0015C94.0023 35.9774 94.1449 35.8901 94.1494 35.7397ZM95.0986 35.2554H95.5889C95.5876 35.2274 95.5866 35.1981 95.5859 35.1675H95.709C95.7096 35.1981 95.7108 35.2274 95.7124 35.2554H95.7822C95.7715 35.2349 95.7611 35.2163 95.751 35.1997L95.8604 35.1694C95.8805 35.2043 95.8966 35.2329 95.9087 35.2554H95.9727V35.3667H95.7207C95.7269 35.4341 95.7355 35.4924 95.7466 35.5415C95.7749 35.4992 95.8008 35.4533 95.8242 35.4038L95.9248 35.4624C95.8828 35.5405 95.8381 35.6097 95.7905 35.6699C95.8058 35.6995 95.821 35.7144 95.8359 35.7144C95.8486 35.7144 95.8581 35.7028 95.8643 35.6797C95.8704 35.6562 95.8773 35.6261 95.8848 35.5894C95.9206 35.6115 95.9557 35.6297 95.9902 35.644C95.9727 35.7176 95.9561 35.7673 95.9404 35.793C95.9248 35.8184 95.9038 35.8353 95.8774 35.8438C95.9162 35.8942 95.9525 35.9474 95.9863 36.0034L95.877 36.0698C95.8411 36.0041 95.8037 35.9429 95.7646 35.8862L95.8301 35.8491C95.7806 35.8468 95.738 35.8203 95.7021 35.7695C95.6797 35.7917 95.6566 35.812 95.6328 35.8306C95.611 35.8035 95.5911 35.7806 95.5732 35.7617V35.7808H95.5171C95.5509 35.8208 95.5837 35.8612 95.6152 35.9019L95.5176 35.9702C95.4902 35.9279 95.4544 35.8791 95.4102 35.8237L95.4771 35.7808H95.252V35.5396H95.5732V35.7305C95.5996 35.7096 95.6247 35.687 95.6484 35.6626C95.624 35.5942 95.6064 35.4956 95.5957 35.3667H95.2207V35.4897C95.2207 35.6268 95.1978 35.7373 95.1519 35.8213L95.2383 35.853C95.2077 35.9292 95.1719 36.0083 95.1309 36.0903L95.0176 36.0366C95.0514 35.9709 95.0785 35.9119 95.0986 35.8599C95.068 35.8296 95.0391 35.8042 95.0117 35.7837C95.0697 35.7173 95.0986 35.6151 95.0986 35.4771V35.2554ZM95.4658 35.6929V35.6274H95.3594V35.6929H95.4658ZM95.5752 35.4966H95.249V35.4097H95.5752V35.4966ZM95.6631 35.8765C95.7041 35.9019 95.7458 35.9227 95.7881 35.939C95.7607 36.0223 95.7332 36.0724 95.7056 36.0894C95.6782 36.1063 95.6432 36.1147 95.6006 36.1147H95.3945C95.2975 36.1147 95.249 36.0737 95.249 35.9917V35.8345H95.3779V35.9585C95.3779 35.9891 95.3958 36.0044 95.4316 36.0044H95.5605C95.5941 36.0044 95.6177 35.9971 95.6313 35.9824C95.645 35.9678 95.6556 35.9325 95.6631 35.8765ZM96.3994 35.1606L96.542 35.1753C96.5283 35.2056 96.514 35.2362 96.499 35.2671H96.623V35.5791L96.7158 35.5454C96.7516 35.6346 96.7783 35.7121 96.7959 35.7778L96.6885 35.8149C96.6693 35.7469 96.6475 35.6759 96.623 35.6021V35.9888C96.623 36.0327 96.6143 36.0658 96.5967 36.0879C96.5794 36.11 96.555 36.1214 96.5234 36.1221C96.4919 36.1227 96.4521 36.123 96.4043 36.123C96.3984 36.0843 96.391 36.0454 96.3818 36.0063C96.4176 36.0109 96.4456 36.0132 96.4658 36.0132C96.4925 36.0132 96.5059 35.9985 96.5059 35.9692V35.8823C96.4388 35.9549 96.3675 36.0142 96.292 36.0601C96.2819 36.0451 96.2702 36.0296 96.2568 36.0137C96.2015 36.0521 96.1559 36.0874 96.1201 36.1196L96.0498 36.0347C96.0706 36.0119 96.0811 35.9845 96.0811 35.9526V35.5854H96.0156V35.4585H96.1992V35.9019C96.209 35.8947 96.2357 35.8774 96.2793 35.8501C96.2812 35.8768 96.2835 35.9019 96.2861 35.9253C96.3392 35.8937 96.3898 35.8566 96.438 35.814H96.2354V35.7124H96.2793V35.2671H96.3706C96.381 35.2342 96.3906 35.1987 96.3994 35.1606ZM96.5059 35.3687H96.3965V35.4272H96.5059V35.3687ZM96.3965 35.5698H96.5059V35.5112H96.3965V35.5698ZM96.3965 35.7124H96.5059V35.6538H96.3965V35.7124ZM96.6455 35.3521H96.7998V35.1772H96.9199V35.3521H96.9863V35.478H96.9199V35.9653C96.9199 36.0138 96.9106 36.0506 96.8921 36.0757C96.8735 36.1011 96.8473 36.1147 96.8135 36.1167C96.7796 36.119 96.7367 36.1203 96.6846 36.1206C96.6794 36.077 96.6712 36.035 96.6602 35.9946C96.6895 35.9966 96.7194 35.9976 96.75 35.9976C96.7832 35.9976 96.7998 35.9797 96.7998 35.9438V35.478H96.6455V35.3521ZM96.1387 35.1782C96.1823 35.2362 96.221 35.2922 96.2549 35.3462C96.2191 35.3677 96.182 35.3905 96.1436 35.4146C96.1097 35.3514 96.0739 35.2931 96.0361 35.2397L96.1387 35.1782ZM97.0332 35.4175H97.4189C97.4235 35.3465 97.4255 35.2645 97.4248 35.1714H97.5732C97.5713 35.2681 97.5687 35.3501 97.5654 35.4175H97.9688V35.5522H97.5767C97.6326 35.7697 97.7679 35.9159 97.9824 35.9907C97.9362 36.0435 97.8991 36.0884 97.8711 36.1255C97.6937 36.0422 97.5701 35.9079 97.5005 35.7227C97.4465 35.8923 97.3216 36.0288 97.126 36.1323C97.0999 36.0991 97.0632 36.0575 97.0156 36.0073C97.2526 35.8999 97.3823 35.7482 97.4048 35.5522H97.0332V35.4175ZM98.3965 35.1851L98.5645 35.1636C98.5729 35.1896 98.582 35.2192 98.5918 35.2524H98.957V35.4985H98.8223V35.3647H98.1807V35.4985H98.0459V35.2524H98.4248C98.415 35.2254 98.4056 35.203 98.3965 35.1851ZM98.8506 35.5308L98.9268 35.6401L98.7725 35.7114C98.8171 35.8241 98.8887 35.909 98.9873 35.9663C98.9469 36.0041 98.9105 36.0396 98.8779 36.0728C98.7949 36.0083 98.7257 35.9036 98.6704 35.7588L98.6279 35.7778C98.6449 35.8273 98.6533 35.877 98.6533 35.9268C98.6533 35.9688 98.6491 36.0028 98.6406 36.0288C98.6322 36.0549 98.618 36.0762 98.5981 36.0928C98.5783 36.1094 98.5557 36.1198 98.5303 36.124C98.5052 36.1283 98.4437 36.1304 98.3457 36.1304C98.3359 36.0858 98.3257 36.0454 98.3149 36.0093C98.2476 36.0438 98.1732 36.0747 98.0918 36.1021C98.0697 36.063 98.0443 36.0243 98.0156 35.9858C98.2074 35.939 98.3636 35.8685 98.4844 35.7744C98.4792 35.7617 98.4731 35.749 98.4663 35.7363C98.3599 35.8109 98.2386 35.867 98.1025 35.9048L98.0371 35.8032C98.1911 35.7707 98.3188 35.7238 98.4204 35.6626C98.4129 35.6522 98.4049 35.6418 98.3965 35.6313C98.3096 35.6724 98.2129 35.7062 98.1064 35.7329C98.0856 35.6978 98.0641 35.6646 98.042 35.6333C98.1745 35.6099 98.2866 35.5757 98.3784 35.5308H98.2168V35.4233H98.7842V35.5308H98.5713C98.5508 35.5451 98.5296 35.5589 98.5078 35.5723C98.5358 35.6058 98.5597 35.6395 98.5796 35.6733C98.6886 35.6216 98.779 35.5741 98.8506 35.5308ZM98.3291 36.002C98.3698 36.0062 98.4032 36.0083 98.4292 36.0083C98.4881 36.0083 98.5176 35.979 98.5176 35.9204C98.5176 35.9087 98.5164 35.8958 98.5142 35.8818C98.4598 35.9258 98.3981 35.9658 98.3291 36.002ZM99.3271 35.2441L99.3091 35.77H99.188L99.1709 35.2441H99.3271ZM99.249 35.8501C99.2738 35.8501 99.2949 35.8581 99.3125 35.874C99.3301 35.89 99.3389 35.9093 99.3389 35.9321C99.3389 35.9543 99.3301 35.9733 99.3125 35.9893C99.2949 36.0052 99.2738 36.0132 99.249 36.0132C99.2243 36.0132 99.2033 36.0052 99.186 35.9893C99.1688 35.9733 99.1602 35.9543 99.1602 35.9321C99.1602 35.9093 99.1688 35.89 99.186 35.874C99.2033 35.8581 99.2243 35.8501 99.249 35.8501Z" fill="white"/>
<path fill-rule="evenodd" clip-rule="evenodd" d="M20.2346 11.196C19.3223 11.0382 18.3703 10.9593 17.2597 11.0382C15.3955 11.1171 13.6106 11.7879 13.6106 11.7879L8.81111 8.67077C8.65245 8.59186 8.45412 8.71023 8.49379 8.86806L9.32675 15.9309C9.56474 15.6152 5.12228 20.9814 7.93848 25.4795C10.7547 29.9776 16.7441 31.9899 24.2011 30.53C31.6581 29.0701 33.4033 24.8087 32.9273 22.5597C32.4514 20.3106 29.6352 19.482 29.6352 19.482C29.6352 19.482 29.5955 17.7065 28.3262 15.5363C27.5726 14.2342 25.034 12.3797 25.034 12.3797L24.0027 8.15783C23.9631 8 23.7648 7.96054 23.6458 8.03946L20.2346 11.196Z" fill="white"/>
<defs>
<linearGradient id="paint0_linear" x1="16.564" y1="5.12563" x2="33.093" y2="52.2684" gradientUnits="userSpaceOnUse">
<stop offset="0.0646" stop-color="#1F81F0"/>
<stop offset="0.3647" stop-color="#2184F0"/>
<stop offset="0.5637" stop-color="#268DF2"/>
<stop offset="0.7334" stop-color="#2F9CF4"/>
<stop offset="0.8856" stop-color="#3CB1F8"/>
<stop offset="0.9944" stop-color="#48C5FB"/>
</linearGradient>
</defs>
</svg>
