<svg width="105" height="40" viewBox="0 0 105 40" fill="none" xmlns="http://www.w3.org/2000/svg">
<rect width="105" height="40" rx="5" fill="black"/>
<path d="M37.5566 10.1201H41.2871V8.6748H42.6543V10.1201H46.4434V11.3896H43.0596C44.1175 13.04 45.3919 14.3031 46.8828 15.1787C46.6029 15.4717 46.2546 15.8883 45.8379 16.4287C44.5391 15.3415 43.4779 14.1045 42.6543 12.7178V15.3643H44.6172V16.5947H42.6543V18.2939H41.2871V16.5947H39.3145V15.4131C38.9368 15.8102 38.5365 16.1878 38.1133 16.5459C37.7552 16.0771 37.4232 15.6735 37.1172 15.335C38.6569 14.29 39.9232 12.9749 40.916 11.3896H37.5566V10.1201ZM39.3584 15.3643H41.2871V12.8105C40.7305 13.735 40.0876 14.5863 39.3584 15.3643ZM47.3711 9.2998H51.2188V10.5303H49.6465C49.5033 11.0967 49.3307 11.6501 49.1289 12.1904H50.8867V16.8779H49.0898V17.5615H47.8984V14.6807C47.7943 14.8434 47.6901 15.0029 47.5859 15.1592C47.4427 14.5798 47.2865 14.1077 47.1172 13.7432C47.6966 12.7992 48.1133 11.7282 48.3672 10.5303H47.3711V9.2998ZM53.2402 9.0166L54.6074 8.69434C54.7702 9.12402 54.9329 9.55371 55.0957 9.9834H56.8047V11.1846H52.8105V13.1377C52.8496 15.4033 52.4492 17.1807 51.6094 18.4697C51.2643 18.0921 50.9095 17.7861 50.5449 17.5518C51.2415 16.471 51.5703 14.9411 51.5312 12.9619V9.9834H53.6211C53.4909 9.63835 53.3639 9.31608 53.2402 9.0166ZM49.7734 13.2646H49.0898V15.8037H49.7734V13.2646ZM57.127 14.5049C57.6608 13.6715 58.0563 12.7471 58.3135 11.7314H57.2148V10.4326H58.3379V8.68457H59.6172V10.4326H60.75V11.7314H59.6172V12.6445C60.0306 12.8822 60.4798 13.1507 60.9648 13.4502L60.3301 14.5537L59.6172 14.0508V18.2646H58.3379V14.832C58.1198 15.3203 57.8659 15.7874 57.5762 16.2334C57.472 15.8037 57.3223 15.2275 57.127 14.5049ZM65.8965 14.4463C66.2025 14.583 66.5215 14.71 66.8535 14.8271C66.7852 16.1813 66.7201 17.0033 66.6582 17.293C66.5964 17.5859 66.4808 17.7894 66.3115 17.9033C66.1455 18.0205 65.9193 18.0791 65.6328 18.0791H64.8711C64.2461 18.0791 63.9336 17.6885 63.9336 16.9072V10.501H62.5469V13.2354C62.5469 14.6709 62.4313 15.7109 62.2002 16.3555C61.9691 17 61.554 17.6462 60.9551 18.2939C60.6491 17.9294 60.3073 17.542 59.9297 17.1318C60.4668 16.5589 60.8167 15.9827 60.9795 15.4033C61.1455 14.8206 61.2285 13.8213 61.2285 12.4053V9.12402H65.3301V16.5068C65.3301 16.7282 65.4017 16.8389 65.5449 16.8389C65.623 16.8389 65.68 16.8145 65.7158 16.7656C65.7549 16.7135 65.7907 16.4987 65.8232 16.1211C65.859 15.7435 65.8835 15.1852 65.8965 14.4463ZM75.3789 14.3779C75.9518 14.6253 76.4499 14.8141 76.873 14.9443C76.7201 15.7288 76.5915 16.3262 76.4873 16.7363C76.3864 17.1465 76.1602 17.4508 75.8086 17.6494C75.4603 17.8512 74.9883 17.9521 74.3926 17.9521H70.1543C68.7611 17.9521 68.0645 17.223 68.0645 15.7646V11.585H69.5098V12.5322H74.2363V10.4717H67.8008V9.13379H75.6914V13.8701H69.5098V15.6279C69.5098 16.2855 69.819 16.6143 70.4375 16.6143H74.0801C74.3828 16.6143 74.627 16.5671 74.8125 16.4727C75.0013 16.3783 75.1185 16.2106 75.1641 15.9697C75.2096 15.7256 75.2812 15.195 75.3789 14.3779ZM80.3398 15.4424L81.1602 14.7979H80.2422V11.5068H82.625V10.7549H79.959V9.63184H82.625V8.71387H83.9238V9.63184H86.707V10.7549H83.9238V11.5068H86.3262V15.1982H85.0762V14.7979H83.9043C83.8652 15.4554 83.7611 15.9795 83.5918 16.3701C84.4967 16.6761 85.584 16.8454 86.8535 16.8779C86.5475 17.4899 86.3164 17.9587 86.1602 18.2842C84.8516 18.1475 83.7122 17.8415 82.7422 17.3662C82.2214 17.7178 81.4238 18.0563 80.3496 18.3818C80.1738 18.0889 79.9297 17.7113 79.6172 17.249C80.4701 17.0602 81.1178 16.8584 81.5605 16.6436C81.1048 16.2985 80.6979 15.8981 80.3398 15.4424ZM78.7969 8.7334L80.0957 9.05566C79.9069 9.77181 79.6823 10.4749 79.4219 11.165V18.3623H78.2012V13.8408C77.9733 14.264 77.7324 14.6774 77.4785 15.0811C77.4069 14.4821 77.2995 13.8636 77.1562 13.2256C77.8919 11.8519 78.4388 10.3545 78.7969 8.7334ZM85.0762 13.7139V12.5908H83.9238V13.7139H85.0762ZM81.4922 13.7139H82.625V12.5908H81.4922V13.7139ZM82.4102 15.833C82.5143 15.5661 82.5827 15.221 82.6152 14.7979H81.2383C81.5443 15.2015 81.9349 15.5465 82.4102 15.833ZM96.2578 16.79C96.2578 17.2035 96.1634 17.5225 95.9746 17.7471C95.7858 17.9749 95.4961 18.1084 95.1055 18.1475C94.7181 18.1898 94.207 18.2061 93.5723 18.1963C93.4616 17.695 93.3314 17.223 93.1816 16.7803C93.8522 16.8193 94.2168 16.8389 94.2754 16.8389C94.6855 16.8389 94.8906 16.6403 94.8906 16.2432V15.3545H92.8594V18.0889H91.4824V15.3545H89.3682C89.2673 16.79 88.9922 17.7926 88.543 18.3623C88.1263 18.0628 87.7064 17.7894 87.2832 17.542C87.8105 16.8258 88.0645 15.5531 88.0449 13.7236V9.12402H96.2578V16.79ZM89.4121 11.624H91.4824V10.4131H89.4121V11.624ZM94.8906 10.4131H92.8594V11.624H94.8906V10.4131ZM89.4121 14.0947H91.4824V12.8838H89.4121V14.0947ZM92.8594 14.0947H94.8906V12.8838H92.8594V14.0947ZM43.2695 29.7266C42.7194 29.9967 42.0016 30.1318 41.1162 30.1318C39.9769 30.1318 39.0719 29.7917 38.4014 29.1113C37.734 28.4277 37.4004 27.5179 37.4004 26.3818C37.4004 25.1872 37.7731 24.2106 38.5186 23.4521C39.2673 22.6904 40.2324 22.3096 41.4141 22.3096C42.153 22.3096 42.7715 22.4056 43.2695 22.5977V24.1553C42.7585 23.8558 42.179 23.7061 41.5312 23.7061C40.7923 23.7061 40.2015 23.9421 39.7588 24.4141C39.3161 24.8861 39.0947 25.5029 39.0947 26.2646C39.0947 27.0068 39.3047 27.6042 39.7246 28.0566C40.1445 28.5091 40.7126 28.7354 41.4287 28.7354C42.1025 28.7354 42.7161 28.5726 43.2695 28.2471V29.7266ZM50.7158 26.748C50.7158 29.0039 49.6676 30.1318 47.5713 30.1318C45.5465 30.1318 44.5342 29.0332 44.5342 26.8359V22.4365H46.1504V26.8457C46.1504 28.1055 46.6468 28.7354 47.6396 28.7354C48.6162 28.7354 49.1045 28.1283 49.1045 26.9141V22.4365H50.7158V26.748ZM52.376 30V22.4365H54.9883C57.6738 22.4365 59.0166 23.6654 59.0166 26.123C59.0166 27.2917 58.6406 28.2308 57.8887 28.9404C57.1367 29.6468 56.1667 30 54.9785 30H52.376ZM53.9873 23.7549V28.6816H54.8662C55.6312 28.6816 56.2318 28.4538 56.668 27.998C57.1042 27.5423 57.3223 26.9255 57.3223 26.1475C57.3223 25.3955 57.0944 24.8096 56.6387 24.3896C56.1829 23.9665 55.5905 23.7549 54.8613 23.7549H53.9873ZM66.8584 30H65.1006L64.5342 28.2666H61.7852L61.2285 30H59.4805L62.249 22.4365H64.1436L66.8584 30ZM64.1533 27.0215L63.2939 24.3994C63.2386 24.2334 63.1995 24.0137 63.1768 23.7402H63.1328C63.1133 23.9616 63.0693 24.1748 63.001 24.3799L62.1367 27.0215H64.1533ZM72.2246 31.1182C72.127 30.6624 72.013 30.1742 71.8828 29.6533C72.2865 29.6794 72.6185 29.6924 72.8789 29.6924C73.0352 29.6924 73.1556 29.6598 73.2402 29.5947C73.3281 29.5264 73.3818 29.4336 73.4014 29.3164C73.4209 29.1992 73.4437 28.7061 73.4697 27.8369C73.4958 26.9645 73.5137 25.8773 73.5234 24.5752H72.5762C72.5404 27.6676 71.9544 29.9333 70.8184 31.3721C70.5905 30.9294 70.3333 30.4639 70.0469 29.9756C70.8607 28.82 71.2822 27.0199 71.3115 24.5752H70.1934V23.2959H71.3408C71.3506 22.736 71.3555 22.1989 71.3555 21.6846H72.625L72.6006 23.2959H74.8125L74.749 27.2412L74.6855 29.5312C74.6693 29.9967 74.57 30.3499 74.3877 30.5908C74.2087 30.8317 73.9938 30.9798 73.7432 31.0352C73.4958 31.0905 72.9896 31.1182 72.2246 31.1182ZM75.3887 31.1182V22.5049H79.334V31.0596H78.0254V30.2588H76.6973V31.1182H75.3887ZM78.0254 23.7842H76.6973V28.9795H78.0254V23.7842ZM87.1855 27.2314C88.0579 27.6546 88.8913 28.0876 89.6855 28.5303L89.0605 29.5557C88.2402 29.0544 87.4785 28.6149 86.7754 28.2373V29.7607H85.5352V28.1396C84.9492 28.7516 84.2852 29.2432 83.543 29.6143C83.3346 29.2692 83.0677 28.8981 82.7422 28.501C83.6406 28.234 84.4479 27.7816 85.1641 27.1436H83.2207V24.3311H85.5352V23.7256H82.8887V22.5537H85.5352V21.7139H86.7754V22.5537H89.4512V23.7256H86.7754V24.3311H89.0996V27.1436H86.7754V27.8955L87.1855 27.2314ZM84.334 29.9658C85.6361 30.0049 87.4492 29.9984 89.7734 29.9463C89.5846 30.4281 89.4284 30.8382 89.3047 31.1768C87.4036 31.1768 85.6523 31.1605 84.0508 31.1279C83.0612 31.1279 82.2767 30.8122 81.6973 30.1807C81.4368 30.4801 81.082 30.8838 80.6328 31.3916L80.0859 29.9365C80.3464 29.7021 80.6523 29.4352 81.0039 29.1357V26.4111H80.1348V25.1221H82.2246V29.1455C82.6087 29.6924 83.3118 29.9658 84.334 29.9658ZM81.4336 21.7041C81.8893 22.3942 82.2832 23.0322 82.6152 23.6182C82.1204 23.8721 81.7201 24.0837 81.4141 24.2529C81.0951 23.5889 80.7402 22.9313 80.3496 22.2803L81.4336 21.7041ZM88.0059 25.3467H86.7754V26.1279H88.0059V25.3467ZM84.3145 26.1279H85.5352V25.3467H84.3145V26.1279Z" fill="white"/>
<path d="M94.5117 36H94.3467L94.0264 35.5107C94.0098 35.4854 93.9977 35.4648 93.9902 35.4492H93.9878C93.9907 35.4753 93.9922 35.5155 93.9922 35.5698V36H93.8394V35.2437H94.0151L94.3237 35.7192C94.3442 35.7508 94.3568 35.7708 94.3613 35.7793H94.3638C94.3605 35.7611 94.3589 35.7262 94.3589 35.6748V35.2437H94.5117V36ZM95.3101 35.2437L95.0474 36H94.8652L94.606 35.2437H94.7798L94.9434 35.7783C94.9515 35.8047 94.9565 35.8296 94.9585 35.853H94.9614C94.964 35.8289 94.9696 35.8034 94.978 35.7764L95.1416 35.2437H95.3101ZM95.5635 35.2437V36H95.4023V35.2437H95.5635ZM95.7388 36V35.2437H96C96.2686 35.2437 96.4028 35.3665 96.4028 35.6123C96.4028 35.7292 96.3652 35.8231 96.29 35.894C96.2148 35.9647 96.1178 36 95.999 36H95.7388ZM95.8999 35.3755V35.8682H95.9878C96.0643 35.8682 96.1243 35.8454 96.168 35.7998C96.2116 35.7542 96.2334 35.6925 96.2334 35.6147C96.2334 35.5396 96.2106 35.481 96.165 35.439C96.1195 35.3966 96.0602 35.3755 95.9873 35.3755H95.8999ZM96.6914 35.2437V36H96.5303V35.2437H96.6914ZM97.5229 36H97.3472L97.2905 35.8267H97.0156L96.96 36H96.7852L97.062 35.2437H97.2515L97.5229 36ZM97.2524 35.7021L97.1665 35.4399C97.161 35.4233 97.1571 35.4014 97.1548 35.374H97.1504C97.1484 35.3962 97.144 35.4175 97.1372 35.438L97.0508 35.7021H97.2524ZM98.4785 35.2437L98.2314 35.73V36H98.0703V35.7329L97.8301 35.2437H98.0142L98.1411 35.5327C98.1437 35.5386 98.1497 35.5584 98.1592 35.5923H98.1611C98.165 35.5695 98.1704 35.5501 98.1772 35.5342L98.3076 35.2437H98.4785ZM99.0127 36H98.5649V35.2437H98.9951V35.3755H98.7261V35.5537H98.9761V35.6851H98.7261V35.8682H99.0127V36ZM99.1025 35.8096C99.1634 35.86 99.2326 35.8853 99.3101 35.8853C99.354 35.8853 99.387 35.8778 99.4092 35.8628C99.4313 35.8475 99.4424 35.828 99.4424 35.8042C99.4424 35.7837 99.4336 35.7643 99.416 35.7461C99.3984 35.7279 99.3521 35.7031 99.2769 35.6719C99.1587 35.6217 99.0996 35.5488 99.0996 35.4531C99.0996 35.3828 99.1263 35.3283 99.1797 35.2896C99.2334 35.2505 99.3044 35.231 99.3926 35.231C99.4665 35.231 99.5285 35.2406 99.5786 35.2598V35.4111C99.5278 35.3766 99.4684 35.3594 99.4004 35.3594C99.3607 35.3594 99.3289 35.3667 99.3052 35.3813C99.2814 35.3957 99.2695 35.415 99.2695 35.4395C99.2695 35.459 99.2777 35.4771 99.2939 35.4937C99.3102 35.5099 99.3504 35.5321 99.4146 35.5601C99.4897 35.5923 99.5413 35.6263 99.5693 35.6621C99.5977 35.6979 99.6118 35.7406 99.6118 35.79C99.6118 35.8626 99.5861 35.918 99.5347 35.9561C99.4832 35.9941 99.4102 36.0132 99.3154 36.0132C99.2288 36.0132 99.1579 35.9992 99.1025 35.9712V35.8096ZM99.9077 35.2437L99.8882 35.7671H99.7603L99.7417 35.2437H99.9077ZM99.7329 35.9277C99.7329 35.9033 99.7419 35.8833 99.7598 35.8677C99.7777 35.8521 99.7996 35.8442 99.8257 35.8442C99.8521 35.8442 99.8739 35.8522 99.8911 35.8682C99.9087 35.8838 99.9175 35.9036 99.9175 35.9277C99.9175 35.9512 99.909 35.971 99.8921 35.9873C99.8752 36.0036 99.8548 36.0117 99.8311 36.0117C99.8011 36.0117 99.7772 36.0036 99.7593 35.9873C99.7417 35.971 99.7329 35.9512 99.7329 35.9277Z" fill="white"/>
<path d="M10.6564 19.3184C10.6564 19.3184 13.0072 15.8912 17.7009 15.5367V14.2933C12.502 14.7059 8 19.0567 8 19.0567C8 19.0567 10.5499 26.3404 17.7009 27.0073V25.6857C12.4531 25.0333 10.6564 19.3184 10.6564 19.3184ZM17.7009 23.0573V24.2676C13.7348 23.5689 12.6338 19.4951 12.6338 19.4951C12.6338 19.4951 14.5382 17.4106 17.7009 17.0726V18.4007C17.6985 18.4007 17.6968 18.4 17.6948 18.4C16.0349 18.2031 14.7381 19.7354 14.7381 19.7354C14.7381 19.7354 15.4649 22.3149 17.7009 23.0573ZM17.7009 12V14.2933C17.8535 14.2818 18.0061 14.2719 18.1596 14.2668C24.0701 14.0699 27.9213 19.0567 27.9213 19.0567C27.9213 19.0567 23.4981 24.3713 18.89 24.3713C18.4676 24.3713 18.0722 24.3327 17.7009 24.2676V25.6857C18.0184 25.7255 18.3477 25.7489 18.6913 25.7489C22.9795 25.7489 26.0806 23.5849 29.0834 21.0238C29.5812 21.4178 31.6195 22.3763 32.0385 22.7958C29.1833 25.1578 22.5293 27.0618 18.757 27.0618C18.3934 27.0618 18.0441 27.04 17.7009 27.0073V29H34V12H17.7009ZM17.7009 17.0726V15.5367C17.8519 15.5263 18.0041 15.5183 18.1596 15.5135C22.4098 15.3815 25.1983 19.1225 25.1983 19.1225C25.1983 19.1225 22.1865 23.2557 18.9572 23.2557C18.4925 23.2557 18.0759 23.1819 17.7009 23.0573V18.4007C19.3555 18.5982 19.6885 19.3205 20.6832 20.9591L22.8957 19.1157C22.8957 19.1157 21.2806 17.0227 18.5581 17.0227C18.2622 17.0226 17.979 17.0432 17.7009 17.0726Z" fill="#77B900"/>
</svg>
