<svg width="105" height="40" viewBox="0 0 105 40" fill="none" xmlns="http://www.w3.org/2000/svg">
<rect width="105" height="40" rx="5" fill="#654FF0"/>
<path d="M37.5566 10.1201H41.2871V8.6748H42.6543V10.1201H46.4434V11.3896H43.0596C44.1175 13.04 45.3919 14.3031 46.8828 15.1787C46.6029 15.4717 46.2546 15.8883 45.8379 16.4287C44.5391 15.3415 43.4779 14.1045 42.6543 12.7178V15.3643H44.6172V16.5947H42.6543V18.2939H41.2871V16.5947H39.3145V15.4131C38.9368 15.8102 38.5365 16.1878 38.1133 16.5459C37.7552 16.0771 37.4232 15.6735 37.1172 15.335C38.6569 14.29 39.9232 12.9749 40.916 11.3896H37.5566V10.1201ZM39.3584 15.3643H41.2871V12.8105C40.7305 13.735 40.0876 14.5863 39.3584 15.3643ZM47.3711 9.2998H51.2188V10.5303H49.6465C49.5033 11.0967 49.3307 11.6501 49.1289 12.1904H50.8867V16.8779H49.0898V17.5615H47.8984V14.6807C47.7943 14.8434 47.6901 15.0029 47.5859 15.1592C47.4427 14.5798 47.2865 14.1077 47.1172 13.7432C47.6966 12.7992 48.1133 11.7282 48.3672 10.5303H47.3711V9.2998ZM53.2402 9.0166L54.6074 8.69434C54.7702 9.12402 54.9329 9.55371 55.0957 9.9834H56.8047V11.1846H52.8105V13.1377C52.8496 15.4033 52.4492 17.1807 51.6094 18.4697C51.2643 18.0921 50.9095 17.7861 50.5449 17.5518C51.2415 16.471 51.5703 14.9411 51.5312 12.9619V9.9834H53.6211C53.4909 9.63835 53.3639 9.31608 53.2402 9.0166ZM49.7734 13.2646H49.0898V15.8037H49.7734V13.2646ZM57.127 14.5049C57.6608 13.6715 58.0563 12.7471 58.3135 11.7314H57.2148V10.4326H58.3379V8.68457H59.6172V10.4326H60.75V11.7314H59.6172V12.6445C60.0306 12.8822 60.4798 13.1507 60.9648 13.4502L60.3301 14.5537L59.6172 14.0508V18.2646H58.3379V14.832C58.1198 15.3203 57.8659 15.7874 57.5762 16.2334C57.472 15.8037 57.3223 15.2275 57.127 14.5049ZM65.8965 14.4463C66.2025 14.583 66.5215 14.71 66.8535 14.8271C66.7852 16.1813 66.7201 17.0033 66.6582 17.293C66.5964 17.5859 66.4808 17.7894 66.3115 17.9033C66.1455 18.0205 65.9193 18.0791 65.6328 18.0791H64.8711C64.2461 18.0791 63.9336 17.6885 63.9336 16.9072V10.501H62.5469V13.2354C62.5469 14.6709 62.4313 15.7109 62.2002 16.3555C61.9691 17 61.554 17.6462 60.9551 18.2939C60.6491 17.9294 60.3073 17.542 59.9297 17.1318C60.4668 16.5589 60.8167 15.9827 60.9795 15.4033C61.1455 14.8206 61.2285 13.8213 61.2285 12.4053V9.12402H65.3301V16.5068C65.3301 16.7282 65.4017 16.8389 65.5449 16.8389C65.623 16.8389 65.68 16.8145 65.7158 16.7656C65.7549 16.7135 65.7907 16.4987 65.8232 16.1211C65.859 15.7435 65.8835 15.1852 65.8965 14.4463ZM75.3789 14.3779C75.9518 14.6253 76.4499 14.8141 76.873 14.9443C76.7201 15.7288 76.5915 16.3262 76.4873 16.7363C76.3864 17.1465 76.1602 17.4508 75.8086 17.6494C75.4603 17.8512 74.9883 17.9521 74.3926 17.9521H70.1543C68.7611 17.9521 68.0645 17.223 68.0645 15.7646V11.585H69.5098V12.5322H74.2363V10.4717H67.8008V9.13379H75.6914V13.8701H69.5098V15.6279C69.5098 16.2855 69.819 16.6143 70.4375 16.6143H74.0801C74.3828 16.6143 74.627 16.5671 74.8125 16.4727C75.0013 16.3783 75.1185 16.2106 75.1641 15.9697C75.2096 15.7256 75.2812 15.195 75.3789 14.3779ZM80.3398 15.4424L81.1602 14.7979H80.2422V11.5068H82.625V10.7549H79.959V9.63184H82.625V8.71387H83.9238V9.63184H86.707V10.7549H83.9238V11.5068H86.3262V15.1982H85.0762V14.7979H83.9043C83.8652 15.4554 83.7611 15.9795 83.5918 16.3701C84.4967 16.6761 85.584 16.8454 86.8535 16.8779C86.5475 17.4899 86.3164 17.9587 86.1602 18.2842C84.8516 18.1475 83.7122 17.8415 82.7422 17.3662C82.2214 17.7178 81.4238 18.0563 80.3496 18.3818C80.1738 18.0889 79.9297 17.7113 79.6172 17.249C80.4701 17.0602 81.1178 16.8584 81.5605 16.6436C81.1048 16.2985 80.6979 15.8981 80.3398 15.4424ZM78.7969 8.7334L80.0957 9.05566C79.9069 9.77181 79.6823 10.4749 79.4219 11.165V18.3623H78.2012V13.8408C77.9733 14.264 77.7324 14.6774 77.4785 15.0811C77.4069 14.4821 77.2995 13.8636 77.1562 13.2256C77.8919 11.8519 78.4388 10.3545 78.7969 8.7334ZM85.0762 13.7139V12.5908H83.9238V13.7139H85.0762ZM81.4922 13.7139H82.625V12.5908H81.4922V13.7139ZM82.4102 15.833C82.5143 15.5661 82.5827 15.221 82.6152 14.7979H81.2383C81.5443 15.2015 81.9349 15.5465 82.4102 15.833ZM96.2578 16.79C96.2578 17.2035 96.1634 17.5225 95.9746 17.7471C95.7858 17.9749 95.4961 18.1084 95.1055 18.1475C94.7181 18.1898 94.207 18.2061 93.5723 18.1963C93.4616 17.695 93.3314 17.223 93.1816 16.7803C93.8522 16.8193 94.2168 16.8389 94.2754 16.8389C94.6855 16.8389 94.8906 16.6403 94.8906 16.2432V15.3545H92.8594V18.0889H91.4824V15.3545H89.3682C89.2673 16.79 88.9922 17.7926 88.543 18.3623C88.1263 18.0628 87.7064 17.7894 87.2832 17.542C87.8105 16.8258 88.0645 15.5531 88.0449 13.7236V9.12402H96.2578V16.79ZM89.4121 11.624H91.4824V10.4131H89.4121V11.624ZM94.8906 10.4131H92.8594V11.624H94.8906V10.4131ZM89.4121 14.0947H91.4824V12.8838H89.4121V14.0947ZM92.8594 14.0947H94.8906V12.8838H92.8594V14.0947ZM47.6641 22.4365L45.6475 30H43.8555L42.5664 25.0684C42.498 24.8014 42.4574 24.5231 42.4443 24.2334H42.4248C42.3923 24.5719 42.3467 24.8503 42.2881 25.0684L40.9697 30H39.1094L37.0928 22.4365H38.8604L39.9834 27.5635C40.0322 27.7881 40.0664 28.0713 40.0859 28.4131H40.1201C40.1364 28.1462 40.1868 27.8548 40.2715 27.5391L41.6777 22.4365H43.3916L44.6709 27.6025C44.723 27.8076 44.7637 28.0745 44.793 28.4033H44.8174C44.8304 28.1201 44.8678 27.8434 44.9297 27.5732L46.0283 22.4365H47.6641ZM55.1982 30H53.4404L52.874 28.2666H50.125L49.5684 30H47.8203L50.5889 22.4365H52.4834L55.1982 30ZM52.4932 27.0215L51.6338 24.3994C51.5785 24.2334 51.5394 24.0137 51.5166 23.7402H51.4727C51.4531 23.9616 51.4092 24.1748 51.3408 24.3799L50.4766 27.0215H52.4932ZM55.8086 28.0957C56.4173 28.6003 57.109 28.8525 57.8838 28.8525C58.3232 28.8525 58.6536 28.7777 58.875 28.6279C59.0964 28.4749 59.207 28.2796 59.207 28.042C59.207 27.8369 59.1191 27.6432 58.9434 27.4609C58.7676 27.2786 58.3037 27.0312 57.5518 26.7188C56.3701 26.2174 55.7793 25.4883 55.7793 24.5312C55.7793 23.8281 56.0462 23.2829 56.5801 22.8955C57.1172 22.5049 57.8268 22.3096 58.709 22.3096C59.4479 22.3096 60.068 22.4056 60.5693 22.5977V24.1113C60.0615 23.7663 59.4674 23.5938 58.7871 23.5938C58.39 23.5938 58.0726 23.667 57.835 23.8135C57.5973 23.9567 57.4785 24.1504 57.4785 24.3945C57.4785 24.5898 57.5599 24.7705 57.7227 24.9365C57.8854 25.0993 58.2874 25.3206 58.9287 25.6006C59.6807 25.9229 60.1966 26.263 60.4766 26.6211C60.7598 26.9792 60.9014 27.4056 60.9014 27.9004C60.9014 28.6263 60.6442 29.1797 60.1299 29.5605C59.6156 29.9414 58.8848 30.1318 57.9375 30.1318C57.0716 30.1318 56.362 29.9919 55.8086 29.7119V28.0957ZM69.0947 30V25.4102C69.0947 24.987 69.1159 24.4548 69.1582 23.8135H69.1191C69.0215 24.2985 68.9434 24.6224 68.8848 24.7852L67.0195 30H65.7354L63.8457 24.834C63.8001 24.7103 63.7204 24.3701 63.6064 23.8135H63.5625C63.6048 24.4482 63.626 25.0846 63.626 25.7227V30H62.1709V22.4365H64.5146L66.1455 27.0068C66.2822 27.3844 66.375 27.7393 66.4238 28.0713H66.458C66.5589 27.6579 66.6631 27.2998 66.7705 26.9971L68.4062 22.4365H70.6865V30H69.0947ZM76.8633 31.1182C76.7656 30.6624 76.6517 30.1742 76.5215 29.6533C76.9251 29.6794 77.2572 29.6924 77.5176 29.6924C77.6738 29.6924 77.7943 29.6598 77.8789 29.5947C77.9668 29.5264 78.0205 29.4336 78.04 29.3164C78.0596 29.1992 78.0824 28.7061 78.1084 27.8369C78.1344 26.9645 78.1523 25.8773 78.1621 24.5752H77.2148C77.179 27.6676 76.5931 29.9333 75.457 31.3721C75.2292 30.9294 74.972 30.4639 74.6855 29.9756C75.4993 28.82 75.9209 27.0199 75.9502 24.5752H74.832V23.2959H75.9795C75.9893 22.736 75.9941 22.1989 75.9941 21.6846H77.2637L77.2393 23.2959H79.4512L79.3877 27.2412L79.3242 29.5312C79.3079 29.9967 79.2087 30.3499 79.0264 30.5908C78.8473 30.8317 78.6325 30.9798 78.3818 31.0352C78.1344 31.0905 77.6283 31.1182 76.8633 31.1182ZM80.0273 31.1182V22.5049H83.9727V31.0596H82.6641V30.2588H81.3359V31.1182H80.0273ZM82.6641 23.7842H81.3359V28.9795H82.6641V23.7842ZM91.8242 27.2314C92.6966 27.6546 93.5299 28.0876 94.3242 28.5303L93.6992 29.5557C92.8789 29.0544 92.1172 28.6149 91.4141 28.2373V29.7607H90.1738V28.1396C89.5879 28.7516 88.9238 29.2432 88.1816 29.6143C87.9733 29.2692 87.7064 28.8981 87.3809 28.501C88.2793 28.234 89.0866 27.7816 89.8027 27.1436H87.8594V24.3311H90.1738V23.7256H87.5273V22.5537H90.1738V21.7139H91.4141V22.5537H94.0898V23.7256H91.4141V24.3311H93.7383V27.1436H91.4141V27.8955L91.8242 27.2314ZM88.9727 29.9658C90.2747 30.0049 92.0879 29.9984 94.4121 29.9463C94.2233 30.4281 94.0671 30.8382 93.9434 31.1768C92.0423 31.1768 90.291 31.1605 88.6895 31.1279C87.6999 31.1279 86.9154 30.8122 86.3359 30.1807C86.0755 30.4801 85.7207 30.8838 85.2715 31.3916L84.7246 29.9365C84.985 29.7021 85.291 29.4352 85.6426 29.1357V26.4111H84.7734V25.1221H86.8633V29.1455C87.2474 29.6924 87.9505 29.9658 88.9727 29.9658ZM86.0723 21.7041C86.528 22.3942 86.9219 23.0322 87.2539 23.6182C86.7591 23.8721 86.3587 24.0837 86.0527 24.2529C85.7337 23.5889 85.3789 22.9313 84.9883 22.2803L86.0723 21.7041ZM92.6445 25.3467H91.4141V26.1279H92.6445V25.3467ZM88.9531 26.1279H90.1738V25.3467H88.9531V26.1279Z" fill="white"/>
<path d="M95.0796 35.2437L94.8169 36H94.6348L94.3755 35.2437H94.5493L94.7129 35.7783C94.721 35.8047 94.7261 35.8296 94.728 35.853H94.731C94.7336 35.8289 94.7391 35.8034 94.7476 35.7764L94.9111 35.2437H95.0796ZM95.127 35.7964C95.127 35.7524 95.1396 35.7134 95.165 35.6792C95.1904 35.645 95.2272 35.62 95.2754 35.604C95.237 35.5848 95.2072 35.5604 95.186 35.5308C95.1652 35.5011 95.1548 35.4683 95.1548 35.4321C95.1548 35.3944 95.165 35.3602 95.1855 35.3296C95.2064 35.2987 95.2354 35.2746 95.2725 35.2573C95.3096 35.2397 95.3511 35.231 95.397 35.231C95.4432 35.231 95.485 35.2396 95.5225 35.2568C95.5599 35.2738 95.589 35.2977 95.6099 35.3286C95.6307 35.3592 95.6411 35.3931 95.6411 35.4302C95.6411 35.4653 95.6296 35.498 95.6064 35.5283C95.5837 35.5586 95.5529 35.5825 95.5142 35.6001C95.5614 35.6164 95.5981 35.6416 95.6245 35.6758C95.6509 35.7096 95.6641 35.7493 95.6641 35.7949C95.6641 35.859 95.6392 35.9113 95.5894 35.9517C95.5396 35.992 95.4749 36.0122 95.3955 36.0122C95.3161 36.0122 95.2515 35.992 95.2017 35.9517C95.1519 35.9113 95.127 35.8595 95.127 35.7964ZM95.2847 35.7822C95.2847 35.8174 95.2948 35.8455 95.3149 35.8667C95.3351 35.8879 95.3621 35.8984 95.396 35.8984C95.4285 35.8984 95.4552 35.8879 95.4761 35.8667C95.4969 35.8455 95.5073 35.8174 95.5073 35.7822C95.5073 35.7493 95.4967 35.722 95.4756 35.7002C95.4544 35.6781 95.4279 35.667 95.396 35.667C95.3631 35.667 95.3363 35.6781 95.3154 35.7002C95.2949 35.722 95.2847 35.7493 95.2847 35.7822ZM95.3081 35.4482C95.3081 35.4759 95.3166 35.4997 95.3335 35.5195C95.3507 35.5391 95.3724 35.5488 95.3984 35.5488C95.4235 35.5488 95.4448 35.5392 95.4624 35.52C95.48 35.5008 95.4888 35.4769 95.4888 35.4482C95.4888 35.4196 95.4801 35.3953 95.4629 35.3755C95.446 35.3556 95.4245 35.3457 95.3984 35.3457C95.3717 35.3457 95.3499 35.3556 95.333 35.3755C95.3164 35.3953 95.3081 35.4196 95.3081 35.4482ZM96.1514 35.1733C96.1989 35.2332 96.2451 35.2944 96.29 35.3569L96.1689 35.436C96.1312 35.3722 96.0889 35.3065 96.042 35.2388L96.1514 35.1733ZM96.6875 35.9399H96.5557V35.5986C96.4951 35.6852 96.4238 35.7616 96.3418 35.8276C96.3122 35.7912 96.2835 35.7593 96.2559 35.7319V35.8906C96.2826 35.9154 96.3132 35.9344 96.3477 35.9478C96.3825 35.9608 96.4154 35.9688 96.4463 35.9717C96.4775 35.9746 96.5342 35.9761 96.6162 35.9761C96.7191 35.9761 96.8421 35.9735 96.9854 35.9683C96.9684 36.0132 96.9525 36.0581 96.9375 36.103C96.6842 36.104 96.5112 36.1021 96.4185 36.0972C96.3257 36.0923 96.2503 36.0588 96.1924 35.9966C96.167 36.0239 96.1276 36.0675 96.0742 36.1274L96.0127 35.9819L96.125 35.8799V35.6343H96.0273V35.5054H96.2559V35.7168C96.3949 35.6133 96.494 35.4849 96.5532 35.3315H96.3125V35.2114H96.9541V35.3315H96.6953C96.6781 35.3771 96.6587 35.4207 96.6372 35.4624H96.6875V35.5352L96.752 35.4819C96.8268 35.5529 96.9059 35.632 96.9893 35.7192L96.8799 35.8159C96.8024 35.7212 96.7383 35.6455 96.6875 35.5889V35.9399ZM97.1309 35.1978H97.8701V35.606H97.1309V35.1978ZM97.7344 35.3062H97.2666V35.3589H97.7344V35.3062ZM97.7344 35.4976V35.4448H97.2666V35.4976H97.7344ZM97.1279 36.1353C97.0941 36.1092 97.057 36.0825 97.0166 36.0552C97.0895 35.9855 97.1453 35.8888 97.1841 35.7651H97.0186V35.6528H97.9834V35.7651H97.5762V35.8247H97.9082V35.9312H97.5762V35.9932C97.6188 35.9941 97.6712 35.9946 97.7334 35.9946C97.8044 35.9946 97.8883 35.994 97.9854 35.9927C97.9691 36.035 97.9564 36.0734 97.9473 36.1079C97.8997 36.1089 97.8164 36.1086 97.6973 36.1069L97.5547 36.105C97.4049 36.105 97.2962 36.0698 97.2285 35.9995C97.1986 36.0529 97.165 36.0981 97.1279 36.1353ZM97.4443 35.9824V35.7651H97.1865L97.3096 35.811C97.3001 35.84 97.29 35.8675 97.2793 35.8936C97.3216 35.9382 97.3766 35.9678 97.4443 35.9824ZM98.0332 35.3921H98.417C98.4232 35.327 98.4261 35.2541 98.4258 35.1733H98.5762C98.5752 35.2437 98.5723 35.3166 98.5674 35.3921H98.9688V35.5269H98.585C98.6527 35.7498 98.7884 35.9028 98.9922 35.9858C98.9577 36.0256 98.9189 36.0734 98.876 36.1294C98.7025 36.022 98.5791 35.8599 98.5059 35.6431C98.4583 35.8091 98.3317 35.9731 98.126 36.1353C98.0791 36.0767 98.0413 36.033 98.0127 36.0044C98.2393 35.8729 98.3678 35.7137 98.3984 35.5269H98.0332V35.3921ZM98.373 35.9351L98.4648 35.8589C98.5078 35.9058 98.5566 35.9572 98.6113 36.0132L98.5039 36.1011C98.4661 36.0503 98.4225 35.995 98.373 35.9351ZM99.1406 35.1772H99.2588V35.3604C99.2897 35.3724 99.321 35.3849 99.3525 35.3979L99.3213 35.5024C99.3014 35.492 99.2806 35.4814 99.2588 35.4707V36.1284H99.1406V35.1772ZM99.3691 35.2017H99.9141V35.4849H99.3691V35.2017ZM99.793 35.2769H99.4893V35.313H99.793V35.2769ZM99.793 35.4097V35.3735H99.4893V35.4097H99.793ZM99.0068 35.647C99.0251 35.5532 99.0397 35.4556 99.0508 35.354L99.1328 35.3638C99.1204 35.4744 99.1061 35.5741 99.0898 35.6626C99.0625 35.6561 99.0348 35.6509 99.0068 35.647ZM99.9561 35.7437H99.3223V35.522H99.9561V35.7437ZM99.8457 35.6636V35.6021H99.7588V35.6636H99.8457ZM99.4326 35.6636H99.5195V35.6021H99.4326V35.6636ZM99.5957 35.6636H99.6826V35.6021H99.5957V35.6636ZM99.916 35.7856V35.8716C99.8753 35.9214 99.8234 35.9644 99.7603 36.0005C99.8309 36.0184 99.9085 36.0282 99.9932 36.0298C99.9782 36.0643 99.9645 36.0981 99.9521 36.1313C99.8314 36.1216 99.7248 36.0978 99.6323 36.0601C99.5457 36.092 99.445 36.1154 99.3301 36.1304C99.3151 36.0985 99.2988 36.0662 99.2812 36.0337C99.3656 36.0278 99.4424 36.016 99.5117 35.998C99.4648 35.9684 99.4229 35.9338 99.3857 35.894L99.4268 35.8716H99.3506V35.7856H99.916ZM99.6338 35.9565C99.6875 35.9334 99.735 35.9051 99.7764 35.8716H99.499C99.5394 35.9051 99.5843 35.9334 99.6338 35.9565Z" fill="white"/>
<path d="M23.974 7C23.974 7.0459 23.974 7.0918 23.974 7.14012C23.974 7.93079 23.6599 8.68908 23.1008 9.24817C22.5417 9.80726 21.7834 10.1214 20.9928 10.1214C20.2021 10.1214 19.4438 9.80726 18.8847 9.24817C18.3256 8.68908 18.0115 7.93079 18.0115 7.14012C18.0115 7.0918 18.0115 7.0459 18.0115 7H8V33H34V7H23.974ZM20.4081 30.2169L19.1422 23.9524H19.1204L17.7506 30.2169H16.0063L14.0301 21.0123H15.7526L16.9316 27.2767H16.9534L18.3739 21.0123H19.9853L21.2609 27.354H21.2827L22.6283 21.0123H24.3195L22.1234 30.2169H20.4081ZM29.893 30.2169L29.3059 28.1682H26.2063L25.7545 30.2169H24.032L26.2594 21.0123H28.9773L31.6856 30.2169H29.893Z" fill="white"/>
<path d="M27.2959 23.2808L26.5446 26.6583H28.8832L28.0207 23.2808H27.2959Z" fill="white"/>
</svg>
