<svg width="105" height="40" viewBox="0 0 105 40" fill="none" xmlns="http://www.w3.org/2000/svg">
<rect width="105" height="40" rx="5" fill="#15252C"/>
<path d="M37.5566 10.1201H41.2871V8.6748H42.6543V10.1201H46.4434V11.3896H43.0596C44.1175 13.04 45.3919 14.3031 46.8828 15.1787C46.6029 15.4717 46.2546 15.8883 45.8379 16.4287C44.5391 15.3415 43.4779 14.1045 42.6543 12.7178V15.3643H44.6172V16.5947H42.6543V18.2939H41.2871V16.5947H39.3145V15.4131C38.9368 15.8102 38.5365 16.1878 38.1133 16.5459C37.7552 16.0771 37.4232 15.6735 37.1172 15.335C38.6569 14.29 39.9232 12.9749 40.916 11.3896H37.5566V10.1201ZM39.3584 15.3643H41.2871V12.8105C40.7305 13.735 40.0876 14.5863 39.3584 15.3643ZM47.3711 9.2998H51.2188V10.5303H49.6465C49.5033 11.0967 49.3307 11.6501 49.1289 12.1904H50.8867V16.8779H49.0898V17.5615H47.8984V14.6807C47.7943 14.8434 47.6901 15.0029 47.5859 15.1592C47.4427 14.5798 47.2865 14.1077 47.1172 13.7432C47.6966 12.7992 48.1133 11.7282 48.3672 10.5303H47.3711V9.2998ZM53.2402 9.0166L54.6074 8.69434C54.7702 9.12402 54.9329 9.55371 55.0957 9.9834H56.8047V11.1846H52.8105V13.1377C52.8496 15.4033 52.4492 17.1807 51.6094 18.4697C51.2643 18.0921 50.9095 17.7861 50.5449 17.5518C51.2415 16.471 51.5703 14.9411 51.5312 12.9619V9.9834H53.6211C53.4909 9.63835 53.3639 9.31608 53.2402 9.0166ZM49.7734 13.2646H49.0898V15.8037H49.7734V13.2646ZM57.127 14.5049C57.6608 13.6715 58.0563 12.7471 58.3135 11.7314H57.2148V10.4326H58.3379V8.68457H59.6172V10.4326H60.75V11.7314H59.6172V12.6445C60.0306 12.8822 60.4798 13.1507 60.9648 13.4502L60.3301 14.5537L59.6172 14.0508V18.2646H58.3379V14.832C58.1198 15.3203 57.8659 15.7874 57.5762 16.2334C57.472 15.8037 57.3223 15.2275 57.127 14.5049ZM65.8965 14.4463C66.2025 14.583 66.5215 14.71 66.8535 14.8271C66.7852 16.1813 66.7201 17.0033 66.6582 17.293C66.5964 17.5859 66.4808 17.7894 66.3115 17.9033C66.1455 18.0205 65.9193 18.0791 65.6328 18.0791H64.8711C64.2461 18.0791 63.9336 17.6885 63.9336 16.9072V10.501H62.5469V13.2354C62.5469 14.6709 62.4313 15.7109 62.2002 16.3555C61.9691 17 61.554 17.6462 60.9551 18.2939C60.6491 17.9294 60.3073 17.542 59.9297 17.1318C60.4668 16.5589 60.8167 15.9827 60.9795 15.4033C61.1455 14.8206 61.2285 13.8213 61.2285 12.4053V9.12402H65.3301V16.5068C65.3301 16.7282 65.4017 16.8389 65.5449 16.8389C65.623 16.8389 65.68 16.8145 65.7158 16.7656C65.7549 16.7135 65.7907 16.4987 65.8232 16.1211C65.859 15.7435 65.8835 15.1852 65.8965 14.4463ZM75.3789 14.3779C75.9518 14.6253 76.4499 14.8141 76.873 14.9443C76.7201 15.7288 76.5915 16.3262 76.4873 16.7363C76.3864 17.1465 76.1602 17.4508 75.8086 17.6494C75.4603 17.8512 74.9883 17.9521 74.3926 17.9521H70.1543C68.7611 17.9521 68.0645 17.223 68.0645 15.7646V11.585H69.5098V12.5322H74.2363V10.4717H67.8008V9.13379H75.6914V13.8701H69.5098V15.6279C69.5098 16.2855 69.819 16.6143 70.4375 16.6143H74.0801C74.3828 16.6143 74.627 16.5671 74.8125 16.4727C75.0013 16.3783 75.1185 16.2106 75.1641 15.9697C75.2096 15.7256 75.2812 15.195 75.3789 14.3779ZM80.3398 15.4424L81.1602 14.7979H80.2422V11.5068H82.625V10.7549H79.959V9.63184H82.625V8.71387H83.9238V9.63184H86.707V10.7549H83.9238V11.5068H86.3262V15.1982H85.0762V14.7979H83.9043C83.8652 15.4554 83.7611 15.9795 83.5918 16.3701C84.4967 16.6761 85.584 16.8454 86.8535 16.8779C86.5475 17.4899 86.3164 17.9587 86.1602 18.2842C84.8516 18.1475 83.7122 17.8415 82.7422 17.3662C82.2214 17.7178 81.4238 18.0563 80.3496 18.3818C80.1738 18.0889 79.9297 17.7113 79.6172 17.249C80.4701 17.0602 81.1178 16.8584 81.5605 16.6436C81.1048 16.2985 80.6979 15.8981 80.3398 15.4424ZM78.7969 8.7334L80.0957 9.05566C79.9069 9.77181 79.6823 10.4749 79.4219 11.165V18.3623H78.2012V13.8408C77.9733 14.264 77.7324 14.6774 77.4785 15.0811C77.4069 14.4821 77.2995 13.8636 77.1562 13.2256C77.8919 11.8519 78.4388 10.3545 78.7969 8.7334ZM85.0762 13.7139V12.5908H83.9238V13.7139H85.0762ZM81.4922 13.7139H82.625V12.5908H81.4922V13.7139ZM82.4102 15.833C82.5143 15.5661 82.5827 15.221 82.6152 14.7979H81.2383C81.5443 15.2015 81.9349 15.5465 82.4102 15.833ZM96.2578 16.79C96.2578 17.2035 96.1634 17.5225 95.9746 17.7471C95.7858 17.9749 95.4961 18.1084 95.1055 18.1475C94.7181 18.1898 94.207 18.2061 93.5723 18.1963C93.4616 17.695 93.3314 17.223 93.1816 16.7803C93.8522 16.8193 94.2168 16.8389 94.2754 16.8389C94.6855 16.8389 94.8906 16.6403 94.8906 16.2432V15.3545H92.8594V18.0889H91.4824V15.3545H89.3682C89.2673 16.79 88.9922 17.7926 88.543 18.3623C88.1263 18.0628 87.7064 17.7894 87.2832 17.542C87.8105 16.8258 88.0645 15.5531 88.0449 13.7236V9.12402H96.2578V16.79ZM89.4121 11.624H91.4824V10.4131H89.4121V11.624ZM94.8906 10.4131H92.8594V11.624H94.8906V10.4131ZM89.4121 14.0947H91.4824V12.8838H89.4121V14.0947ZM92.8594 14.0947H94.8906V12.8838H92.8594V14.0947ZM37.4004 26.3184C37.4004 25.1335 37.7454 24.1699 38.4355 23.4277C39.1289 22.6823 40.0436 22.3096 41.1797 22.3096C42.2604 22.3096 43.1296 22.6693 43.7871 23.3887C44.4479 24.1081 44.7783 25.0326 44.7783 26.1621C44.7783 27.3405 44.4349 28.2975 43.748 29.0332C43.0645 29.7656 42.1676 30.1318 41.0576 30.1318C39.9736 30.1318 39.0931 29.777 38.416 29.0674C37.7389 28.3545 37.4004 27.4382 37.4004 26.3184ZM39.0947 26.2305C39.0947 26.9661 39.2721 27.5684 39.627 28.0371C39.9818 28.5026 40.4684 28.7354 41.0869 28.7354C41.7184 28.7354 42.21 28.5124 42.5615 28.0664C42.9131 27.6172 43.0889 27.015 43.0889 26.2598C43.0889 25.472 42.918 24.8503 42.5762 24.3945C42.2344 23.9355 41.7526 23.7061 41.1309 23.7061C40.4993 23.7061 40.0013 23.9404 39.6367 24.4092C39.2754 24.8779 39.0947 25.485 39.0947 26.2305ZM47.4785 29.3506V32.4854H45.9014V24.5996H47.4785V25.4248H47.498C47.9115 24.7868 48.4958 24.4678 49.251 24.4678C49.9378 24.4678 50.4749 24.7087 50.8623 25.1904C51.2497 25.6689 51.4434 26.3216 51.4434 27.1484C51.4434 28.0501 51.2188 28.7728 50.7695 29.3164C50.3203 29.86 49.7311 30.1318 49.002 30.1318C48.3411 30.1318 47.8398 29.8714 47.498 29.3506H47.4785ZM47.4541 27.6123C47.4541 27.9964 47.5583 28.3105 47.7666 28.5547C47.9749 28.7988 48.2451 28.9209 48.5771 28.9209C48.971 28.9209 49.277 28.7679 49.4951 28.4619C49.7165 28.1559 49.8271 27.723 49.8271 27.1631C49.8271 26.1735 49.4414 25.6787 48.6699 25.6787C48.3118 25.6787 48.0189 25.8154 47.791 26.0889C47.5664 26.3623 47.4541 26.7139 47.4541 27.1436V27.6123ZM57.3564 27.7441H53.8018C53.8571 28.5807 54.3617 28.999 55.3154 28.999C55.9111 28.999 56.4368 28.8525 56.8926 28.5596V29.7168C56.401 29.9935 55.7565 30.1318 54.959 30.1318C54.0996 30.1318 53.4307 29.8893 52.9521 29.4043C52.4769 28.9193 52.2393 28.2438 52.2393 27.3779C52.2393 26.5153 52.4932 25.8154 53.001 25.2783C53.5088 24.738 54.1468 24.4678 54.915 24.4678C55.68 24.4678 56.2773 24.7005 56.707 25.166C57.14 25.6283 57.3564 26.2646 57.3564 27.0752V27.7441ZM55.8867 26.7578C55.8867 25.9505 55.5596 25.5469 54.9053 25.5469C54.6351 25.5469 54.3958 25.6576 54.1875 25.8789C53.9792 26.1003 53.849 26.3932 53.7969 26.7578H55.8867ZM63.5137 30H61.9463V26.9873C61.9463 26.1149 61.6322 25.6787 61.0039 25.6787C60.7044 25.6787 60.4554 25.7959 60.2568 26.0303C60.0583 26.2614 59.959 26.5576 59.959 26.9189V30H58.3818V24.5996H59.959V25.459H59.9785C60.3724 24.7982 60.9518 24.4678 61.7168 24.4678C62.9147 24.4678 63.5137 25.21 63.5137 26.6943V30ZM70.418 29.7266C69.8678 29.9967 69.1501 30.1318 68.2646 30.1318C67.1253 30.1318 66.2204 29.7917 65.5498 29.1113C64.8825 28.4277 64.5488 27.5179 64.5488 26.3818C64.5488 25.1872 64.9215 24.2106 65.667 23.4521C66.4157 22.6904 67.3809 22.3096 68.5625 22.3096C69.3014 22.3096 69.9199 22.4056 70.418 22.5977V24.1553C69.9069 23.8558 69.3275 23.7061 68.6797 23.7061C67.9408 23.7061 67.3499 23.9421 66.9072 24.4141C66.4645 24.8861 66.2432 25.5029 66.2432 26.2646C66.2432 27.0068 66.4531 27.6042 66.873 28.0566C67.293 28.5091 67.861 28.7354 68.5771 28.7354C69.251 28.7354 69.8646 28.5726 70.418 28.2471V29.7266ZM76.1992 30H71.7607V22.4365H73.3721V28.6816H76.1992V30ZM78.6602 31.1182C78.5625 30.6624 78.4486 30.1742 78.3184 29.6533C78.722 29.6794 79.054 29.6924 79.3145 29.6924C79.4707 29.6924 79.5911 29.6598 79.6758 29.5947C79.7637 29.5264 79.8174 29.4336 79.8369 29.3164C79.8564 29.1992 79.8792 28.7061 79.9053 27.8369C79.9313 26.9645 79.9492 25.8773 79.959 24.5752H79.0117C78.9759 27.6676 78.39 29.9333 77.2539 31.3721C77.026 30.9294 76.7689 30.4639 76.4824 29.9756C77.2962 28.82 77.7178 27.0199 77.7471 24.5752H76.6289V23.2959H77.7764C77.7861 22.736 77.791 22.1989 77.791 21.6846H79.0605L79.0361 23.2959H81.248L81.1846 27.2412L81.1211 29.5312C81.1048 29.9967 81.0055 30.3499 80.8232 30.5908C80.6442 30.8317 80.4294 30.9798 80.1787 31.0352C79.9313 31.0905 79.4251 31.1182 78.6602 31.1182ZM81.8242 31.1182V22.5049H85.7695V31.0596H84.4609V30.2588H83.1328V31.1182H81.8242ZM84.4609 23.7842H83.1328V28.9795H84.4609V23.7842ZM93.6211 27.2314C94.4935 27.6546 95.3268 28.0876 96.1211 28.5303L95.4961 29.5557C94.6758 29.0544 93.9141 28.6149 93.2109 28.2373V29.7607H91.9707V28.1396C91.3848 28.7516 90.7207 29.2432 89.9785 29.6143C89.7702 29.2692 89.5033 28.8981 89.1777 28.501C90.0762 28.234 90.8835 27.7816 91.5996 27.1436H89.6562V24.3311H91.9707V23.7256H89.3242V22.5537H91.9707V21.7139H93.2109V22.5537H95.8867V23.7256H93.2109V24.3311H95.5352V27.1436H93.2109V27.8955L93.6211 27.2314ZM90.7695 29.9658C92.0716 30.0049 93.8848 29.9984 96.209 29.9463C96.0202 30.4281 95.8639 30.8382 95.7402 31.1768C93.8392 31.1768 92.0879 31.1605 90.4863 31.1279C89.4967 31.1279 88.7122 30.8122 88.1328 30.1807C87.8724 30.4801 87.5176 30.8838 87.0684 31.3916L86.5215 29.9365C86.7819 29.7021 87.0879 29.4352 87.4395 29.1357V26.4111H86.5703V25.1221H88.6602V29.1455C89.0443 29.6924 89.7474 29.9658 90.7695 29.9658ZM87.8691 21.7041C88.3249 22.3942 88.7188 23.0322 89.0508 23.6182C88.556 23.8721 88.1556 24.0837 87.8496 24.2529C87.5306 23.5889 87.1758 22.9313 86.7852 22.2803L87.8691 21.7041ZM94.4414 25.3467H93.2109V26.1279H94.4414V25.3467ZM90.75 26.1279H91.9707V25.3467H90.75V26.1279Z" fill="white"/>
<path d="M89.4648 35.9546H89.876V35.7886H89.5869V35.6567H89.876V35.4946H89.6396C89.597 35.5786 89.5492 35.6571 89.4961 35.73C89.4759 35.6759 89.4538 35.62 89.4297 35.562C89.4967 35.4728 89.5537 35.354 89.6006 35.2056L89.7461 35.2417C89.7318 35.283 89.7165 35.3234 89.7002 35.3628H89.876V35.1694H90.0225V35.3628H90.3467V35.4946H90.0225V35.6567H90.3086V35.7886H90.0225V35.9546H90.3818V36.0903H89.4648V35.9546ZM90.457 35.2769H90.8252C90.8317 35.243 90.834 35.2062 90.832 35.1665H90.9766C90.9753 35.2069 90.9731 35.2437 90.9702 35.2769H91.3633V35.394H91.0322C91.1162 35.4855 91.2376 35.5467 91.3965 35.5776C91.3704 35.6271 91.3473 35.675 91.3271 35.7212C91.1491 35.6672 91.0104 35.5674 90.9111 35.4219C90.8376 35.5645 90.7012 35.6685 90.502 35.7339C90.4779 35.6825 90.4518 35.6349 90.4238 35.5913C90.6094 35.5483 90.7282 35.4826 90.7803 35.394H90.457V35.2769ZM90.8662 35.5278C90.9118 35.5558 90.9655 35.591 91.0273 35.6333L90.9395 35.7212C90.8848 35.6756 90.8337 35.6369 90.7861 35.605L90.8662 35.5278ZM90.875 35.6968C90.9421 35.7365 91.0039 35.7769 91.0605 35.8179L90.9795 35.9116C90.9248 35.8667 90.8656 35.8247 90.8018 35.7856L90.875 35.6968ZM91.2686 35.7329C91.318 35.8071 91.3617 35.8817 91.3994 35.9565L91.2832 36.02C91.2474 35.9438 91.2051 35.8667 91.1562 35.7886L91.2686 35.7329ZM91.0898 35.8638C91.138 35.8872 91.1829 35.9067 91.2246 35.9224C91.2048 36.0031 91.1803 36.0555 91.1514 36.0796C91.1224 36.1037 91.0791 36.1157 91.0215 36.1157H90.8008C90.7031 36.1157 90.6543 36.0675 90.6543 35.9712V35.7671H90.7832V35.939C90.7832 35.9787 90.8034 35.9985 90.8438 35.9985H90.9902C91.0221 35.9985 91.0448 35.9915 91.0581 35.9775C91.0715 35.9635 91.082 35.9256 91.0898 35.8638ZM90.5137 35.771L90.6348 35.812C90.6016 35.911 90.5716 35.992 90.5449 36.0552L90.4229 36.0083C90.4574 35.9341 90.4876 35.855 90.5137 35.771ZM91.5186 35.1724C91.6156 35.2355 91.679 35.2801 91.709 35.3062L91.6211 35.4058C91.571 35.3608 91.5098 35.312 91.4375 35.2593L91.5186 35.1724ZM92.3916 35.4028C92.3831 35.4373 92.3747 35.4774 92.3662 35.5229C92.3128 35.5243 92.2653 35.5249 92.2236 35.5249C92.1501 35.5249 92.1133 35.4884 92.1133 35.4155V35.3218H91.9336C91.9336 35.4129 91.887 35.4959 91.7939 35.5708C91.7562 35.5356 91.7165 35.5028 91.6748 35.4722C91.7575 35.4149 91.7988 35.3511 91.7988 35.2808V35.2026H92.248V35.3579C92.248 35.3722 92.2511 35.3831 92.2573 35.3906C92.2635 35.3981 92.2713 35.4023 92.2808 35.4033C92.2905 35.404 92.3275 35.4038 92.3916 35.4028ZM91.5078 35.4321C91.569 35.4738 91.627 35.5181 91.6816 35.5649L91.5898 35.6665C91.5462 35.6235 91.4906 35.576 91.4229 35.5239L91.5078 35.4321ZM92.3174 35.5728V35.6899C92.2699 35.7808 92.2126 35.8577 92.1455 35.9209C92.2158 35.9521 92.2995 35.9764 92.3965 35.9937C92.3717 36.0295 92.3457 36.075 92.3184 36.1304C92.2083 36.104 92.1107 36.0651 92.0254 36.0137C91.9378 36.068 91.8337 36.1092 91.7129 36.1372C91.694 36.0949 91.668 36.0522 91.6348 36.0093C91.7373 35.9865 91.8257 35.9572 91.8999 35.9214C91.8442 35.8713 91.7949 35.8136 91.752 35.7485L91.8389 35.6929H91.7197V35.5728H92.3174ZM92.021 35.8481C92.0802 35.8035 92.127 35.7518 92.1611 35.6929H91.8696C91.9149 35.755 91.9653 35.8068 92.021 35.8481ZM91.5596 35.6958C91.6006 35.716 91.6432 35.7329 91.6875 35.7466L91.5664 36.1187C91.5202 36.1011 91.4759 36.0858 91.4336 36.0728C91.4818 35.9517 91.5238 35.826 91.5596 35.6958ZM93.335 35.9727C93.2799 35.9997 93.2082 36.0132 93.1196 36.0132C93.0057 36.0132 92.9152 35.9792 92.8481 35.9111C92.7814 35.8428 92.748 35.7518 92.748 35.6382C92.748 35.5187 92.7853 35.4211 92.8599 35.3452C92.9347 35.269 93.0312 35.231 93.1494 35.231C93.2233 35.231 93.2852 35.2406 93.335 35.2598V35.4155C93.2839 35.3856 93.2259 35.3706 93.1611 35.3706C93.0872 35.3706 93.0282 35.3942 92.9839 35.4414C92.9396 35.4886 92.9175 35.5503 92.9175 35.6265C92.9175 35.7007 92.9385 35.7604 92.9805 35.8057C93.0225 35.8509 93.0793 35.8735 93.1509 35.8735C93.2183 35.8735 93.2796 35.8573 93.335 35.8247V35.9727ZM94.0796 35.6748C94.0796 35.9004 93.9748 36.0132 93.7651 36.0132C93.5627 36.0132 93.4614 35.9033 93.4614 35.6836V35.2437H93.623V35.6846C93.623 35.8105 93.6727 35.8735 93.772 35.8735C93.8696 35.8735 93.9185 35.8128 93.9185 35.6914V35.2437H94.0796V35.6748ZM94.2456 36V35.2437H94.5068C94.7754 35.2437 94.9097 35.3665 94.9097 35.6123C94.9097 35.7292 94.8721 35.8231 94.7969 35.894C94.7217 35.9647 94.6247 36 94.5059 36H94.2456ZM94.4067 35.3755V35.8682H94.4946C94.5711 35.8682 94.6312 35.8454 94.6748 35.7998C94.7184 35.7542 94.7402 35.6925 94.7402 35.6147C94.7402 35.5396 94.7174 35.481 94.6719 35.439C94.6263 35.3966 94.5671 35.3755 94.4941 35.3755H94.4067ZM95.6938 36H95.5181L95.4614 35.8267H95.1865L95.1309 36H94.9561L95.2329 35.2437H95.4224L95.6938 36ZM95.4233 35.7021L95.3374 35.4399C95.3319 35.4233 95.328 35.4014 95.3257 35.374H95.3213C95.3193 35.3962 95.3149 35.4175 95.3081 35.438L95.2217 35.7021H95.4233ZM96.0156 35.3423H96.1304C96.1388 35.2863 96.1468 35.2271 96.1543 35.1646L96.29 35.1772L96.2627 35.3423H96.4551C96.4495 35.5636 96.4147 35.7362 96.3506 35.8599L96.4883 35.9771L96.3906 36.0815C96.3535 36.0431 96.3161 36.0055 96.2783 35.9688C96.2295 36.0283 96.1709 36.0793 96.1025 36.1216C96.0726 36.0812 96.0433 36.0451 96.0146 36.0132C96.0798 35.9751 96.1351 35.9292 96.1807 35.8755C96.1361 35.8338 96.0911 35.7928 96.0459 35.7524C96.0697 35.6701 96.0913 35.5741 96.1108 35.4644H96.0156V35.3423ZM96.1855 35.7192L96.248 35.7725C96.2861 35.6927 96.3099 35.59 96.3193 35.4644H96.2402C96.223 35.5526 96.2048 35.6375 96.1855 35.7192ZM96.457 35.5854H96.666V35.4927L96.8018 35.3394H96.4912V35.2114H96.9707V35.3501L96.8047 35.5415V35.5854H96.9873V35.7173H96.8047V35.9585C96.8047 35.98 96.8003 36.0042 96.7915 36.0312C96.7827 36.0583 96.7669 36.0804 96.7441 36.0977C96.7214 36.1152 96.6842 36.1243 96.6328 36.125C96.5814 36.126 96.5417 36.1265 96.5137 36.1265C96.5078 36.0809 96.4997 36.0369 96.4893 35.9946C96.5426 36.0002 96.5812 36.0029 96.605 36.0029C96.6457 36.0029 96.666 35.9748 96.666 35.9185V35.7173H96.457V35.5854ZM97.1309 35.1978H97.8701V35.606H97.1309V35.1978ZM97.7344 35.3062H97.2666V35.3589H97.7344V35.3062ZM97.7344 35.4976V35.4448H97.2666V35.4976H97.7344ZM97.1279 36.1353C97.0941 36.1092 97.057 36.0825 97.0166 36.0552C97.0895 35.9855 97.1453 35.8888 97.1841 35.7651H97.0186V35.6528H97.9834V35.7651H97.5762V35.8247H97.9082V35.9312H97.5762V35.9932C97.6188 35.9941 97.6712 35.9946 97.7334 35.9946C97.8044 35.9946 97.8883 35.994 97.9854 35.9927C97.9691 36.035 97.9564 36.0734 97.9473 36.1079C97.8997 36.1089 97.8164 36.1086 97.6973 36.1069L97.5547 36.105C97.4049 36.105 97.2962 36.0698 97.2285 35.9995C97.1986 36.0529 97.165 36.0981 97.1279 36.1353ZM97.4443 35.9824V35.7651H97.1865L97.3096 35.811C97.3001 35.84 97.29 35.8675 97.2793 35.8936C97.3216 35.9382 97.3766 35.9678 97.4443 35.9824ZM98.0244 35.8647H98.1328V35.3706H98.4307V35.3237H98.0352V35.23H98.4307V35.1665H98.5654V35.23H98.9609V35.3237H98.5654V35.3706H98.8662V35.8647H98.9785V35.9575H98.0244V35.8647ZM98.6074 35.9653C98.6979 35.9803 98.8125 35.9998 98.9512 36.0239L98.9102 36.1382C98.7897 36.1108 98.6732 36.0848 98.5605 36.0601L98.6074 35.9653ZM98.3838 35.9614L98.4355 36.0562C98.3249 36.0835 98.2155 36.1102 98.1074 36.1362C98.0885 36.0959 98.0706 36.0594 98.0537 36.0269C98.1657 36.008 98.2757 35.9862 98.3838 35.9614ZM98.2646 35.7456H98.7344V35.7007H98.2646V35.7456ZM98.7344 35.4604H98.2646V35.5044H98.7344V35.4604ZM98.2646 35.6245H98.7344V35.5806H98.2646V35.6245ZM98.2646 35.8647H98.7344V35.8218H98.2646V35.8647ZM99.1953 35.1714L99.3408 35.1938L99.2969 35.3267H99.4629V35.5171C99.5153 35.4292 99.5654 35.3133 99.6133 35.1694L99.748 35.2046C99.7337 35.2479 99.7184 35.2902 99.7021 35.3315H99.9541L99.9429 35.8936C99.9412 35.9541 99.9362 35.9964 99.9277 36.0205C99.9193 36.0449 99.9061 36.0648 99.8882 36.0801C99.8703 36.0954 99.8452 36.1058 99.813 36.1113C99.7811 36.1169 99.7113 36.1196 99.6035 36.1196C99.5938 36.0623 99.5814 36.0132 99.5664 35.9722C99.6146 35.9761 99.6659 35.978 99.7202 35.978C99.7358 35.978 99.7493 35.9762 99.7607 35.9727C99.7721 35.9691 99.7814 35.9637 99.7886 35.9565C99.7961 35.9491 99.8011 35.9408 99.8037 35.9316C99.8063 35.9225 99.8084 35.8825 99.8101 35.8115L99.8145 35.6118C99.8158 35.5496 99.8164 35.4992 99.8164 35.4604H99.6465C99.625 35.506 99.6022 35.5503 99.5781 35.5933C99.5472 35.5731 99.5088 35.5531 99.4629 35.5332V36.1147H99.3271V36.0444H99.1885V36.1206H99.0527V35.3267H99.1558C99.1746 35.2629 99.1878 35.2111 99.1953 35.1714ZM99.3271 35.4546H99.1885V35.6216H99.3271V35.4546ZM99.1885 35.9165H99.3271V35.7495H99.1885V35.9165ZM99.6162 35.5776C99.6631 35.6336 99.7135 35.7017 99.7676 35.7817L99.6445 35.8638C99.5951 35.7824 99.5479 35.7131 99.5029 35.6558L99.6162 35.5776Z" fill="white"/>
<path d="M19.3485 16.4424C19.7069 15.8952 20.1291 15.2472 20.2665 15.036C18.6981 15.1512 17.2474 15.5496 16.0201 16.1568C16.2091 16.5024 16.4546 16.9368 16.6436 17.2728C17.2941 17.0352 18.001 16.872 18.7471 16.8024C18.9926 16.7784 19.2135 16.6464 19.3485 16.4424Z" fill="#ABD038"/>
<path d="M25.0749 18.6552C25.4161 18.8136 25.7474 18.8616 26.2113 18.8616C27.0606 18.8616 28.6634 18.864 29.5446 18.8664C28.769 17.6064 27.4386 16.5576 25.772 15.8712C25.1804 16.2576 23.4868 17.3664 23.2168 17.5416C24.287 18.0528 24.7386 18.4992 25.0749 18.6552Z" fill="#EE332D"/>
<path d="M20.5905 15.0168C20.5438 15.1512 20.1266 16.3752 19.994 16.7712C20.6666 16.8 21.3146 16.9008 21.9208 17.0664C22.2817 17.1648 22.6695 17.1288 23.0033 16.9608L25.448 15.7416C24.1839 15.2688 22.7456 15 21.2164 15C21.0053 15 20.7967 15.0072 20.5905 15.0168Z" fill="#F2BA1A"/>
<path d="M12.6647 19.1928L13.4575 19.1952C13.671 19.1952 13.8748 19.1088 14.0196 18.9552C14.4491 18.4968 14.9769 18.0936 15.5831 17.76C15.7991 17.6424 15.9194 17.4048 15.8801 17.1672C15.8212 16.7928 15.7574 16.4064 15.7402 16.3032C14.3583 17.0352 13.2832 18.0336 12.6647 19.1928Z" fill="#3DAE2B"/>
<path d="M31.8666 19.8312H31.6849V20.2944H31.5254V19.8312H31.3413V19.6968H31.8666V19.8312Z" fill="white"/>
<path d="M32.6201 19.6968V20.2944H32.4704V19.8408H32.4679L32.3403 20.2944H32.2176L32.0899 19.8408H32.0875V20.2944H31.9377V19.6968H32.1734L32.2789 20.0952L32.3845 19.6968" fill="white"/>
<path d="M12.9371 20.3304C12.7432 20.1096 12.5051 19.9344 12.2228 19.8072C11.943 19.6776 11.6239 19.6128 11.2705 19.6128C10.917 19.6128 10.6004 19.6776 10.3181 19.8072C10.0383 19.9368 9.80018 20.112 9.60382 20.3304C9.40991 20.5512 9.26018 20.808 9.15709 21.1008C9.054 21.3936 9 21.7056 9 22.032C9 22.3632 9.05155 22.6776 9.15709 22.9704C9.26018 23.2632 9.40991 23.52 9.60382 23.7408C9.79773 23.9616 10.0358 24.1344 10.3181 24.2616C10.5979 24.3888 10.917 24.4536 11.2705 24.4536C11.6239 24.4536 11.9405 24.3888 12.2228 24.2616C12.5026 24.1344 12.7407 23.9616 12.9371 23.7408C13.131 23.52 13.2807 23.2632 13.3838 22.9704C13.4869 22.6776 13.5409 22.3632 13.5409 22.032C13.5409 21.7032 13.4894 21.3936 13.3838 21.1008C13.2807 20.808 13.131 20.5512 12.9371 20.3304ZM12.6278 22.68C12.5714 22.8912 12.4879 23.0808 12.3725 23.2464C12.2572 23.412 12.1075 23.5464 11.9258 23.6448C11.7417 23.7432 11.5233 23.7936 11.2729 23.7936C11.0201 23.7936 10.8041 23.7432 10.62 23.6448C10.4359 23.5464 10.2862 23.412 10.1733 23.2464C10.0579 23.0808 9.972 22.8912 9.918 22.68C9.86155 22.4688 9.83455 22.2528 9.83455 22.032C9.83455 21.8112 9.86155 21.5952 9.918 21.384C9.97445 21.1728 10.0579 20.9832 10.1733 20.8176C10.2886 20.652 10.4384 20.52 10.62 20.4192C10.8041 20.3208 11.0225 20.2704 11.2729 20.2704C11.5257 20.2704 11.7417 20.3208 11.9258 20.4192C12.1099 20.5176 12.2596 20.652 12.3725 20.8176C12.4879 20.9832 12.5738 21.1728 12.6278 21.384C12.6843 21.5952 12.7113 21.8112 12.7113 22.032C12.7113 22.2528 12.6818 22.4688 12.6278 22.68Z" fill="white"/>
<path d="M17.0558 21.4272C16.9233 21.2664 16.7564 21.1392 16.5551 21.0456C16.3538 20.952 16.1182 20.9064 15.8482 20.9064C15.6273 20.9064 15.4211 20.9496 15.2321 21.0336C15.0407 21.1176 14.8934 21.2568 14.7878 21.4512H14.7756V20.9952H14.0588V25.5792H14.8148V23.9088H14.8271C14.8836 24 14.9572 24.0792 15.0431 24.144C15.129 24.2112 15.2223 24.2664 15.3254 24.3096C15.426 24.3528 15.534 24.384 15.6445 24.4032C15.7549 24.4224 15.8654 24.432 15.9758 24.432C16.2287 24.432 16.4471 24.384 16.6337 24.2856C16.8202 24.1896 16.9724 24.06 17.0951 23.8968C17.2178 23.736 17.3087 23.5488 17.3676 23.3376C17.4265 23.1264 17.4559 22.908 17.4559 22.6824C17.4559 22.4352 17.4216 22.2048 17.3553 21.9888C17.289 21.7776 17.1884 21.588 17.0558 21.4272ZM16.6484 23.1024C16.614 23.2416 16.56 23.3688 16.4815 23.4792C16.4029 23.5896 16.3047 23.6784 16.1869 23.748C16.0667 23.8176 15.9218 23.8512 15.75 23.8512C15.5954 23.8512 15.4579 23.82 15.3426 23.76C15.2247 23.7 15.1241 23.6184 15.0407 23.5128C14.9572 23.4096 14.8934 23.2848 14.8517 23.1408C14.8099 22.9968 14.7878 22.8408 14.7878 22.6704C14.7878 22.3128 14.8688 22.0248 15.0308 21.8088C15.1928 21.5928 15.4334 21.4848 15.75 21.4848C15.9047 21.4848 16.0421 21.5184 16.1624 21.5856C16.2827 21.6528 16.3808 21.7416 16.4618 21.852C16.5428 21.9624 16.6017 22.0872 16.641 22.2312C16.6803 22.3728 16.6999 22.5216 16.6999 22.6704C16.6975 22.8192 16.6827 22.9632 16.6484 23.1024Z" fill="white"/>
<path d="M20.6714 21.5063C20.529 21.3239 20.3523 21.1799 20.1363 21.0695C19.9227 20.9591 19.6797 20.9039 19.4097 20.9039C19.152 20.9039 18.9237 20.9519 18.72 21.0455C18.5163 21.1415 18.342 21.2687 18.1997 21.4319C18.0548 21.5927 17.9444 21.7823 17.8683 21.9959C17.7897 22.2095 17.7529 22.4351 17.7529 22.6727C17.7529 22.9319 17.7897 23.1695 17.8634 23.3855C17.937 23.6015 18.045 23.7863 18.1874 23.9423C18.3322 24.0983 18.5065 24.2183 18.7151 24.3047C18.9237 24.3911 19.1618 24.4343 19.4318 24.4343C19.6184 24.4343 19.7951 24.4103 19.9669 24.3599C20.1363 24.3095 20.2909 24.2375 20.4284 24.1391C20.5658 24.0431 20.6837 23.9231 20.7794 23.7791C20.8776 23.6375 20.9463 23.4743 20.9856 23.2943H20.2688C20.2026 23.4791 20.1019 23.6183 19.9669 23.7119C19.8319 23.8055 19.6527 23.8511 19.4318 23.8511C19.2723 23.8511 19.1348 23.8247 19.0195 23.7695C18.9041 23.7167 18.8084 23.6423 18.7347 23.5535C18.6587 23.4623 18.6022 23.3567 18.5654 23.2367C18.5286 23.1167 18.5089 22.9895 18.5089 22.8599H21.0297C21.0616 22.6103 21.0445 22.3679 20.9806 22.1303C20.9144 21.8975 20.8113 21.6887 20.6714 21.5063ZM18.5065 22.3751C18.5114 22.2503 18.5359 22.1327 18.5826 22.0247C18.6292 21.9167 18.6906 21.8231 18.7691 21.7439C18.8477 21.6647 18.9385 21.6023 19.0489 21.5567C19.1569 21.5111 19.2772 21.4895 19.4097 21.4895C19.5374 21.4895 19.6552 21.5135 19.7583 21.5639C19.8614 21.6143 19.9497 21.6791 20.0234 21.7583C20.097 21.8375 20.1535 21.9311 20.1952 22.0391C20.2369 22.1471 20.2615 22.2599 20.2713 22.3751H18.5065Z" fill="white"/>
<path d="M24.1446 21.1895C23.9286 20.9999 23.6316 20.9039 23.2561 20.9039C23.0303 20.9039 22.8241 20.9567 22.64 21.0623C22.4534 21.1679 22.3037 21.3143 22.1883 21.4991L22.1761 21.4871V20.9951H21.4594V24.3431H22.2154V22.3679C22.2154 22.2479 22.235 22.1327 22.2743 22.0247C22.3135 21.9167 22.37 21.8231 22.4412 21.7439C22.5124 21.6647 22.5983 21.6023 22.6989 21.5567C22.7995 21.5111 22.9149 21.4895 23.045 21.4895C23.2708 21.4895 23.4377 21.5495 23.5433 21.6671C23.6488 21.7847 23.7077 21.9767 23.7151 22.2407V24.3455H24.4711V22.0463C24.4711 21.6647 24.3606 21.3791 24.1446 21.1895Z" fill="white"/>
<path d="M28.2535 22.5336C28.2167 22.8216 28.1111 23.0592 27.9442 23.2392C27.7798 23.4144 27.5466 23.5056 27.2521 23.5056C27.0311 23.5056 26.8446 23.4648 26.6924 23.3808C26.5402 23.2992 26.415 23.1888 26.3193 23.052C26.2236 22.9152 26.1524 22.7568 26.1082 22.5816C26.064 22.4064 26.042 22.224 26.042 22.0392C26.042 21.8448 26.064 21.6552 26.1082 21.4728C26.1524 21.2928 26.2236 21.132 26.3193 20.9904C26.415 20.8512 26.5378 20.7408 26.6924 20.6568C26.8446 20.5752 27.0336 20.532 27.2521 20.532C27.3699 20.532 27.4877 20.5512 27.5957 20.5896C27.7037 20.628 27.8043 20.6808 27.8902 20.7504C27.9761 20.8176 28.0498 20.8992 28.1062 20.988C28.1627 21.0768 28.1995 21.1752 28.2167 21.2832L28.2241 21.3288H29.3237L29.3163 21.2688C29.2844 21 29.2083 20.7576 29.0881 20.5488C28.9678 20.34 28.8132 20.1624 28.6266 20.0208C28.4425 19.8792 28.2314 19.7712 27.9982 19.6968C27.7651 19.6224 27.5147 19.5864 27.2545 19.5864C26.8888 19.5864 26.555 19.6488 26.2678 19.776C25.9806 19.9008 25.7327 20.0784 25.5314 20.2992C25.3326 20.52 25.1779 20.7816 25.0699 21.0792C24.9644 21.3768 24.9104 21.6984 24.9104 22.0368C24.9104 22.368 24.9644 22.6848 25.0699 22.9776C25.1755 23.2704 25.3301 23.5296 25.5314 23.7456C25.7302 23.9616 25.9781 24.1368 26.2678 24.2616C26.555 24.3864 26.8888 24.4512 27.2545 24.4512C27.5466 24.4512 27.8191 24.4056 28.0621 24.3168C28.3075 24.228 28.5235 24.0984 28.7052 23.9328C28.8868 23.7672 29.0365 23.5656 29.147 23.3304C29.2574 23.0976 29.3262 22.8312 29.3532 22.5432L29.3581 22.4856H28.2609L28.2535 22.5336Z" fill="white"/>
<path d="M30.9018 23.3976V19.6968H29.7678V24.3432H33.1674V23.3976H30.9018Z" fill="white"/>
</svg>
