<svg width="105" height="40" viewBox="0 0 105 40" fill="none" xmlns="http://www.w3.org/2000/svg">
<rect width="105" height="40" rx="5" fill="#795548"/>
<path d="M37.5566 10.1201H41.2871V8.6748H42.6543V10.1201H46.4434V11.3896H43.0596C44.1175 13.04 45.3919 14.3031 46.8828 15.1787C46.6029 15.4717 46.2546 15.8883 45.8379 16.4287C44.5391 15.3415 43.4779 14.1045 42.6543 12.7178V15.3643H44.6172V16.5947H42.6543V18.2939H41.2871V16.5947H39.3145V15.4131C38.9368 15.8102 38.5365 16.1878 38.1133 16.5459C37.7552 16.0771 37.4232 15.6735 37.1172 15.335C38.6569 14.29 39.9232 12.9749 40.916 11.3896H37.5566V10.1201ZM39.3584 15.3643H41.2871V12.8105C40.7305 13.735 40.0876 14.5863 39.3584 15.3643ZM56.2871 13.8994H53.6406V15.1006H56.5117V16.3311H53.6406V18.3037H52.2637V11.4678H51.9756C51.5752 12.363 51.1211 13.1442 50.6133 13.8115C50.4245 13.4535 50.1738 13.0303 49.8613 12.542C50.6035 11.4287 51.1829 10.1396 51.5996 8.6748L52.8691 8.97754C52.7454 9.40723 52.6152 9.81738 52.4785 10.208H56.8438V11.4678H53.6406V12.6689H56.2871V13.8994ZM49.0605 8.7334L50.3691 9.11426C50.1608 9.76855 49.9264 10.4033 49.666 11.0186V18.2939H48.3379V13.6211C48.071 14.0573 47.7878 14.4821 47.4883 14.8955C47.4167 14.3942 47.306 13.7887 47.1562 13.0791C47.944 11.8356 48.5788 10.387 49.0605 8.7334ZM58.5039 9.06543H65.5352V12.7959H58.5039V9.06543ZM64.0898 10.2959H59.9492V11.5654H64.0898V10.2959ZM60.3008 17.6787H58.9336V18.1377H57.5859V13.5576H61.6484V18.1377H60.3008V17.6787ZM58.9336 16.4873H60.3008V14.749H58.9336V16.4873ZM63.7188 17.6787V18.1377H62.3711V13.5576H66.4434V18.1377H65.0957V17.6787H63.7188ZM65.0957 16.4873V14.749H63.7188V16.4873H65.0957ZM46.4629 22.6318V23.7842C46.1699 24.4385 45.7598 25.0195 45.2324 25.5273C45.7207 25.7324 46.2708 25.874 46.8828 25.9521C46.7461 26.3493 46.6159 26.7855 46.4922 27.2607C45.6263 27.0752 44.8564 26.766 44.1826 26.333C43.5544 26.7301 42.8203 27.0589 41.9805 27.3193H46.2969V31.3232H45.0859V30.8154H43.0645V31.3428H41.8535V27.3584L41.6875 27.4072C41.5736 27.1208 41.4466 26.8327 41.3066 26.543V30.7178H40.3105V30.0049H38.5137V30.7764H37.5176V22.3975H41.3066V24.3457C42.0488 23.5091 42.5762 22.6025 42.8887 21.626L44.0996 21.8115C44.0117 22.0947 43.9141 22.3682 43.8066 22.6318H46.4629ZM40.3105 23.335H39.8223V25.7275H40.3105V23.335ZM38.5137 25.7275H39.002V23.335H38.5137V25.7275ZM43.2158 23.8525C43.4795 24.2627 43.7969 24.6143 44.168 24.9072C44.5684 24.5752 44.8809 24.1911 45.1055 23.7549H43.2695C43.25 23.7874 43.2321 23.82 43.2158 23.8525ZM42.0293 25.4346C41.8535 25.223 41.6126 24.9674 41.3066 24.668V26.1816C42.026 26.0189 42.6543 25.804 43.1914 25.5371C42.9668 25.3158 42.7568 25.0765 42.5615 24.8193C42.3955 25.0342 42.2181 25.2393 42.0293 25.4346ZM38.5137 29.0674H39.002V26.665H38.5137V29.0674ZM39.8223 29.0674H40.3105V26.665H39.8223V29.0674ZM45.0859 28.4912H43.0645V29.6436H45.0859V28.4912ZM50.2715 31.2744H48.8652V26.9727C48.4323 27.4186 47.9701 27.8369 47.4785 28.2275C47.3743 27.7002 47.2637 27.1924 47.1465 26.7041C48.1133 25.874 48.8994 24.9463 49.5049 23.9209H47.2344V22.7002H50.125C50.2715 22.3519 50.4017 21.9938 50.5156 21.626L52.0586 21.8604C51.9512 22.1468 51.8372 22.4268 51.7168 22.7002H56.7754V23.9209H51.1113C50.9811 24.165 50.8428 24.4027 50.6963 24.6338H55.8477V29.9268C55.8477 30.3337 55.75 30.6462 55.5547 30.8643C55.3594 31.0856 55.0876 31.2126 54.7393 31.2451C54.391 31.2777 53.7122 31.2939 52.7031 31.2939C52.612 30.8512 52.485 30.4053 52.3223 29.9561C52.8822 29.9886 53.403 30.0049 53.8848 30.0049C54.2559 30.0049 54.4414 29.8226 54.4414 29.458V29.292H50.2715V31.2744ZM54.4414 25.7764H50.2715V26.4893H54.4414V25.7764ZM50.2715 28.2471H54.4414V27.5342H50.2715V28.2471ZM57.1953 29.7314L57.166 28.501L58.9727 28.4229V27.5342H57.2344V26.1963C57.4004 25.695 57.5876 24.9788 57.7959 24.0479H57.166V22.8955H58.0449L58.2891 21.6846L59.5293 21.7725L59.2705 22.8955H61.0918V24.0479H58.9971C58.7855 24.9137 58.5853 25.6917 58.3965 26.3818H58.9727V24.6045H60.1445V26.3818H60.9746V27.5342H60.1445V28.374L61.0918 28.335C61.0723 28.7451 61.0658 29.1292 61.0723 29.4873L60.1445 29.5361V31.3232H58.9727V29.6094L57.1953 29.7314ZM66.082 22.124V23.1885C65.7598 23.6898 65.3773 24.1569 64.9346 24.5898C65.5465 24.9056 66.2057 25.262 66.9121 25.6592L66.1406 26.7725C65.4147 26.2809 64.6872 25.8252 63.958 25.4053C63.2419 25.9229 62.4134 26.3753 61.4727 26.7627C61.2448 26.3656 60.9909 25.9717 60.7109 25.5811C62.3516 25.0081 63.6016 24.2529 64.4609 23.3154H61.3066V22.124H66.082ZM60.8672 29.8389H63.1621V28.1104H61.3359V26.9189H66.3945V28.1104H64.5293V29.8389H66.8438V31.0303H60.8672V29.8389ZM73.6797 28.8623C73.6927 29.1357 73.709 29.3831 73.7285 29.6045C73.9987 29.305 74.238 28.9762 74.4463 28.6182C74.1566 27.8597 73.9645 27.0036 73.8701 26.0498C73.7855 26.1898 73.6992 26.3265 73.6113 26.46C73.4876 26.1149 73.3249 25.7536 73.123 25.376C73.1589 25.3141 73.1947 25.249 73.2305 25.1807H69.9346C69.71 25.5518 69.4772 25.9115 69.2363 26.2598V31.3037H68.084V27.7686C67.8919 27.9932 67.6966 28.2113 67.498 28.4229C67.3939 28.0583 67.2409 27.609 67.0391 27.0752C67.7878 26.2419 68.4486 25.3304 69.0215 24.3408L69.7441 24.873V22.7197C69.1289 23.5433 68.4779 24.292 67.791 24.9658C67.5501 24.5817 67.306 24.2171 67.0586 23.8721C67.7617 23.234 68.3997 22.5049 68.9727 21.6846L69.9785 22.3975C69.9297 22.4658 69.8792 22.5342 69.8271 22.6025H70.6914V24.3018H71.082V21.7725H72.0293V24.3018H72.4199V22.6025H73.3672V24.9072C73.7708 24.0576 74.1126 22.9704 74.3926 21.6455L75.5352 21.8896C75.418 22.3812 75.2829 22.8564 75.1299 23.3154H76.8535V24.4775H76.5215C76.4271 26.0856 76.1504 27.4674 75.6914 28.623C76.0072 29.1471 76.3978 29.5817 76.8633 29.9268C76.6159 30.4932 76.4401 30.9521 76.3359 31.3037C75.8411 30.8968 75.4196 30.4199 75.0713 29.873C74.723 30.4395 74.3145 30.9326 73.8457 31.3525C73.7057 30.9814 73.5397 30.6429 73.3477 30.3369C72.9277 30.6266 72.5762 30.887 72.293 31.1182L71.7363 30.3857C71.8861 30.2035 71.9577 30.0049 71.9512 29.79V28.3545H71.082C71.0951 29.6891 70.75 30.6657 70.0469 31.2842C69.8581 31.0173 69.6139 30.7373 69.3145 30.4443C69.513 30.262 69.6709 30.0439 69.7881 29.79C69.9053 29.5361 69.9785 29.2822 70.0078 29.0283C70.0404 28.7744 70.0566 28.2243 70.0566 27.3779H72.9961V29.3701C73.1393 29.2725 73.3672 29.1032 73.6797 28.8623ZM75.0566 27.1729C75.2943 26.3786 75.4277 25.4801 75.457 24.4775H74.6807L74.6611 24.5264C74.6969 25.5225 74.8288 26.4046 75.0566 27.1729ZM69.8223 25.7959H73.2793V26.7627H69.8223V25.7959ZM85.8379 26.7822C85.3366 27.6481 84.6855 28.4066 83.8848 29.0576C84.627 29.3896 85.6198 29.6501 86.8633 29.8389C86.5768 30.3076 86.3001 30.7829 86.0332 31.2646C84.7051 30.9652 83.5755 30.5192 82.6445 29.9268C81.6875 30.4867 80.5547 30.9652 79.2461 31.3623C79.0117 30.9326 78.7643 30.5127 78.5039 30.1025C79.5911 29.7965 80.571 29.4417 81.4434 29.0381C80.9681 28.5954 80.5384 28.0876 80.1543 27.5146C79.3991 28.7191 78.5332 29.7412 77.5566 30.5811C77.4199 29.9691 77.2767 29.4255 77.127 28.9502C78.3965 27.7588 79.3438 26.3753 79.9688 24.7998H77.5176V23.6279C77.6999 23.0941 77.8626 22.5342 78.0059 21.9482L79.3438 22.0947C79.2461 22.4984 79.1126 22.9997 78.9434 23.5986H80.3496C80.4993 23.0452 80.6491 22.4007 80.7988 21.665L82.2148 21.7822L81.8047 23.5986H84.5391C84.1745 23.2406 83.8001 22.8825 83.416 22.5244L84.2754 21.7139C84.8743 22.1761 85.3822 22.596 85.7988 22.9736L85.1836 23.5986H86.834V24.7998H81.4336C81.3359 25.0732 81.222 25.3727 81.0918 25.6982H85.8379V26.7822ZM82.625 28.3545C83.3021 27.8727 83.8294 27.3649 84.207 26.8311H81.2383C81.6029 27.4105 82.0651 27.9183 82.625 28.3545ZM95.0762 27.4854C95.1478 27.6742 95.2194 27.8662 95.291 28.0615H96.7656V29.1162H93.2305C94.1354 29.7152 95.3366 30.0732 96.834 30.1904C96.7038 30.4443 96.5247 30.8317 96.2969 31.3525C94.3112 31.0856 92.8626 30.3923 91.9512 29.2725C91.3001 30.4443 89.8776 31.1572 87.6836 31.4111C87.5534 31.0661 87.3971 30.6722 87.2148 30.2295C88.8099 30.0667 89.8971 29.6956 90.4766 29.1162H87.2539V28.0615H91.1113C91.1764 27.8597 91.2383 27.6383 91.2969 27.3975H88.1914V22.3877H90.5449C90.623 22.0752 90.6816 21.8278 90.7207 21.6455L92.1953 21.7334C92.1172 21.9482 92.0358 22.1663 91.9512 22.3877H95.8184V27.3975H92.6055C92.5534 27.6383 92.498 27.8597 92.4395 28.0615H93.8652C93.7871 27.8857 93.7253 27.749 93.6797 27.6514L95.0762 27.4854ZM94.5391 26.4697V25.9521H89.4707V26.4697H94.5391ZM94.5391 23.3154H89.4707V23.833H94.5391V23.3154ZM89.4707 25.1514H94.5391V24.6338H89.4707V25.1514Z" fill="white"/>
<path d="M87.2598 35.4995H87.5479V35.4565H87.3135V35.3726H87.5479V35.3296H87.291V35.2456H87.5479V35.1675H87.6875V35.2456H87.9619V35.3296H87.6875V35.3726H87.9355V35.4565H87.6875V35.4995H87.9854V35.5835H87.2598V35.4995ZM87.1465 35.1782C87.1914 35.2368 87.2334 35.2964 87.2725 35.3569L87.1582 35.4253C87.1211 35.3589 87.082 35.297 87.041 35.2397L87.1465 35.1782ZM87.29 35.8335C87.2926 35.8921 87.2965 35.9422 87.3018 35.9839C87.234 36.0314 87.18 36.0776 87.1396 36.1226L87.0693 36.0269C87.0869 36.0047 87.0957 35.9774 87.0957 35.9448V35.6284H87.0156V35.5015H87.2188V35.8853C87.2383 35.8716 87.262 35.8543 87.29 35.8335ZM87.4609 36.1265H87.3301V35.6206H87.9131V35.9917C87.9131 36.0321 87.9041 36.063 87.8862 36.0845C87.8683 36.106 87.8428 36.1182 87.8096 36.1211C87.7767 36.124 87.7096 36.1258 87.6084 36.1265C87.6012 36.0965 87.5915 36.062 87.5791 36.0229C87.6618 36.0269 87.7113 36.0288 87.7275 36.0288C87.764 36.0288 87.7822 36.0129 87.7822 35.981V35.9683H87.4609V36.1265ZM87.7822 35.7124H87.4609V35.7593H87.7822V35.7124ZM87.4609 35.8872H87.7822V35.8403H87.4609V35.8872ZM88.1553 35.1743L88.2686 35.1968C88.2529 35.2664 88.2344 35.3351 88.2129 35.4028V36.0283C88.2539 35.9626 88.2747 35.8507 88.2754 35.6929V35.2114H88.8857V35.9604C88.8857 35.9826 88.8903 35.9937 88.8994 35.9937C88.9092 35.9937 88.9155 35.9801 88.9185 35.9531C88.9217 35.9261 88.9242 35.8774 88.9258 35.8071C88.9466 35.8143 88.9668 35.8224 88.9863 35.8315C88.9795 35.9422 88.9741 36.0099 88.9702 36.0347C88.9666 36.0597 88.9575 36.0794 88.9429 36.0938C88.9285 36.1084 88.9092 36.1157 88.8848 36.1157H88.8662C88.805 36.1157 88.7744 36.0741 88.7744 35.9907V35.3364H88.3848V35.729C88.3848 35.9015 88.3555 36.0356 88.2969 36.1313C88.2747 36.1001 88.2467 36.0666 88.2129 36.0308V36.1284H88.1016V35.6841C88.084 35.7212 88.0654 35.758 88.0459 35.7944L88.0146 35.6108C88.0804 35.4689 88.1273 35.3234 88.1553 35.1743ZM88.4912 36.0112H88.418V35.561H88.5283V35.4878H88.416V35.3843H88.7432V35.4878H88.6299V35.561H88.7412V35.9204C88.7412 35.9419 88.7363 35.9608 88.7266 35.9771C88.7171 35.993 88.6849 36.001 88.6299 36.001V36.1284H88.5283V35.6685H88.4912V36.0112ZM88.6299 35.9087C88.6553 35.9106 88.668 35.9006 88.668 35.8784V35.6685H88.6299V35.9087ZM89.0244 35.8979H89.1611V35.8501H89.0498V35.7739H89.1611V35.73H89.0625V35.4819H89.5703V35.73H89.4707V35.7739H89.5791V35.8501H89.4707V35.8979H89.5732C89.6025 35.8726 89.6299 35.8465 89.6553 35.8198C89.638 35.7248 89.6266 35.6004 89.6211 35.4468H89.0176V35.3608H89.2588V35.3179H89.0615V35.2358H89.2588V35.1704H89.3818V35.2358H89.5488V35.3179H89.3818V35.3608H89.6187C89.6174 35.3016 89.6169 35.2384 89.6172 35.1714H89.7334C89.7327 35.2388 89.7329 35.3019 89.7339 35.3608H89.8613C89.8216 35.3136 89.7845 35.2752 89.75 35.2456L89.835 35.1753C89.8825 35.2163 89.9245 35.256 89.9609 35.2944L89.8828 35.3608H89.9824V35.4468H89.7363C89.7399 35.5422 89.7461 35.6255 89.7549 35.6968C89.7998 35.631 89.8346 35.5617 89.8594 35.4888L89.9658 35.5366C89.9176 35.6564 89.8571 35.7624 89.7842 35.8545C89.8057 35.9303 89.8262 35.9679 89.8457 35.9673C89.8522 35.9663 89.8574 35.9634 89.8613 35.9585C89.8656 35.9533 89.8695 35.9372 89.873 35.9102C89.877 35.8831 89.8796 35.8507 89.8809 35.813C89.9121 35.8332 89.9479 35.8514 89.9883 35.8677C89.9762 35.9751 89.9601 36.0438 89.9399 36.0737C89.9201 36.104 89.8932 36.1209 89.8594 36.1245C89.7881 36.1196 89.7321 36.064 89.6914 35.9575C89.6676 35.981 89.6429 36.0031 89.6172 36.0239C89.6045 36.0076 89.591 35.991 89.5767 35.9741H89.4272C89.4933 36.0008 89.5475 36.0246 89.5898 36.0454L89.5371 36.1343C89.4844 36.105 89.4199 36.0728 89.3438 36.0376L89.3848 35.9741H89.2437L89.2861 36.0386C89.2145 36.075 89.1426 36.1076 89.0703 36.1362C89.0592 36.1082 89.0443 36.0789 89.0254 36.0483C89.0859 36.0265 89.1455 36.0018 89.2041 35.9741H89.0244V35.8979ZM89.4766 35.5425H89.3604V35.5796H89.4766V35.5425ZM89.1562 35.5796H89.2725V35.5425H89.1562V35.5796ZM89.4766 35.6694V35.6323H89.3604V35.6694H89.4766ZM89.1562 35.6694H89.2725V35.6323H89.1562V35.6694ZM89.2588 35.7739H89.373V35.73H89.2588V35.7739ZM89.2588 35.8979H89.373V35.8501H89.2588V35.8979ZM90.6348 36.1157C90.6243 36.0623 90.6136 36.0148 90.6025 35.9731C90.6494 35.9754 90.6825 35.9766 90.7017 35.9766C90.7313 35.9766 90.7523 35.972 90.7646 35.9629C90.7773 35.9538 90.7848 35.9333 90.7871 35.9014C90.7897 35.8691 90.792 35.7935 90.7939 35.6743H90.6099C90.6014 35.799 90.5811 35.8957 90.5488 35.9644C90.5166 36.0327 90.4792 36.09 90.4365 36.1362C90.3968 36.1017 90.3561 36.0731 90.3145 36.0503C90.3551 36.007 90.3887 35.959 90.415 35.9062C90.4414 35.8532 90.4588 35.7965 90.4673 35.7363C90.4757 35.6758 90.4805 35.5763 90.4814 35.438H90.3936V35.3081H90.6089C90.5972 35.2697 90.5846 35.2306 90.5713 35.1909L90.7148 35.1655C90.7298 35.2199 90.7424 35.2674 90.7524 35.3081H90.9805V35.438H90.6187C90.6187 35.4751 90.6182 35.5103 90.6172 35.5435H90.9365L90.9287 35.8066C90.9261 35.8932 90.922 35.953 90.9165 35.9858C90.9113 36.0184 90.9014 36.0439 90.8867 36.0625C90.8724 36.0814 90.8509 36.0949 90.8223 36.103C90.7936 36.1115 90.7311 36.1157 90.6348 36.1157ZM90.3105 35.5679C90.3665 35.6447 90.3945 35.7218 90.3945 35.7993C90.3945 35.8498 90.381 35.8896 90.354 35.9189C90.3273 35.9479 90.2725 35.9624 90.1895 35.9624C90.1859 35.9276 90.18 35.8919 90.1719 35.8555V36.1294H90.0518V35.2124H90.3848V35.3247C90.3581 35.4165 90.3333 35.4976 90.3105 35.5679ZM90.1885 35.5747C90.2145 35.4894 90.2373 35.4061 90.2568 35.3247H90.1719V35.8281C90.1868 35.8304 90.2005 35.8315 90.2129 35.8315C90.2526 35.8315 90.2725 35.811 90.2725 35.77C90.2725 35.7153 90.2445 35.6502 90.1885 35.5747ZM91.0449 35.481H91.4346V35.439H91.1367V35.353H91.4346V35.311H91.084V35.2231H91.4346V35.1636H91.5674V35.2231H91.916V35.311H91.5674V35.353H91.8652V35.439H91.5674V35.481H91.957V35.5688H91.0449V35.481ZM91.0137 35.769H91.1318L91.1484 35.6108H91.8594L91.856 35.769H91.9844V35.8589H91.854L91.8516 35.9302H91.9297V36.0181H91.8467C91.8431 36.0542 91.8306 36.0814 91.8091 36.0996C91.7876 36.1178 91.7588 36.1278 91.7227 36.1294C91.6865 36.1313 91.6279 36.1323 91.5469 36.1323C91.5404 36.103 91.5326 36.0741 91.5234 36.0454C91.5775 36.048 91.6243 36.0493 91.6641 36.0493C91.6924 36.0493 91.7098 36.0389 91.7163 36.0181H91.1055L91.1221 35.8589H91.0137V35.769ZM91.7285 35.6987H91.5181L91.584 35.7388L91.5532 35.769H91.728C91.728 35.7466 91.7282 35.7231 91.7285 35.6987ZM91.3809 35.7261L91.4087 35.6987H91.2734L91.2651 35.769H91.4453C91.4235 35.7541 91.402 35.7397 91.3809 35.7261ZM91.7261 35.8589H91.5122L91.584 35.9028L91.5562 35.9302H91.7231L91.7261 35.8589ZM91.3809 35.8901L91.4126 35.8589H91.2549L91.2471 35.9302H91.4409L91.3809 35.8901ZM92.0283 35.2192H92.9707V35.3286H92.5552C92.5392 35.3647 92.5244 35.397 92.5107 35.4253H92.9189V36.1294H92.7939V36.0786H92.2061V36.1294H92.0811V35.4253H92.355C92.367 35.395 92.3789 35.3628 92.3906 35.3286H92.0283V35.2192ZM92.7939 35.5337H92.7031V35.9702H92.7939V35.5337ZM92.2061 35.9702H92.292V35.5337H92.2061V35.9702ZM92.415 35.6128H92.5801V35.5337H92.415V35.6128ZM92.415 35.7905H92.5801V35.7114H92.415V35.7905ZM92.415 35.9702H92.5801V35.8892H92.415V35.9702ZM93.0176 35.8042H93.1201V35.2017H93.8828V35.8042H93.9834V35.9185H93.6519C93.7371 35.9409 93.8392 35.9718 93.958 36.0112L93.8975 36.1294C93.7939 36.091 93.6829 36.0526 93.5645 36.0142L93.6167 35.9185H93.3691L93.4258 36.0132L93.1113 36.1353C93.0911 36.0994 93.0674 36.0591 93.04 36.0142C93.1338 35.9865 93.228 35.9546 93.3228 35.9185H93.0176V35.8042ZM93.7471 35.3159H93.2559V35.3735H93.7471V35.3159ZM93.2559 35.5171H93.7471V35.4595H93.2559V35.5171ZM93.2559 35.6606H93.7471V35.603H93.2559V35.6606ZM93.2559 35.8042H93.7471V35.7466H93.2559V35.8042ZM94.8535 35.6851V35.7104H94.9873V35.8276H94.8535V35.9897C94.8535 36.034 94.846 36.0654 94.8311 36.084C94.8161 36.1029 94.7961 36.1149 94.771 36.1201C94.7459 36.1257 94.696 36.1284 94.6211 36.1284C94.6159 36.092 94.6077 36.05 94.5967 36.0024C94.6344 36.005 94.6637 36.0063 94.6846 36.0063C94.7158 36.0063 94.7314 35.9897 94.7314 35.9565V35.8276H94.5898V35.7104H94.7314V35.6577L94.7939 35.5767H94.6172V35.5078C94.61 35.4948 94.5981 35.4764 94.5815 35.4526H94.3994L94.3984 35.5571H94.5742C94.5716 35.7983 94.5674 35.9442 94.5615 35.9946C94.5557 36.0451 94.5409 36.0796 94.5171 36.0981C94.4937 36.117 94.4469 36.1265 94.377 36.1265C94.3678 36.0757 94.3587 36.0311 94.3496 35.9927C94.3776 35.9953 94.3984 35.9966 94.4121 35.9966C94.4336 35.9966 94.4465 35.9871 94.4507 35.9683C94.4552 35.9491 94.4587 35.8514 94.4609 35.6753H94.3965C94.3903 35.8752 94.349 36.0317 94.2725 36.145C94.251 36.0851 94.2292 36.0347 94.207 35.9937C94.2295 35.9556 94.2464 35.9141 94.2578 35.8691C94.2692 35.8242 94.2769 35.7786 94.2808 35.7324C94.285 35.6859 94.2874 35.5926 94.2881 35.4526H94.2295V35.3257H94.3667C94.3517 35.2905 94.332 35.2521 94.3076 35.2104L94.4219 35.1646C94.457 35.2251 94.4811 35.2713 94.4941 35.3032L94.4438 35.3257H94.5918C94.6169 35.2765 94.6387 35.2228 94.6572 35.1646L94.7832 35.189C94.7734 35.2189 94.7629 35.2479 94.7515 35.2759H94.9854V35.3931H94.6973C94.6839 35.4188 94.6698 35.4432 94.6548 35.4663H94.9482V35.5747L94.8535 35.6851ZM94.1084 35.1714C94.1566 35.2085 94.2041 35.2463 94.251 35.2847L94.1592 35.3843C94.1182 35.342 94.0752 35.3016 94.0303 35.2632L94.1084 35.1714ZM94.0811 35.4399C94.1331 35.479 94.1833 35.5197 94.2314 35.562L94.1396 35.6646C94.0889 35.6105 94.0436 35.5653 94.0039 35.5288L94.0811 35.4399ZM94.0996 35.7144C94.1419 35.7319 94.1826 35.7472 94.2217 35.7603L94.1348 36.1294C94.0918 36.1144 94.0508 36.1011 94.0117 36.0894C94.0423 35.9819 94.0716 35.8569 94.0996 35.7144ZM95.4219 35.2183H95.916V35.3472H95.4219V35.2183ZM95.041 36.0181L95.0137 35.8872C95.0537 35.8797 95.0918 35.8721 95.1279 35.8643V35.6392H95.041V35.5229H95.1279V35.3384H95.0312V35.2202H95.3535V35.3384H95.2549V35.5229H95.3467V35.6392H95.2549V35.8354C95.2936 35.826 95.3294 35.8166 95.3623 35.8071C95.3597 35.8534 95.3594 35.895 95.3613 35.9321C95.2637 35.9562 95.1569 35.9849 95.041 36.0181ZM95.373 35.4917H95.9648V35.6206H95.8076V35.939C95.8076 35.9689 95.8184 35.9839 95.8398 35.9839C95.8516 35.9839 95.8604 35.9787 95.8662 35.9683C95.8724 35.9578 95.8779 35.9045 95.8828 35.8081C95.9264 35.825 95.9603 35.8368 95.9844 35.8433C95.973 35.9728 95.9557 36.0495 95.9326 36.0732C95.9095 36.097 95.8815 36.1089 95.8486 36.1089H95.7954C95.7189 36.1089 95.6807 36.0669 95.6807 35.9829V35.6206H95.5952C95.6001 35.8716 95.5225 36.0435 95.3623 36.1362C95.3343 36.0952 95.3037 36.0581 95.2705 36.0249C95.4076 35.9504 95.4744 35.8156 95.4712 35.6206H95.373V35.4917ZM96.812 36.1699C96.6932 36.0374 96.6338 35.8828 96.6338 35.7061C96.6338 35.5254 96.6935 35.3714 96.813 35.2441H96.9429C96.827 35.3831 96.769 35.5368 96.769 35.7051C96.769 35.874 96.8267 36.029 96.9419 36.1699H96.812ZM97.8789 35.2368V35.3413L97.8169 35.4194H97.9512V35.979C97.9512 36.0138 97.9458 36.042 97.9351 36.0635C97.9246 36.0853 97.91 36.0998 97.8911 36.1069C97.8726 36.1144 97.8327 36.1187 97.7715 36.1196C97.7637 36.0747 97.7536 36.0321 97.7412 35.9917C97.7712 35.9956 97.7915 35.9976 97.8022 35.9976C97.8273 35.9976 97.8398 35.9839 97.8398 35.9565V35.896H97.7285V36.1069H97.6191V35.896H97.5078C97.4977 35.9982 97.4749 36.0786 97.4395 36.1372C97.4082 36.1066 97.3743 36.0793 97.3379 36.0552C97.3828 35.9849 97.4043 35.8726 97.4023 35.7183V35.5103L97.3789 35.5298C97.36 35.4914 97.3382 35.4549 97.3135 35.4204C97.4072 35.3488 97.4814 35.2632 97.5361 35.1636L97.6621 35.188C97.6536 35.2046 97.6445 35.2209 97.6348 35.2368H97.8789ZM97.4971 35.4194H97.6777L97.7393 35.3394H97.5654C97.5443 35.3667 97.5215 35.3934 97.4971 35.4194ZM97.8398 35.5229H97.7285V35.6216H97.8398V35.5229ZM97.5137 35.6216H97.6191V35.5229H97.5137V35.6216ZM97.7285 35.8081H97.8398V35.7095H97.7285V35.8081ZM97.5132 35.8081H97.6191V35.7095H97.5137C97.5137 35.7433 97.5135 35.7762 97.5132 35.8081ZM97.377 35.3452H97.2588C97.2454 35.3999 97.2293 35.4526 97.2104 35.5034H97.3486V36.0181H97.1963V36.0796H97.0879V35.7549C97.0778 35.7708 97.0674 35.7866 97.0566 35.8022C97.0443 35.7469 97.0273 35.6968 97.0059 35.6519C97.0658 35.5627 97.1089 35.4604 97.1353 35.3452H97.0391V35.2358H97.377V35.3452ZM97.2402 35.9116V35.6099H97.1963V35.9116H97.2402ZM98.9824 35.3921H98.2998V35.2808H98.5615C98.5498 35.2524 98.5365 35.2225 98.5215 35.1909L98.667 35.1646C98.6829 35.1945 98.7008 35.2332 98.7207 35.2808H98.9824V35.3921ZM98.1836 35.1714L98.3125 35.2056C98.2881 35.2837 98.263 35.3568 98.2373 35.4248V36.1313H98.1133V35.7002C98.0902 35.7425 98.0667 35.7814 98.043 35.8169C98.0358 35.7648 98.0254 35.7036 98.0117 35.6333C98.0716 35.5213 98.1289 35.3674 98.1836 35.1714ZM98.9258 35.5503H98.3398V35.4458H98.9258V35.5503ZM98.9258 35.7046H98.3398V35.6001H98.9258V35.7046ZM98.3379 36.1313V35.7563H98.9258V36.1313H98.792V36.0806H98.4717V36.1313H98.3379ZM98.792 35.8716H98.4717V35.9653H98.792V35.8716ZM99.186 36.1699H99.0562C99.172 36.0319 99.23 35.8783 99.23 35.709C99.23 35.5407 99.1724 35.3857 99.0571 35.2441H99.187C99.3058 35.376 99.3652 35.5309 99.3652 35.709C99.3652 35.89 99.3055 36.0436 99.186 36.1699Z" fill="white"/>
<path d="M20.5389 10.0487C16.5959 10.3407 14.8086 12.7272 12.0389 15.5487C10.1784 17.4439 8.30447 18.4061 8.03887 21.0487C7.81032 23.3227 8.60406 24.7697 10.0389 26.5487C11.3648 28.1927 12.5103 28.9607 14.5389 29.5487C16.4143 30.0923 17.6061 29.8261 19.5389 29.5487C21.5568 29.259 22.7183 28.9659 24.5389 28.0487M20.5389 10.0487C23.3742 9.83868 25.3186 10.2729 27.5389 12.0487C29.7903 13.8494 30.7761 15.6777 31.0389 18.5487C31.1824 20.1164 31.0833 21.0716 30.5389 22.5487C29.4395 25.5311 27.3776 26.6185 24.5389 28.0487M20.5389 10.0487C24.5 11.5 28 14 28 19.5C28 25 24.5389 28.0487 24.5389 28.0487M12.0389 19.0783C11.4474 19.5701 11.0389 20.0487 11.0389 20.0487C12.0194 21.6104 12.806 22.2467 14.5389 23.0487C14.5389 23.0487 14.9544 22.8626 15.4467 22.5487M12.0389 19.0783C13.2897 20.1521 14.0058 20.8075 15.4467 22.5487M12.0389 19.0783C12.4706 18.7193 12.9999 18.3532 13.5389 18.1611M15.4467 22.5487C15.9245 22.2439 16.4746 21.8186 16.7871 21.3259M13.5389 18.1611C13.8755 18.041 14.216 17.9889 14.5389 18.0487C15.8965 18.3001 17.0389 19.1679 17.0389 20.5487C17.0389 20.82 16.9423 21.0813 16.7871 21.3259M13.5389 18.1611C14.9872 19.3348 15.709 20.0237 16.7871 21.3259M16.5389 13.0486C18.1189 14.9352 18.7345 15.5843 19.0389 15.5486M21.5389 18.1611C21.6994 18.4974 22.5736 19.2592 24.0389 20.5487M25.5389 19.0783C24.0373 17.6794 23.5331 16.5883 21.5389 17.0486M18.5389 12.0486C19.9116 13.3729 20.4192 14.1349 20.5389 15.5486" stroke="white" stroke-linecap="round" stroke-linejoin="round"/>
</svg>
