<svg width="105" height="40" viewBox="0 0 105 40" fill="none" xmlns="http://www.w3.org/2000/svg">
<rect width="105" height="40" rx="5" fill="#FFAB19"/>
<path d="M37.5566 10.1201H41.2871V8.6748H42.6543V10.1201H46.4434V11.3896H43.0596C44.1175 13.04 45.3919 14.3031 46.8828 15.1787C46.6029 15.4717 46.2546 15.8883 45.8379 16.4287C44.5391 15.3415 43.4779 14.1045 42.6543 12.7178V15.3643H44.6172V16.5947H42.6543V18.2939H41.2871V16.5947H39.3145V15.4131C38.9368 15.8102 38.5365 16.1878 38.1133 16.5459C37.7552 16.0771 37.4232 15.6735 37.1172 15.335C38.6569 14.29 39.9232 12.9749 40.916 11.3896H37.5566V10.1201ZM39.3584 15.3643H41.2871V12.8105C40.7305 13.735 40.0876 14.5863 39.3584 15.3643ZM56.2871 13.8994H53.6406V15.1006H56.5117V16.3311H53.6406V18.3037H52.2637V11.4678H51.9756C51.5752 12.363 51.1211 13.1442 50.6133 13.8115C50.4245 13.4535 50.1738 13.0303 49.8613 12.542C50.6035 11.4287 51.1829 10.1396 51.5996 8.6748L52.8691 8.97754C52.7454 9.40723 52.6152 9.81738 52.4785 10.208H56.8438V11.4678H53.6406V12.6689H56.2871V13.8994ZM49.0605 8.7334L50.3691 9.11426C50.1608 9.76855 49.9264 10.4033 49.666 11.0186V18.2939H48.3379V13.6211C48.071 14.0573 47.7878 14.4821 47.4883 14.8955C47.4167 14.3942 47.306 13.7887 47.1562 13.0791C47.944 11.8356 48.5788 10.387 49.0605 8.7334ZM58.5039 9.06543H65.5352V12.7959H58.5039V9.06543ZM64.0898 10.2959H59.9492V11.5654H64.0898V10.2959ZM60.3008 17.6787H58.9336V18.1377H57.5859V13.5576H61.6484V18.1377H60.3008V17.6787ZM58.9336 16.4873H60.3008V14.749H58.9336V16.4873ZM63.7188 17.6787V18.1377H62.3711V13.5576H66.4434V18.1377H65.0957V17.6787H63.7188ZM65.0957 16.4873V14.749H63.7188V16.4873H65.0957ZM38.3086 21.9775H45.7012V26.0596H38.3086V21.9775ZM44.3438 23.0615H39.666V23.5889H44.3438V23.0615ZM44.3438 24.9756V24.4482H39.666V24.9756H44.3438ZM38.2793 31.3525C37.9408 31.0921 37.5697 30.8252 37.166 30.5518C37.8952 29.8551 38.4535 28.8883 38.8408 27.6514H37.1855V26.5283H46.834V27.6514H42.7617V28.2471H46.082V29.3115H42.7617V29.9316C43.1882 29.9414 43.7122 29.9463 44.334 29.9463C45.0436 29.9463 45.8835 29.9398 46.8535 29.9268C46.6908 30.3499 46.5638 30.734 46.4727 31.0791C45.9974 31.0889 45.1641 31.0856 43.9727 31.0693L42.5469 31.0498C41.0495 31.0498 39.9622 30.6982 39.2852 29.9951C38.9857 30.529 38.6504 30.9814 38.2793 31.3525ZM41.4434 29.8242V27.6514H38.8652L40.0957 28.1104C40.0013 28.4001 39.9004 28.6751 39.793 28.9355C40.2161 29.3815 40.7663 29.6777 41.4434 29.8242ZM51.2383 21.665L52.498 21.9971C52.332 22.5114 52.1497 23.0029 51.9512 23.4717H53.9434C53.7415 23.0745 53.5007 22.6481 53.2207 22.1924L54.2656 21.6357C54.5521 22.0394 54.8581 22.5146 55.1836 23.0615L54.3389 23.4717H56.6484V24.5264H54.7148V25.542H56.5703V26.5479H54.7148V27.5635H56.5703V28.5693H54.7148V29.585H56.7656V30.6201H51.8438V31.3135H50.5645V25.9863C50.3952 26.2207 50.2194 26.4469 50.0371 26.665C49.8418 26.1702 49.64 25.7406 49.4316 25.376C50.1868 24.4775 50.7891 23.2406 51.2383 21.665ZM51.8438 25.542H53.416V24.5264H51.8438V25.542ZM51.8438 27.5635H53.416V26.5479H51.8438V27.5635ZM51.8438 29.585H53.416V28.5693H51.8438V29.585ZM48.4648 21.7822C48.9141 22.3682 49.334 22.9639 49.7246 23.5693C49.3991 23.7581 49.0182 23.986 48.582 24.2529C48.2109 23.5889 47.8203 22.9704 47.4102 22.3975L48.4648 21.7822ZM50.0859 28.1494C50.0794 28.6247 50.1185 29.139 50.2031 29.6924C49.4674 30.2458 48.875 30.7568 48.4258 31.2256L47.7227 30.2686C47.9049 30.0798 47.9961 29.8063 47.9961 29.4482V26.1768H47.1562V24.917H49.2949V28.8525C49.5879 28.6117 49.8516 28.3773 50.0859 28.1494ZM57.1855 25.9033H59.4512V23.5107H57.7227V22.2412H66.4434V23.5107H64.8711V25.9033H66.8535V27.1729H64.8711V31.1768H63.4551V27.1729H60.8379C60.7728 28.3577 60.5498 29.248 60.1689 29.8438C59.7913 30.4362 59.2135 30.9456 58.4355 31.3721C58.071 31.0531 57.6608 30.721 57.2051 30.376C57.8073 30.0537 58.307 29.668 58.7041 29.2188C59.1045 28.7695 59.3356 28.0876 59.3975 27.1729H57.1855V25.9033ZM60.8672 25.9033H63.4551V23.5107H60.8672V25.9033ZM75.8379 26.7822C75.3366 27.6481 74.6855 28.4066 73.8848 29.0576C74.627 29.3896 75.6198 29.6501 76.8633 29.8389C76.5768 30.3076 76.3001 30.7829 76.0332 31.2646C74.7051 30.9652 73.5755 30.5192 72.6445 29.9268C71.6875 30.4867 70.5547 30.9652 69.2461 31.3623C69.0117 30.9326 68.7643 30.5127 68.5039 30.1025C69.5911 29.7965 70.571 29.4417 71.4434 29.0381C70.9681 28.5954 70.5384 28.0876 70.1543 27.5146C69.3991 28.7191 68.5332 29.7412 67.5566 30.5811C67.4199 29.9691 67.2767 29.4255 67.127 28.9502C68.3965 27.7588 69.3438 26.3753 69.9688 24.7998H67.5176V23.6279C67.6999 23.0941 67.8626 22.5342 68.0059 21.9482L69.3438 22.0947C69.2461 22.4984 69.1126 22.9997 68.9434 23.5986H70.3496C70.4993 23.0452 70.6491 22.4007 70.7988 21.665L72.2148 21.7822L71.8047 23.5986H74.5391C74.1745 23.2406 73.8001 22.8825 73.416 22.5244L74.2754 21.7139C74.8743 22.1761 75.3822 22.596 75.7988 22.9736L75.1836 23.5986H76.834V24.7998H71.4336C71.3359 25.0732 71.222 25.3727 71.0918 25.6982H75.8379V26.7822ZM72.625 28.3545C73.3021 27.8727 73.8294 27.3649 74.207 26.8311H71.2383C71.6029 27.4105 72.0651 27.9183 72.625 28.3545ZM78.9531 21.7139L80.4082 21.9385L79.9688 23.2666H81.6289V25.1709C82.153 24.292 82.6543 23.1331 83.1328 21.6943L84.4805 22.0459C84.3372 22.4788 84.1842 22.902 84.0215 23.3154H86.541L86.4287 28.9355C86.4124 29.541 86.362 29.9642 86.2773 30.2051C86.1927 30.4492 86.0609 30.6478 85.8818 30.8008C85.7028 30.9538 85.4521 31.0579 85.1299 31.1133C84.8109 31.1686 84.1126 31.1963 83.0352 31.1963C82.9375 30.6234 82.8138 30.1318 82.6641 29.7217C83.1458 29.7607 83.6585 29.7803 84.2021 29.7803C84.3584 29.7803 84.4935 29.7624 84.6074 29.7266C84.7214 29.6908 84.8141 29.637 84.8857 29.5654C84.9606 29.4906 85.0111 29.4076 85.0371 29.3164C85.0632 29.2253 85.0843 28.8249 85.1006 28.1152L85.1445 26.1182C85.1576 25.4964 85.1641 24.9919 85.1641 24.6045H83.4648C83.25 25.0602 83.0221 25.5029 82.7812 25.9326C82.472 25.7308 82.0879 25.5306 81.6289 25.332V31.1475H80.2715V30.4443H78.8848V31.2061H77.5273V23.2666H78.5576C78.7464 22.6286 78.8783 22.111 78.9531 21.7139ZM80.2715 24.5459H78.8848V26.2158H80.2715V24.5459ZM78.8848 29.165H80.2715V27.4951H78.8848V29.165ZM83.1621 25.7764C83.6309 26.3363 84.1354 27.0166 84.6758 27.8174L83.4453 28.6377C82.9505 27.8239 82.4785 27.1305 82.0293 26.5576L83.1621 25.7764ZM89.8613 27.7881H88.5723V27.3291C88.5723 26.9808 88.6357 26.6846 88.7627 26.4404C88.8896 26.193 89.1029 25.9456 89.4023 25.6982C89.7474 25.415 89.9769 25.1839 90.0908 25.0049C90.2048 24.8226 90.2617 24.6273 90.2617 24.4189C90.2617 24.1781 90.1771 23.986 90.0078 23.8428C89.8385 23.6995 89.596 23.6279 89.2803 23.6279C88.6683 23.6279 88.0986 23.8558 87.5713 24.3115V22.8076C88.154 22.4821 88.7773 22.3193 89.4414 22.3193C90.1868 22.3193 90.7663 22.4902 91.1797 22.832C91.5931 23.1738 91.7998 23.6361 91.7998 24.2188C91.7998 24.5931 91.7152 24.9382 91.5459 25.2539C91.3766 25.5697 91.0853 25.8952 90.6719 26.2305C90.3236 26.5072 90.1006 26.7253 90.0029 26.8848C89.9085 27.041 89.8613 27.2298 89.8613 27.4512V27.7881ZM89.2217 28.501C89.4691 28.501 89.6807 28.5807 89.8564 28.7402C90.0322 28.8997 90.1201 29.0934 90.1201 29.3213C90.1201 29.5426 90.0322 29.7331 89.8564 29.8926C89.6807 30.0521 89.4691 30.1318 89.2217 30.1318C88.971 30.1318 88.7594 30.0521 88.5869 29.8926C88.4144 29.7298 88.3281 29.5394 88.3281 29.3213C88.3281 29.0967 88.4144 28.9046 88.5869 28.7451C88.7594 28.5824 88.971 28.501 89.2217 28.501Z" fill="white"/>
<path d="M96.6621 35.8716C96.696 35.8683 96.7298 35.8651 96.7637 35.8618C96.752 35.8442 96.7399 35.8263 96.7275 35.8081L96.793 35.7681C96.8255 35.8123 96.8558 35.856 96.8838 35.8989C96.8857 35.8826 96.888 35.8641 96.8906 35.8433C96.9238 35.8563 96.9577 35.8683 96.9922 35.8794C96.9811 35.953 96.9694 36.0073 96.957 36.0425C96.9401 36.092 96.8981 36.1167 96.8311 36.1167H96.5742C96.4844 36.1167 96.4395 36.0688 96.4395 35.9731V35.8569C96.375 35.9585 96.2624 36.0516 96.1016 36.1362C96.0723 36.0933 96.0433 36.0552 96.0146 36.022C96.1924 35.9412 96.3073 35.8498 96.3594 35.7476H96.2285V35.8042H96.1016V35.2612H96.3711C96.3815 35.2267 96.3903 35.1938 96.3975 35.1626L96.543 35.1802C96.5326 35.2075 96.5215 35.2345 96.5098 35.2612H96.875V35.7476H96.7441C96.7168 35.7925 96.6895 35.8338 96.6621 35.8716ZM96.4775 35.7905H96.5615V35.9321C96.5576 35.9816 96.5817 36.0054 96.6338 36.0034H96.7988C96.8424 36.0034 96.8678 35.9862 96.875 35.9517C96.8757 35.9471 96.8766 35.9422 96.8779 35.937L96.8271 35.9692C96.82 35.9562 96.8125 35.9432 96.8047 35.9302C96.709 35.938 96.638 35.9451 96.5918 35.9517L96.5625 35.8745C96.5853 35.8608 96.6149 35.8185 96.6514 35.7476H96.4971C96.4912 35.7625 96.4847 35.7769 96.4775 35.7905ZM96.5312 35.6382H96.748V35.5562H96.5439C96.5413 35.5848 96.5371 35.6121 96.5312 35.6382ZM96.5508 35.4526H96.748V35.3706H96.5527C96.5521 35.3979 96.5514 35.4253 96.5508 35.4526ZM96.4229 35.3706H96.2285V35.4526H96.4209C96.4222 35.4272 96.4229 35.3999 96.4229 35.3706ZM96.2285 35.6382H96.4023C96.4089 35.6121 96.4134 35.5848 96.416 35.5562H96.2285V35.6382ZM97.0215 35.5757H97.2148C97.2155 35.5669 97.2158 35.5138 97.2158 35.4165H97.1763C97.1522 35.4709 97.1253 35.5203 97.0957 35.5649C97.0664 35.5265 97.0371 35.4904 97.0078 35.4565C97.0612 35.3739 97.1006 35.2765 97.126 35.1646L97.2559 35.187C97.2461 35.2244 97.2354 35.2603 97.2236 35.2944H97.4746V35.4165H97.3467V35.5757H97.5V35.6978H97.3364C97.3338 35.715 97.3306 35.7318 97.3267 35.748C97.3931 35.8128 97.4577 35.8804 97.5205 35.9507L97.415 36.0464C97.3714 35.9884 97.3273 35.9333 97.2827 35.8809C97.2397 35.9772 97.1751 36.062 97.0889 36.1353C97.0589 36.0851 97.0312 36.0438 97.0059 36.0112C97.1081 35.9328 97.173 35.8283 97.2007 35.6978H97.0215V35.5757ZM97.5244 36.1138V35.2495H97.9453V36.1079H97.8115V36.0259H97.6582V36.1138H97.5244ZM97.8115 35.3774H97.6582V35.8979H97.8115V35.3774ZM98.3223 35.4272H98.5234L98.5356 35.3726H98.2852V35.269H98.4263L98.3711 35.189L98.4971 35.1597L98.5576 35.269H98.6655C98.6854 35.2316 98.7028 35.1955 98.7178 35.1606L98.8545 35.187C98.8372 35.2118 98.8175 35.2391 98.7954 35.269H98.9551V35.3726H98.6694L98.6533 35.4272H98.916V35.9351H98.3223V35.4272ZM98.7969 35.522H98.4414V35.5757H98.7969V35.522ZM98.4414 35.7075H98.7969V35.6538H98.4414V35.7075ZM98.7969 35.8403V35.7856H98.4414V35.8403H98.7969ZM98.1328 35.1685C98.1927 35.2427 98.2383 35.3022 98.2695 35.3472C98.2233 35.3765 98.1846 35.4019 98.1533 35.4233C98.109 35.3517 98.0674 35.2899 98.0283 35.2378L98.1328 35.1685ZM98.9863 35.9858L98.9385 36.1157C98.8184 36.1157 98.7067 36.1151 98.6035 36.1138L98.3906 36.1099C98.3519 36.1089 98.3136 36.1007 98.2759 36.0854C98.2381 36.0701 98.2054 36.047 98.1777 36.0161L98.0713 36.1382L98.0156 35.9868L98.1084 35.9072V35.6392H98.0215V35.5103H98.2305V35.9102C98.2702 35.9652 98.3421 35.9927 98.4463 35.9927C98.6686 35.9927 98.8486 35.9904 98.9863 35.9858ZM99.3867 35.2085H99.9473V35.5454H99.5146V35.646C99.5146 35.8563 99.4704 36.0194 99.3818 36.1353C99.3617 36.1131 99.3278 36.0796 99.2803 36.0347C99.3512 35.9416 99.3867 35.8088 99.3867 35.6362V35.2085ZM99.8223 35.4282V35.3257H99.5146V35.4282H99.8223ZM99.9756 35.7085C99.8773 35.7697 99.7842 35.8241 99.6963 35.8716V35.9478C99.6963 35.9862 99.7155 36.0054 99.7539 36.0054H99.7754C99.8158 36.0054 99.8392 35.9924 99.8457 35.9663C99.8516 35.9442 99.8568 35.9054 99.8613 35.8501C99.9036 35.8683 99.945 35.8843 99.9854 35.8979C99.9762 35.9572 99.9655 36.0037 99.9531 36.0376C99.9316 36.0871 99.8838 36.1118 99.8096 36.1118H99.709C99.6152 36.1118 99.5684 36.0656 99.5684 35.9731V35.5786H99.6963V35.7388C99.7614 35.6984 99.8206 35.6567 99.874 35.6138L99.9756 35.7085ZM99.0459 35.23H99.3359V35.9019H99.165V35.9956H99.0459V35.23ZM99.165 35.7847H99.2246V35.3472H99.165V35.7847Z" fill="white"/>
<path d="M15 16.5C15 11.5 19.5 11 20 11C20.5 11 25 11 25 16C25 19 20 18.5 20 21.5C20 25.5 20 25.5 20 25.5" stroke="white" stroke-width="3"/>
<rect x="18.5" y="26.5" width="3" height="3" fill="white"/>
</svg>
