<svg width="105" height="40" viewBox="0 0 105 40" fill="none" xmlns="http://www.w3.org/2000/svg">
<rect width="105" height="40" rx="5" fill="#249CE0"/>
<text fill="white" xml:space="preserve" style="white-space: pre" font-family="Microsoft YaHei UI" font-size="10" font-weight="bold" letter-spacing="0em"><tspan x="37" y="17.3062">本作品已使用</tspan><tspan x="37" y="30.3062">NodeJS开发</tspan></text>
<text fill="white" xml:space="preserve" style="white-space: pre" font-family="Microsoft YaHei UI" font-size="1" font-weight="bold" letter-spacing="0em"><tspan x="92" y="35.8806">NodeJS天下第一</tspan></text>

<path fill="white" d="m30.209985,13.624978l-9.92,-5.73c-0.63,-0.36 -1.46,-0.36 -2.09,0l-9.91,5.72c-0.64,0.37 -1.04,1.07 -1.04,1.81l0,10.38c0,0.75 0.4,1.44 1.04,1.81l2.6,1.5c1.26,0.62 1.71,0.62 2.28,0.62c1.87,0 2.94,-1.13 2.94,-3.09l0,-10.71c0,-0.16 -0.13,-0.29 -0.29,-0.29l-1.25,0c-0.17,0 -0.29,0.13 -0.29,0.29l0,10.7c0,0.88 -0.91,1.74 -2.38,1.01l-2.72,-1.57c-0.1,-0.05 -0.16,-0.16 -0.16,-0.27l0,-10.37c0,-0.12 0.06,-0.22 0.16,-0.28l9.91,-5.72c0.09,-0.06 0.21,-0.06 0.31,0l9.91,5.72c0.1,0.06 0.16,0.16 0.16,0.27l0,10.38c0,0.11 -0.06,0.22 -0.15,0.27l-9.92,5.73c-0.09,0.05 -0.22,0.05 -0.31,0l-2.55,-1.51c-0.07,-0.05 -0.17,-0.06 -0.24,-0.02c-0.71,0.4 -0.84,0.45 -1.5,0.68c-0.16,0.05 -0.41,0.15 0.09,0.43l3.31,1.96c0.32,0.18 0.68,0.28 1.04,0.28c0.37,0 0.73,-0.1 1.05,-0.28l9.92,-5.73c0.64,-0.37 1.04,-1.06 1.04,-1.81l0,-10.37c0,-0.75 -0.4,-1.44 -1.04,-1.81z"/>
<path fill="white" d="m27.249985,23.219978c0,2.16 -1.8,3.4 -4.94,3.4c-4.34,0 -5.25,-1.99 -5.25,-3.66c0,-0.15 0.12,-0.28 0.28,-0.28l1.29,0c0.14,0 0.26,0.1 0.28,0.24c0.19,1.3 0.77,1.96 3.4,1.96c2.09,0 2.98,-0.47 2.98,-1.57c0,-0.64 -0.25,-1.12 -3.5,-1.44c-2.72,-0.27 -4.4,-0.87 -4.4,-3.04c0,-2 1.69,-3.2 4.52,-3.2c3.18,0 4.75,1.11 4.95,3.47c0.01,0.09 -0.02,0.17 -0.07,0.22c-0.06,0.06 -0.13,0.1 -0.21,0.1l-1.29,0c-0.14,0 -0.25,-0.1 -0.28,-0.23c-0.31,-1.37 -1.07,-1.81 -3.1,-1.81c-2.28,0 -2.55,0.79 -2.55,1.39c0,0.72 0.31,0.93 3.4,1.33c3.04,0.41 4.49,0.98 4.49,3.12z"/>

</svg>
